<svg xmlns="http://www.w3.org/2000/svg" xmlns:xlink="http://www.w3.org/1999/xlink" width="563.333" height="530.137" viewBox="0 0 563.333 530.137"><defs><linearGradient id="a" x1="0.5" x2="0.5" y2="1" gradientUnits="objectBoundingBox"><stop offset="0" stop-color="#f1bedc"/><stop offset="1" stop-color="#f1bedc" stop-opacity="0.8"/></linearGradient><linearGradient id="b" x1="0.5" x2="0.5" y2="1" gradientUnits="objectBoundingBox"><stop offset="0" stop-color="#fbe7f3"/><stop offset="1" stop-color="#fbe7f3" stop-opacity="0.78"/></linearGradient></defs><g transform="translate(-1037 -2910.14)"><g transform="translate(1037 2910.14)"><path d="M241.218.029c83.416,0,97.307,85.117,97.307,166.917s-100.253,127.33-183.669,127.33c-59.308,0-142.271-10.414-154.238-59.963-4.879-20.2,20.734-46.092,20.734-69.732,0-52.024,28.849-36.587,70.162-62.969C115.252,86.452,175.921-1.836,241.218.029Z" transform="matrix(-0.966, -0.259, 0.259, -0.966, 345.936, 468.236)" fill="url(#a)"/><path d="M189.514-42.086c97.191,0,143.3,94.3,143.3,191.492s-129.571,179.3-226.762,179.3c-69.1,0-121.228-38.627-135.171-97.5-5.685-24,9.972-53.715,9.972-81.8,0-61.813,29.053-72.986,77.188-104.333C85.695,27.062,113.434-44.3,189.514-42.086Z" transform="translate(107.193 137.456)" fill="url(#b)"/><g transform="translate(335.742 197.191)"><g transform="translate(0 0)"><path d="M0,88.632v131.83a15.315,15.315,0,0,0,15.27,15.27h197.05a15.315,15.315,0,0,0,15.27-15.27V88.632a15.315,15.315,0,0,0-15.27-15.27H15.27A15.315,15.315,0,0,0,0,88.632Z" transform="translate(0 -73.362)" fill="#695d67"/><path d="M15.8,220.462V88.632a15.315,15.315,0,0,1,15.27-15.27H15.27A15.315,15.315,0,0,0,0,88.632v131.83a15.315,15.315,0,0,0,15.27,15.27h15.8A15.315,15.315,0,0,1,15.8,220.462Z" transform="translate(0 -73.362)" fill="#544e55"/><path d="M33.494,107.238V239.067a.439.439,0,0,0,.381.382h183.65a.44.44,0,0,0,.382-.382V107.238a.439.439,0,0,0-.382-.382H33.875a.44.44,0,0,0-.381.382Z" transform="translate(-18.605 -91.967)" fill="#dfebfa"/><path d="M49.3,239.067V107.238a.439.439,0,0,1,.381-.382h-15.8a.439.439,0,0,0-.381.382V239.067a.439.439,0,0,0,.381.382h15.8A.44.44,0,0,1,49.3,239.067Z" transform="translate(-18.605 -91.967)" fill="#b1dbfc"/><g transform="translate(208.502 74.793)"><path d="M472.491,254.4a3.434,3.434,0,0,1-3.434-3.434v-5.915a3.434,3.434,0,1,1,6.869,0v5.915A3.434,3.434,0,0,1,472.491,254.4Z" transform="translate(-469.057 -241.621)" fill="#544e55"/></g></g><g transform="translate(30.656 18.163)"><rect width="110.85" height="15.836" rx="7.918" transform="translate(40.72 9.614)" fill="#ffc400"/><rect width="110.85" height="15.836" rx="7.918" transform="translate(40.72 6.221)" fill="#ffd23e"/><rect width="24.885" height="15.836" rx="7.918" transform="translate(5.656 9.614)" fill="#ffc400"/><rect width="24.885" height="15.836" rx="7.918" transform="translate(5.656 6.221)" fill="#ffd23e"/><rect width="24.885" height="15.836" rx="7.918" transform="translate(5.656 36.196)" fill="#ffc400"/><rect width="24.885" height="15.836" rx="7.918" transform="translate(5.656 32.802)" fill="#ffd23e"/><rect width="156.66" height="57.122" fill="none"/><rect width="110.85" height="15.836" rx="7.918" transform="translate(40.72 36.196)" fill="#ffc400"/><rect width="110.85" height="15.836" rx="7.918" transform="translate(40.72 32.802)" fill="#ffd23e"/></g><g transform="translate(72.114 102.538)"><rect width="108.095" height="34.193" rx="10" transform="translate(0 3.309)" fill="#00c98c"/><path d="M10,0H98.1a10,10,0,0,1,10,10V24.193a10,10,0,0,1-10,10H10a10,10,0,0,1-10-10V10A10,10,0,0,1,10,0Z" fill="#3eeeb7"/></g><g transform="translate(37.369 75.514)"><rect width="24.266" height="60.666" rx="10" transform="translate(0 3.861)" fill="#7405bc"/><rect width="24.266" height="60.666" rx="10" transform="translate(0 0)" fill="#9a00ff"/></g><g transform="translate(72.114 75.514)"><rect width="108.095" height="19.303" rx="9.651" transform="translate(0 3.309)" fill="#00c98c"/><rect width="108.095" height="19.303" rx="9.651" transform="translate(0 0)" fill="#3eeeb7"/></g></g><g transform="translate(335.742 26.615)"><g transform="translate(0 0)"><path d="M0,88.632v131.83a15.315,15.315,0,0,0,15.27,15.27h197.05a15.315,15.315,0,0,0,15.27-15.27V88.632a15.315,15.315,0,0,0-15.27-15.27H15.27A15.315,15.315,0,0,0,0,88.632Z" transform="translate(0 -73.362)" fill="#695d67"/><path d="M15.8,220.462V88.632a15.315,15.315,0,0,1,15.27-15.27H15.27A15.315,15.315,0,0,0,0,88.632v131.83a15.315,15.315,0,0,0,15.27,15.27h15.8A15.315,15.315,0,0,1,15.8,220.462Z" transform="translate(0 -73.362)" fill="#544e55"/><path d="M33.494,107.238V239.067a.439.439,0,0,0,.381.382h183.65a.44.44,0,0,0,.382-.382V107.238a.439.439,0,0,0-.382-.382H33.875a.44.44,0,0,0-.381.382Z" transform="translate(-18.605 -91.967)" fill="#dfebfa"/><path d="M49.3,239.067V107.238a.439.439,0,0,1,.381-.382h-15.8a.439.439,0,0,0-.381.382V239.067a.439.439,0,0,0,.381.382h15.8A.44.44,0,0,1,49.3,239.067Z" transform="translate(-18.605 -91.967)" fill="#b1dbfc"/><g transform="translate(208.502 74.793)"><path d="M472.491,254.4a3.434,3.434,0,0,1-3.434-3.434v-5.915a3.434,3.434,0,1,1,6.869,0v5.915A3.434,3.434,0,0,1,472.491,254.4Z" transform="translate(-469.057 -241.621)" fill="#544e55"/></g></g><g transform="translate(30.656 18.163)"><rect width="110.85" height="15.836" rx="7.918" transform="translate(40.72 9.614)" fill="#ffc400"/><rect width="110.85" height="15.836" rx="7.918" transform="translate(40.72 6.221)" fill="#ffd23e"/><rect width="24.885" height="15.836" rx="7.918" transform="translate(5.656 9.614)" fill="#ffc400"/><rect width="24.885" height="15.836" rx="7.918" transform="translate(5.656 6.221)" fill="#ffd23e"/><rect width="24.885" height="15.836" rx="7.918" transform="translate(5.656 36.196)" fill="#ffc400"/><rect width="24.885" height="15.836" rx="7.918" transform="translate(5.656 32.802)" fill="#ffd23e"/><rect width="156.66" height="57.122" fill="none"/><rect width="110.85" height="15.836" rx="7.918" transform="translate(40.72 36.196)" fill="#ffc400"/><rect width="110.85" height="15.836" rx="7.918" transform="translate(40.72 32.802)" fill="#ffd23e"/></g><g transform="translate(72.114 102.538)"><rect width="108.095" height="34.193" rx="10" transform="translate(0 3.309)" fill="#00c98c"/><rect width="108.095" height="34.193" rx="10" fill="#3eeeb7"/></g><g transform="translate(37.369 75.514)"><rect width="24.266" height="60.666" rx="10" transform="translate(0 3.861)" fill="#7405bc"/><rect width="24.266" height="60.666" rx="10" transform="translate(0 0)" fill="#9a00ff"/></g><g transform="translate(72.114 75.514)"><rect width="108.095" height="19.303" rx="9.651" transform="translate(0 3.309)" fill="#00c98c"/><path d="M8.839,0H99.256A8.839,8.839,0,0,1,108.1,8.839v1.625A8.839,8.839,0,0,1,99.256,19.3H8.839A8.839,8.839,0,0,1,0,10.464V8.839A8.839,8.839,0,0,1,8.839,0Z" transform="translate(0 0)" fill="#3eeeb7"/></g></g><g transform="translate(335.742 367.766)"><g transform="translate(0 0)"><path d="M0,88.632v131.83a15.315,15.315,0,0,0,15.27,15.27h197.05a15.315,15.315,0,0,0,15.27-15.27V88.632a15.315,15.315,0,0,0-15.27-15.27H15.27A15.315,15.315,0,0,0,0,88.632Z" transform="translate(0 -73.362)" fill="#695d67"/><path d="M15.8,220.462V88.632a15.315,15.315,0,0,1,15.27-15.27H15.27A15.315,15.315,0,0,0,0,88.632v131.83a15.315,15.315,0,0,0,15.27,15.27h15.8A15.315,15.315,0,0,1,15.8,220.462Z" transform="translate(0 -73.362)" fill="#544e55"/><path d="M33.494,107.238V239.067a.439.439,0,0,0,.381.382h183.65a.44.44,0,0,0,.382-.382V107.238a.439.439,0,0,0-.382-.382H33.875a.44.44,0,0,0-.381.382Z" transform="translate(-18.605 -91.967)" fill="#dfebfa"/><path d="M49.3,239.067V107.238a.439.439,0,0,1,.381-.382h-15.8a.439.439,0,0,0-.381.382V239.067a.439.439,0,0,0,.381.382h15.8A.44.44,0,0,1,49.3,239.067Z" transform="translate(-18.605 -91.967)" fill="#b1dbfc"/><g transform="translate(208.502 74.793)"><path d="M472.491,254.4a3.434,3.434,0,0,1-3.434-3.434v-5.915a3.434,3.434,0,1,1,6.869,0v5.915A3.434,3.434,0,0,1,472.491,254.4Z" transform="translate(-469.057 -241.621)" fill="#544e55"/></g></g><g transform="translate(30.656 18.163)"><rect width="110.85" height="15.836" rx="7.918" transform="translate(40.72 9.614)" fill="#ffc400"/><rect width="110.85" height="15.836" rx="7.918" transform="translate(40.72 6.221)" fill="#ffd23e"/><rect width="24.885" height="15.836" rx="7.918" transform="translate(5.656 9.614)" fill="#ffc400"/><rect width="24.885" height="15.836" rx="7.918" transform="translate(5.656 6.221)" fill="#ffd23e"/><rect width="24.885" height="15.836" rx="7.918" transform="translate(5.656 36.196)" fill="#ffc400"/><rect width="24.885" height="15.836" rx="7.918" transform="translate(5.656 32.802)" fill="#ffd23e"/><rect width="156.66" height="57.122" fill="none"/><rect width="110.85" height="15.836" rx="7.918" transform="translate(40.72 36.196)" fill="#ffc400"/><rect width="110.85" height="15.836" rx="7.918" transform="translate(40.72 32.802)" fill="#ffd23e"/></g><g transform="translate(72.114 102.538)"><rect width="108.095" height="34.193" rx="10" transform="translate(0 3.309)" fill="#00c98c"/><path d="M8.839,0H99.256A8.839,8.839,0,0,1,108.1,8.839V25.354a8.839,8.839,0,0,1-8.839,8.839H8.839A8.839,8.839,0,0,1,0,25.354V8.839A8.839,8.839,0,0,1,8.839,0Z" fill="#3eeeb7"/></g><g transform="translate(37.369 75.514)"><rect width="24.266" height="60.666" rx="10" transform="translate(0 3.861)" fill="#7405bc"/><rect width="24.266" height="60.666" rx="10" transform="translate(0 0)" fill="#9a00ff"/></g><g transform="translate(72.114 75.514)"><rect width="108.095" height="19.303" rx="9.651" transform="translate(0 3.309)" fill="#00c98c"/><rect width="108.095" height="19.303" rx="9.651" transform="translate(0 0)" fill="#3eeeb7"/></g></g><g transform="translate(90.62 88.116) rotate(-30)"><path d="M167.3,17.854V30.722A120.463,120.463,0,0,0,0,37.084L6.44,43.26a111.543,111.543,0,0,1,153.022-7.552H149.45v8.927h22.317a4.464,4.464,0,0,0,4.463-4.463V17.854Zm0,0" transform="translate(0 5.81)" fill="#ffc400"/><path d="M167.3,20.179V34.721C118.934-14.229,44.94-11.051,0,41.911l6.44,6.981C47.381.653,114.516-3.091,159.463,40.357H149.45V50.446h22.317a4.781,4.781,0,0,0,4.463-5.045V20.179Zm0,0" transform="translate(0 0)" fill="#ffd23e"/></g><g transform="translate(0 157.485)"><g transform="translate(0)"><path d="M233.238,52.966V245.991a16.085,16.085,0,0,1-16.085,16.085H16.085A16.085,16.085,0,0,1,0,245.991V52.966Z" transform="translate(0 -20.733)" fill="#b1dbfc"/><path d="M233.238,52.966V245.991a16.085,16.085,0,0,1-16.085,16.085H16.085A16.085,16.085,0,0,1,0,245.991V52.966Z" transform="translate(0 -28.838)" fill="#dfebfa"/><path d="M233.238,16.085V32.171H0V16.085A16.085,16.085,0,0,1,16.085,0H217.153A16.085,16.085,0,0,1,233.238,16.085Z" fill="#1d9dff"/><path d="M43.353,26.483H39.332a4.022,4.022,0,0,0,0,8.043h4.022a4.022,4.022,0,0,0,0-8.043Z" transform="translate(-19.225 -14.419)" fill="#ff5364"/><path d="M85,26.792a3.682,3.682,0,0,0-3.056,0,4.646,4.646,0,0,0-1.327.845,4.078,4.078,0,0,0,0,5.71,4.652,4.652,0,0,0,1.327.845,3.792,3.792,0,0,0,3.056,0,4.646,4.646,0,0,0,1.327-.845,4.078,4.078,0,0,0,0-5.71A4.64,4.64,0,0,0,85,26.792Z" transform="translate(-43.256 -14.406)" fill="#f0c419"/><path d="M115.925,27.621a4.653,4.653,0,0,0-.845,1.327,3.789,3.789,0,0,0,0,3.056,4.646,4.646,0,0,0,.845,1.327,4.078,4.078,0,0,0,5.71,0A4.652,4.652,0,0,0,122.48,32a3.364,3.364,0,0,0,.322-1.528,4.021,4.021,0,0,0-6.876-2.855Z" transform="translate(-62.481 -14.391)" fill="#65ddb9"/><path d="M299.644,26.483H162.918a4.022,4.022,0,1,0,0,8.043H299.644a4.022,4.022,0,1,0,0-8.043Z" transform="translate(-86.512 -14.419)" fill="#3b92f6"/><g transform="translate(23.205 38.738)"><rect width="132.368" height="18.91" rx="9.455" transform="translate(48.625 11.481)" fill="#ffc400"/><rect width="132.368" height="18.91" rx="9.455" transform="translate(48.625 7.429)" fill="#ffd23e"/><rect width="29.715" height="18.91" rx="9.455" transform="translate(6.753 11.481)" fill="#ffc400"/><rect width="29.715" height="18.91" rx="9.455" transform="translate(6.753 7.429)" fill="#ffd23e"/><rect width="29.715" height="18.91" rx="9.455" transform="translate(6.753 43.222)" fill="#ffc400"/><rect width="29.715" height="18.91" rx="9.455" transform="translate(6.753 39.17)" fill="#ffd23e"/><rect width="187.072" height="68.21" fill="none"/><rect width="132.368" height="18.91" rx="9.455" transform="translate(48.625 43.222)" fill="#ffc400"/><rect width="132.368" height="18.91" rx="9.455" transform="translate(48.625 39.17)" fill="#ffd23e"/></g><rect width="35.793" height="10.13" rx="5" transform="translate(124.507 209.601)" fill="#858585"/><g transform="translate(71.83 146.794)"><path d="M8.839,0h114.69a8.839,8.839,0,0,1,8.839,8.839V33.033a8.839,8.839,0,0,1-8.839,8.839H8.839A8.839,8.839,0,0,1,0,33.033V8.839A8.839,8.839,0,0,1,8.839,0Z" transform="translate(0 4.052)" fill="#3bd1a2"/><path d="M8.839,0h114.69a8.839,8.839,0,0,1,8.839,8.839V33.033a8.839,8.839,0,0,1-8.839,8.839H8.839A8.839,8.839,0,0,1,0,33.033V8.839A8.839,8.839,0,0,1,8.839,0Z" fill="#3af8bd"/></g><rect width="35.793" height="10.13" rx="5" transform="translate(124.507 207.575)" fill="#cccbcc"/><g transform="translate(29.283 113.702)"><rect width="29.715" height="74.288" rx="10" transform="translate(0 4.727)" fill="#7405bc"/><rect width="29.715" height="74.288" rx="10" transform="translate(0 0)" fill="#9a00ff"/></g><rect width="35.793" height="10.13" rx="5" transform="translate(167.054 209.601)" fill="#f81b91"/><rect width="35.793" height="10.13" rx="5" transform="translate(167.054 207.575)" fill="#fe37a1"/><g transform="translate(71.83 113.702)"><rect width="132.368" height="23.637" rx="10" transform="translate(0 4.052)" fill="#3bd1a2"/><path d="M8.839,0h114.69a8.839,8.839,0,0,1,8.839,8.839V14.8a8.839,8.839,0,0,1-8.839,8.839H8.839A8.839,8.839,0,0,1,0,14.8V8.839A8.839,8.839,0,0,1,8.839,0Z" fill="#3eeeb7"/></g></g><g transform="translate(20.049 195.661)"><g transform="translate(0 0)"><path d="M300.878,87.63l.151-5.086-3.219-.1a12.336,12.336,0,0,0-1.091-3.3l2.528-2-3.154-3.992-2.527,2a12.332,12.332,0,0,0-2.957-1.821l.653-3.158-4.982-1.032-.655,3.156a12.219,12.219,0,0,0-3.437.5l-1.526-2.835-4.48,2.413,1.526,2.835a12.264,12.264,0,0,0-2.308,2.6l-2.994-1.192-1.882,4.728,3,1.193a12.329,12.329,0,0,0-.106,3.469l-3.058,1.011,1.6,4.831,3.058-1.011a12.272,12.272,0,0,0,2.153,2.726l-1.691,2.74L279.8,98.98l1.7-2.745a12.44,12.44,0,0,0,3.4.705l.465,3.191L290.4,99.4l-.464-3.187a12.354,12.354,0,0,0,3.058-1.647L295.4,96.7l3.384-3.8-2.407-2.144a12.46,12.46,0,0,0,1.281-3.226Zm-12.125,2.725a6.5,6.5,0,1,1,2.64-8.8A6.506,6.506,0,0,1,288.753,90.356Z" transform="translate(-270.357 -69.147)" fill="#8b8b8b"/></g></g><g transform="translate(18.517 194.223)"><g transform="translate(0 0)"><path d="M300.878,87.63l.151-5.086-3.219-.1a12.336,12.336,0,0,0-1.091-3.3l2.528-2-3.154-3.992-2.527,2a12.332,12.332,0,0,0-2.957-1.821l.653-3.158-4.982-1.032-.655,3.156a12.219,12.219,0,0,0-3.437.5l-1.526-2.835-4.48,2.413,1.526,2.835a12.264,12.264,0,0,0-2.308,2.6l-2.994-1.192-1.882,4.728,3,1.193a12.329,12.329,0,0,0-.106,3.469l-3.058,1.011,1.6,4.831,3.058-1.011a12.272,12.272,0,0,0,2.153,2.726l-1.691,2.74L279.8,98.98l1.7-2.745a12.44,12.44,0,0,0,3.4.705l.465,3.191L290.4,99.4l-.464-3.187a12.354,12.354,0,0,0,3.058-1.647L295.4,96.7l3.384-3.8-2.407-2.144a12.46,12.46,0,0,0,1.281-3.226Zm-12.125,2.725a6.5,6.5,0,1,1,2.64-8.8A6.506,6.506,0,0,1,288.753,90.356Z" transform="translate(-270.357 -69.147)" fill="#e2e2e2"/></g></g><g transform="translate(57.931 198.699)"><path d="M116.755,30.177a10.661,10.661,0,0,0-1.572-.069,14.548,14.548,0,0,0-9.8,4.87V46.132l.7.08c2.122.242,3.59.917,4.366,2.006a3.913,3.913,0,0,1,.539,3.022,2.438,2.438,0,0,0,1.851,2.976,12.254,12.254,0,0,0,2.306.22A12.3,12.3,0,0,0,127.336,42.2,12.348,12.348,0,0,0,116.755,30.177Z" transform="translate(-99.696 -28.476)" fill="#fabe2c"/><path d="M326.581,43.519A12.348,12.348,0,0,0,316,31.5V55.635A12.15,12.15,0,0,0,326.581,43.519Z" transform="translate(-298.941 -29.796)" fill="#ff9100"/><g transform="translate(17.592 6.811)"><path d="M326.585,130.315a2.43,2.43,0,1,1,3.436,0h0A2.435,2.435,0,0,1,326.585,130.315Z" transform="translate(-325.875 -126.167)" fill="#00c8c8"/></g><g transform="translate(11.333 5.133)"><path d="M210.02,98.153a2.429,2.429,0,1,1,2.975,1.718A2.427,2.427,0,0,1,210.02,98.153Z" transform="translate(-209.936 -95.096)" fill="#474f54"/></g><g transform="translate(6.752 9.713)"><path d="M126.883,184.709a2.429,2.429,0,1,1,2.975-1.718A2.431,2.431,0,0,1,126.883,184.709Z" transform="translate(-125.082 -179.933)" fill="#ff435b"/></g><g transform="translate(19.267 13.067)"><path d="M358.7,246.827a2.429,2.429,0,1,1,2.975-1.718A2.426,2.426,0,0,1,358.7,246.827Z" transform="translate(-356.897 -242.051)" fill="#99341f"/></g><path d="M48.429,0C46.422,0,46,7.544,46,13.824c0,.282,0,.541.006.81l1.715.81h1.856l1.277-.81c0-.269.005-.523.005-.81,0-6.28-.422-13.82-2.429-13.82Z" transform="translate(-43.517 -0.004)" fill="#b35324"/><path d="M93.424,14.634c0-.269.005-.523.005-.81C93.429,7.544,93.008,0,91,0V15.443h1.147Z" transform="translate(-86.087 -0.004)" fill="#99341f"/><path d="M48.53,271H46.106c.029,3.581.234,5.933.246,6.15h4.356c.021-.4.219-2.414.246-6.15Z" transform="translate(-43.617 -256.374)" fill="#fff7e6"/><path d="M93.424,271H91v6.15h2.178C93.2,276.758,93.4,274.74,93.424,271Z" transform="translate(-86.087 -256.374)" fill="#ffccb3"/><path d="M4.913,361a3.242,3.242,0,0,0-3.239,3.239v1.619A1.716,1.716,0,0,1,0,367.536v1.619H3.293a4.8,4.8,0,0,0,1.62-.3,4.921,4.921,0,0,0,3.239-4.614A3.242,3.242,0,0,0,4.913,361Z" transform="translate(0 -341.516)" fill="#474f54"/><path d="M94.239,364.243A3.242,3.242,0,0,0,91,361v7.853A4.921,4.921,0,0,0,94.239,364.243Z" transform="translate(-86.087 -341.516)" fill="#32393f"/><circle cx="2.429" cy="2.429" r="2.429" transform="translate(14.63 17.869)" fill="#fff7e6"/><path d="M318.429,333.433A2.429,2.429,0,0,0,316,331v4.859A2.429,2.429,0,0,0,318.429,333.433Z" transform="translate(-298.941 -313.135)" fill="#ffe6cc"/></g></g><g transform="translate(275.093 504.101)"><path d="M17.405-.753,10.676,10.123l18.543,1.967L14.609,24.732l1.3-10.957L0,12.089Z" transform="translate(0 1.084)" fill="rgba(169,0,252,0.23)"/><path d="M18.7,0,14.762,10.676l15.49,2.53-13.8,12.079,3.547-10.957L5.563,12.012Z" transform="translate(-1.166)" fill="rgba(241,92,252,0.41)"/></g><g transform="translate(282.532 26.794)"><path d="M26.145-.753,16.037,15.584l27.854,2.954L21.946,37.53,23.9,21.071,0,18.538Z" transform="translate(0 1.25)" fill="#fcc100"/><path d="M25.29,0,19.381,16.037l23.268,3.8L21.913,37.983,27.24,21.523,5.563,18.044Z" transform="translate(1.042)" fill="#fccf3b"/></g><path d="M460.635,49.616H455.02V44h-1.4v5.616H448v1.4h5.616v5.616h1.4V51.02h5.616Z" transform="translate(-233.714 444.064)" fill="#8684bd"/><path d="M305.984,408.821l6.16-2.685a.235.235,0,0,0,0-.316l-6.16-2.685-2.764-6.16a.138.138,0,0,0-.053-.04.156.156,0,0,0-.13,0,.146.146,0,0,0-.054.04l-2.764,6.081-6.16,2.764a.238.238,0,0,0,0,.316l6.16,2.685,2.764,6.081q.159.237.237,0Z" transform="translate(-212.384 42.909)" fill="#628bf7"/><path d="M60.658,219.6l6.081-2.685a.158.158,0,0,0,0-.316l-6.081-2.685a.081.081,0,0,1-.056-.023.079.079,0,0,1-.023-.056l-2.764-6.081c0-.158-.158-.158-.237,0l-2.685,6.081h-.079l-6.16,2.764a.237.237,0,0,0,0,.316l6.16,2.685h.079l2.685,6.16c.079.158.237.158.237,0l2.764-6.081a.079.079,0,0,1,.079-.079Z" transform="translate(-17.05 -112.34)" fill="#ff7abc"/><path d="M533.113,34.773l-5.054-2.211c-.079,0-.079-.158,0-.158l5.054-2.29h.079l2.211-5.054c0-.079.158-.079.158,0l2.29,5.054,5.054,2.29c.079,0,.079.158,0,.158l-5.054,2.211-2.29,5.054H535.4l-2.211-5.054Z" transform="translate(-503.243 471.75)" fill="#fdd2f8"/><path d="M60.658,219.6l6.081-2.685a.158.158,0,0,0,0-.316l-6.081-2.685a.081.081,0,0,1-.056-.023.079.079,0,0,1-.023-.056l-2.764-6.081c0-.158-.158-.158-.237,0l-2.685,6.081h-.079l-6.16,2.764a.237.237,0,0,0,0,.316l6.16,2.685h.079l2.685,6.16c.079.158.237.158.237,0l2.764-6.081a.079.079,0,0,1,.079-.079Z" transform="translate(163.002 -121.817)" fill="rgba(55,246,246,0.63)"/><ellipse cx="41.543" cy="37.124" rx="41.543" ry="37.124" transform="translate(205.375 181.634)" fill="rgba(255,184,227,0.3)"/><ellipse cx="48.152" cy="42.851" rx="48.152" ry="42.851" transform="translate(268.817 396.629)" fill="rgba(255,184,227,0.3)"/></g><ellipse cx="41.543" cy="37.124" rx="41.543" ry="37.124" transform="translate(1367.89 2910.574)" fill="rgba(255,184,227,0.3)"/></g></svg>