<svg xmlns="http://www.w3.org/2000/svg" xmlns:xlink="http://www.w3.org/1999/xlink" width="427" height="518.984" viewBox="0 0 427 518.984"><defs><linearGradient id="a" x1="0.5" y1="1" x2="0.5" gradientUnits="objectBoundingBox"><stop offset="0" stop-color="#fff"/><stop offset="0.503" stop-color="#fff"/><stop offset="1" stop-color="#fff"/></linearGradient><linearGradient id="b" x1="0.5" y1="1" x2="0.5" gradientUnits="objectBoundingBox"><stop offset="0" stop-color="#f2f2f2"/><stop offset="1" stop-color="#f2f2f2"/></linearGradient></defs><g transform="translate(0 -0.077)"><g transform="translate(-1191 -288)"><g transform="translate(1437 406)"><g transform="translate(0 0)"><path d="M82.5,22.107H63V6.141C63,2.755,59.635,0,55.5,0H7.5C3.364,0,0,2.755,0,6.141V40.529c0,3.386,3.364,6.141,7.5,6.141H20.584L42.727,57.547a1.757,1.757,0,0,0,.772.176,1.706,1.706,0,0,0,.995-.308A1.081,1.081,0,0,0,44.871,56l-5.062-9.327H48V67.548c0,3.386,3.364,6.141,7.5,6.141h27c4.136,0,7.5-2.755,7.5-6.141v-39.3C90,24.861,86.635,22.107,82.5,22.107ZM60.534,45.048c.166-.124.324-.252.476-.388s.286-.275.421-.419a6.6,6.6,0,0,0,.437-.511,5.822,5.822,0,0,0,.432-.652c.068-.122.127-.243.186-.368a5.194,5.194,0,0,0,.292-.77c.022-.076.054-.149.073-.226a4.869,4.869,0,0,0,.135-.861A12.037,12.037,0,0,1,69,39.3c5.79,0,10.5,3.858,10.5,8.6s-4.71,8.6-10.5,8.6-10.5-3.858-10.5-8.6a7.1,7.1,0,0,1,.252-1.857c.076-.031.144-.07.219-.1a7.787,7.787,0,0,0,1.175-.628C60.277,45.225,60.409,45.14,60.534,45.048ZM49.5,44.213h-12a1.6,1.6,0,0,0-1.257.559,1.042,1.042,0,0,0-.114,1.168l4.071,7.5L21.771,44.388A1.758,1.758,0,0,0,21,44.213H7.5c-2.481,0-4.5-1.653-4.5-3.684V6.141C3,4.109,5.019,2.456,7.5,2.456h48c2.481,0,4.5,1.653,4.5,3.684V40.529a2.993,2.993,0,0,1-.081.658c-.02.085-.048.168-.074.252a3.3,3.3,0,0,1-.133.352c-.046.1-.1.205-.153.3-.044.075-.095.145-.144.217a4.408,4.408,0,0,1-2.425,1.673c-.006,0-.011.007-.016.009a5.346,5.346,0,0,1-1.473.219ZM87,67.548c0,2.031-2.019,3.684-4.5,3.684h-27c-2.481,0-4.5-1.653-4.5-3.684V66.32H87Zm0-3.684H51V46.669h4.5c.038,0,.072-.009.11-.009A8.812,8.812,0,0,0,55.5,47.9c0,6.1,6.057,11.053,13.5,11.053S82.5,53.993,82.5,47.9,76.443,36.844,69,36.844a15.982,15.982,0,0,0-6,1.168V31.932H87Zm0-34.388H63V24.563H82.5c2.481,0,4.5,1.653,4.5,3.684Z" fill="#f2f2f2"/><g transform="translate(14.702 6.963)"><path d="M90.195,48H85c-7.166,0-13,5.206-13,11.6a1.236,1.236,0,0,0,1.3,1.16h28.592a1.236,1.236,0,0,0,1.3-1.16C103.191,53.206,97.361,48,90.195,48ZM74.68,58.444C75.322,53.872,79.7,50.321,85,50.321h5.2c5.292,0,9.675,3.551,10.317,8.123Z" transform="translate(-72 -48)" fill="#f2f2f2"/></g><g transform="translate(14.702 33.363)"><path d="M101.892,216H73.3a1.236,1.236,0,0,0-1.3,1.16c0,3.2,2.915,5.8,6.5,5.8H96.693c3.583,0,6.5-2.6,6.5-5.8A1.236,1.236,0,0,0,101.892,216Zm-5.2,4.642H78.5a3.9,3.9,0,0,1-3.677-2.321h25.547A3.9,3.9,0,0,1,96.692,220.642Z" transform="translate(-72 -216)" fill="#f2f2f2"/></g><g transform="translate(14.702 27.126)"><path d="M99.671,177.5a2.137,2.137,0,0,1-3.369,0,4.879,4.879,0,0,0-7.039,0,2.129,2.129,0,0,1-3.358,0,4.869,4.869,0,0,0-7.031,0,2.127,2.127,0,0,1-3.357,0A4.837,4.837,0,0,0,72,176v2.321a2.2,2.2,0,0,1,1.679.82,4.872,4.872,0,0,0,7.034,0,2.126,2.126,0,0,1,3.356,0,4.873,4.873,0,0,0,7.035,0,2.133,2.133,0,0,1,3.363,0,4.882,4.882,0,0,0,7.04,0,2.212,2.212,0,0,1,1.684-.822V176A4.851,4.851,0,0,0,99.671,177.5Z" transform="translate(-72 -176)" fill="#f2f2f2"/></g><g transform="translate(14.702 23.379)"><rect width="31.191" height="2.321" fill="#f2f2f2"/></g><g transform="translate(24.111 13.535)"><rect width="2.599" height="2.321" fill="#f2f2f2"/></g><g transform="translate(30.138 13.535)"><rect width="2.599" height="2.321" fill="#f2f2f2"/></g><g transform="translate(36.166 13.535)"><rect width="2.599" height="2.321" fill="#f2f2f2"/></g><g transform="translate(64.822 43.645)"><path d="M347.441,282.344l-5.579,4.982-1.68-1.5-1.838,1.641,2.6,2.321a1.411,1.411,0,0,0,1.838,0l6.5-5.8Z" transform="translate(-338.344 -282.344)" fill="#f2f2f2"/></g></g></g><g transform="translate(1278.437 542.082)"><g transform="translate(0)"><path d="M141.152,0H98.919C94.552,0,91,3.111,91,6.936V71.982c0,3.825,3.552,6.936,7.919,6.936h42.233c4.367,0,7.919-3.111,7.919-6.936V6.936C149.07,3.111,145.518,0,141.152,0Z" transform="translate(-91)" fill="#f9f9f9"/></g><g transform="translate(10.558 9.248)"><g transform="translate(0)"><path d="M185.314,92.523h-2.64V90.211c0-5.582-4.541-10.252-10.558-11.326V76.339a2.663,2.663,0,0,0-5.279,0v2.546c-6.018,1.074-10.558,5.744-10.558,11.326v2.312h-2.64a2.332,2.332,0,1,0,0,4.624h31.675a2.332,2.332,0,1,0,0-4.624ZM164.2,64.624h10.558a2.332,2.332,0,1,0,0-4.624H164.2a2.332,2.332,0,1,0,0,4.624ZM174.756,115.8H164.2a2.332,2.332,0,1,0,0,4.624h10.558a2.332,2.332,0,1,0,0-4.624Z" transform="translate(-151 -60)" fill="url(#a)"/></g></g></g><path d="M58,25H30a5.006,5.006,0,0,0-5,5V53.636a2.951,2.951,0,0,0-.274.225L23.586,55H23v-.716a20.87,20.87,0,0,0-6.15-14.849l-.85-.85V36.96a4.374,4.374,0,0,0,4-4.374V30.721l3-1V29a16.719,16.719,0,0,0-1.973-7.565A5.948,5.948,0,0,0,22.65,15H25.5l2.1,2.8A3,3,0,0,0,33,16V15h1a3,3,0,0,0,3-3V4a3,3,0,0,0-3-3H20a3,3,0,0,0-3,3v7H12a9.012,9.012,0,0,0-8.995,8.689l-.3.444A10.179,10.179,0,0,0,4.555,33.506L8,36.459v2.63A6,6,0,0,0,3,45v6a2,2,0,0,0,2,2v3.939A5.967,5.967,0,0,0,6.785,61.2,6.092,6.092,0,0,0,11.116,63H30.007A5,5,0,0,0,35,58a2.96,2.96,0,0,0-.184-1H37v4H35v2H53V61H51V57h7a5.006,5.006,0,0,0,5-5V30a5.006,5.006,0,0,0-5-5ZM30,27H58a3,3,0,0,1,3,3V49H54a10.01,10.01,0,0,0-6.3-9.283,6,6,0,1,0-7.392,0A10.01,10.01,0,0,0,34,49H27V30A3,3,0,0,1,30,27Zm10,8a4,4,0,1,1,4,4A4,4,0,0,1,40,35Zm3,6.069a7.281,7.281,0,0,1,2,0V42a1,1,0,0,1-2,0ZM44,45a3,3,0,0,0,3-3v-.411A8.009,8.009,0,0,1,52,49H36a8.009,8.009,0,0,1,5-7.411V42A3,3,0,0,0,44,45ZM23,57v4H21V57Zm-2-2.716V55H13V53a2,2,0,0,0,2-2V45a5.964,5.964,0,0,0-1.142-3.508,4.646,4.646,0,0,0,1.267-.954l.311.311A18.886,18.886,0,0,1,21,54.283Zm-.021-26L18,29.279v3.307A2.414,2.414,0,0,1,15.586,35H12v2h2v1.708a2.6,2.6,0,0,1-1.789,1.231A5.966,5.966,0,0,0,10,39.089V31.828a2.985,2.985,0,0,0-.878-2.121l-.829-.829A1,1,0,0,1,8,28.171V28a1,1,0,0,1,1-1h1V23a2,2,0,0,1,1.123-1.79A5.963,5.963,0,0,0,15.386,23H17a5.971,5.971,0,0,0,2.341-.476,15.027,15.027,0,0,1,1.639,5.762ZM19,4a1,1,0,0,1,1-1H34a1,1,0,0,1,1,1v8a1,1,0,0,1-1,1H31v3a1,1,0,0,1-1.8.6L26.5,13H21.46A6.018,6.018,0,0,0,19,11.349ZM5.855,31.987A8.179,8.179,0,0,1,4.373,21.242L5,20.3V20a7.009,7.009,0,0,1,7-7h5a4,4,0,1,1,0,8H15.386a3.978,3.978,0,0,1-3.714-2.514l-.743-1.857-1.857.742.743,1.857c.046.115.108.218.161.328A4.01,4.01,0,0,0,8,23V25.17A3.006,3.006,0,0,0,6,28v.172a2.981,2.981,0,0,0,.878,2.121l.829.829A1,1,0,0,1,8,31.828v2ZM5,45a4,4,0,0,1,8,0v6L5,51ZM8.162,59.747A3.947,3.947,0,0,1,7,56.938V53h4v2.266a2.99,2.99,0,0,0-1.447,1.393l-.447.9,1.789.9.447-.9A.992.992,0,0,1,12.235,57H19v4H11.116a4.137,4.137,0,0,1-2.954-1.253ZM33,58a3,3,0,0,1-2.993,3H25V56.413l1.141-1.14a.967.967,0,0,1,1.5.244L28.382,57h2.68v0h.943A1,1,0,0,1,33,58Zm16,3H39V57H49Zm9-6H29.618l-.188-.376A2.915,2.915,0,0,0,27,53.013V51H61v1a3,3,0,0,1-3,3ZM48,23a3.009,3.009,0,0,0,2.4-1.2L52.5,19H58a3,3,0,0,0,3-3V8a3,3,0,0,0-3-3H44a3,3,0,0,0-3,3v8a3,3,0,0,0,3,3h1v1A3,3,0,0,0,48,23Zm-4-6a1,1,0,0,1-1-1V8a1,1,0,0,1,1-1H58a1,1,0,0,1,1,1v8a1,1,0,0,1-1,1H51.5l-2.7,3.6A1,1,0,0,1,47,20V17Zm13-6H45V9H57Zm0,4H45V13H57ZM33,7H21V5H33Zm0,4H21V9H33Z" transform="translate(1226 287.077)" fill="url(#b)"/><g transform="translate(1558.5 594.095)"><g transform="translate(26.624 13.114)"><path d="M147.391,62.169h32.876v52.852H147.391Z" transform="translate(-147.391 -62.169)" fill="#fcfcfc"/></g><g transform="translate(26.624 13.114)"><path d="M147.391,62.169h17.453v52.852H147.391Z" transform="translate(-147.391 -62.169)" fill="#f8f8f8"/></g><g transform="translate(22.37 13.114)"><path d="M115.108,62.169h5.023v52.852h-5.023Z" transform="translate(-115.108 -62.169)" fill="#fcfcfc"/></g><g transform="translate(43.062 13.114)"><path d="M272.142,62.169H288.58v52.852H272.142Z" transform="translate(-272.142 -62.169)" fill="#fbfbfb"/></g><g transform="translate(29.088 19.055)"><path d="M166.1,103.707h14.988v4.334H166.1Z" transform="translate(-166.097 -103.707)" fill="#fff"/></g><g transform="translate(29.088 36.303)"><path d="M166.1,224.3h14.988v4.334H166.1Z" transform="translate(-166.097 -224.299)" fill="#fff"/></g><g transform="translate(34.758 42.997)"><path d="M217.428,291.776l-8.3-15.912c4.586-4.978,8.848-6.782,13.434-1.8Z" transform="translate(-209.124 -271.109)" fill="#fff"/></g><g transform="translate(43.062 44.02)"><path d="M280.445,281.988a11.255,11.255,0,0,0-8.3-3.733V297.9l4.727-9.058.548-2.329,1.38-1.366Z" transform="translate(-272.141 -278.255)" fill="#fff"/></g><g transform="translate(37.428 47.071)"><path d="M2.117,0A1.976,1.976,0,0,1,4.111,2.117,2.273,2.273,0,0,1,1.994,4.356,1.976,1.976,0,0,1,0,2.24,2.273,2.273,0,0,1,2.117,0Z" transform="translate(0 1.575) rotate(-22.514)" fill="#b7b7b7"/></g><g transform="translate(46.252 50.267)"><path d="M298.385,321.936a2.121,2.121,0,0,0-2.029,2.2,2.177,2.177,0,0,0,1.536,2.137l1.928-3.695A1.947,1.947,0,0,0,298.385,321.936Z" transform="translate(-296.356 -321.936)" fill="#e2e2e2"/></g><g transform="translate(40.058 53.825)"><path d="M2.2,0A1.918,1.918,0,0,1,4.234,2.031a2.338,2.338,0,0,1-2.2,2.2A1.918,1.918,0,0,1,0,2.2,2.338,2.338,0,0,1,2.2,0Z" transform="translate(0 2.995) rotate(-45)" fill="#afafaf"/></g><g transform="translate(43.062 19.055)"><path d="M272.142,103.707h13.973v4.334H272.142Z" transform="translate(-272.142 -103.707)" fill="#f5f5f6"/><path d="M272.142,224.3h13.973v4.333H272.142Z" transform="translate(-272.142 -207.051)" fill="#f5f5f6"/></g><g transform="translate(43.062 54.619)"><path d="M274.171,354.563a2.121,2.121,0,0,0-2.029-2.2v4.405A2.121,2.121,0,0,0,274.171,354.563Z" transform="translate(-272.142 -352.36)" fill="#afafaf"/></g><g transform="translate(32.801 42.525)"><path d="M212.837,275.155l-.978-1.062a9.8,9.8,0,0,0-14.651,0l-.978,1.062-1.957-2.124.978-1.062a12.423,12.423,0,0,1,18.564,0l.978,1.062Z" transform="translate(-194.273 -267.803)" fill="#efefef"/></g><g transform="translate(43.062 42.524)"><path d="M281.424,271.968a12.581,12.581,0,0,0-9.282-4.167v3a9.929,9.929,0,0,1,7.325,3.288l.978,1.062,1.957-2.124Z" transform="translate(-272.142 -267.801)" fill="#f2f2f2"/></g></g><path d="M130.74,25.493a1.125,1.125,0,0,0,1.1-1.145V18.241a4.731,4.731,0,0,0-4.639-4.808h-2.43v-7.4A5.933,5.933,0,0,0,118.959,0H85.974a5.933,5.933,0,0,0-5.817,6.029V71.97A5.933,5.933,0,0,0,85.974,78h32.985a5.933,5.933,0,0,0,5.817-6.029V49.913h2.43a4.731,4.731,0,0,0,4.639-4.808V29.943a1.105,1.105,0,1,0-2.209,0V45.105a2.478,2.478,0,0,1-2.43,2.519H103.644a1.082,1.082,0,0,0-.719.276L96.5,53.606V18.241a2.478,2.478,0,0,1,2.43-2.519h28.273a2.478,2.478,0,0,1,2.43,2.519v6.108A1.125,1.125,0,0,0,130.74,25.493ZM122.567,71.97a3.68,3.68,0,0,1-3.608,3.74H85.974a3.68,3.68,0,0,1-3.608-3.74V68.23h40.2Zm0-58.538H98.932a4.731,4.731,0,0,0-4.639,4.808V56.1a1.11,1.11,0,0,0,1.823.869l7.936-7.051h18.514V65.941h-40.2V9.616h40.2Zm0-6.106h-40.2v-1.3a3.68,3.68,0,0,1,3.608-3.74h32.985a3.68,3.68,0,0,1,3.608,3.74Z" transform="translate(1110.843 698)" fill="#f2f2f2"/></g><g transform="translate(141.843 307)"><g transform="translate(101.362 3.663)"><g transform="translate(0)"><path d="M225.69,24.047h-.147a1.146,1.146,0,0,0,0,2.29h.147a1.146,1.146,0,0,0,0-2.29Z" transform="translate(-224.438 -24.047)" fill="#f2f2f2"/></g></g><g transform="translate(107.252 3.663)"><g transform="translate(0)"><path d="M265.768,24.047h-.147a1.146,1.146,0,0,0,0,2.29h.147a1.146,1.146,0,0,0,0-2.29Z" transform="translate(-264.516 -24.047)" fill="#f2f2f2"/></g></g><g transform="translate(95.472 3.663)"><g transform="translate(0)"><path d="M185.612,24.047h-.147a1.146,1.146,0,0,0,0,2.29h.147a1.146,1.146,0,0,0,0-2.29Z" transform="translate(-184.36 -24.047)" fill="#f2f2f2"/></g></g><g transform="translate(99.006 70.825)"><g transform="translate(0)"><path d="M214.223,464.908H209.51a1.146,1.146,0,0,0,0,2.29h4.712a1.146,1.146,0,0,0,0-2.29Z" transform="translate(-208.406 -464.908)" fill="#f2f2f2"/></g></g><g transform="translate(100.304 19.462)"><path d="M238.821,140.066l5-5.181a1.175,1.175,0,0,0,0-1.619,1.077,1.077,0,0,0-1.562,0l-3.384,3.508-.937-.971,3.384-3.508a1.175,1.175,0,0,0,0-1.619,1.077,1.077,0,0,0-1.562,0l-3.384,3.508-.937-.971,3.384-3.508a1.174,1.174,0,0,0,0-1.619,1.077,1.077,0,0,0-1.562,0L233.1,132.4l0,0,0,0-.83.861a3.675,3.675,0,0,0-.883,3.506l-1.249,1.294-2.428-2.337a5.259,5.259,0,0,0,.015-1.577,7.008,7.008,0,0,0-1.937-3.848c-2.268-2.351-5.584-2.738-7.393-.863s-1.435,5.312.833,7.663a6.339,6.339,0,0,0,4.455,2.05,4.584,4.584,0,0,0,.773-.065l2.26,2.523-5.068,5.254a3.058,3.058,0,0,0,0,4.21,2.829,2.829,0,0,0,4.061,0l4.918-5.1,4.4,4.911a2.825,2.825,0,0,0,4.089.03,3.058,3.058,0,0,0,0-4.209l-.029-.029-4.738-4.56,1.1-1.138A3.375,3.375,0,0,0,238.821,140.066Zm-13.771-3.718c-.931.966-2.886.57-4.269-.863s-1.764-3.46-.833-4.425a1.862,1.862,0,0,1,1.378-.529,4.237,4.237,0,0,1,2.891,1.392h0a4.745,4.745,0,0,1,1.312,2.553A2.262,2.262,0,0,1,225.05,136.348Zm1.479,1.7c.027-.027.056-.053.083-.081s.052-.057.078-.086l1.876,1.806-.295.305Zm11.027,10.292a.713.713,0,0,1-.011.96.653.653,0,0,1-.926.011l-4.438-4.954.6-.617Zm-3.159-9.518-10.259,10.634a.652.652,0,0,1-.907.03.711.711,0,0,1-.03-1l10.259-10.634a1.176,1.176,0,0,0,.17-1.391,1.33,1.33,0,0,1,.192-1.574l.052-.054,3.436,3.562-.052.054a1.216,1.216,0,0,1-1.519.2A1.076,1.076,0,0,0,234.4,138.822Z" transform="translate(-217.241 -127.75)" fill="#f2f2f2"/></g></g><g transform="translate(72.63 478.903)"><g transform="translate(24.546 13.114)"><path d="M147.391,62.169h16.823V89.214H147.391Z" transform="translate(-147.391 -62.169)" fill="#fcfcfc"/></g><g transform="translate(24.546 13.114)"><path d="M147.391,62.169h8.931V89.214h-8.931Z" transform="translate(-147.391 -62.169)" fill="#f8f8f8"/></g><g transform="translate(22.37 13.114)"><path d="M115.108,62.169h2.57V89.214h-2.57Z" transform="translate(-115.108 -62.169)" fill="#fcfcfc"/></g><g transform="translate(32.958 13.114)"><path d="M272.142,62.169h8.412V89.214h-8.412Z" transform="translate(-272.142 -62.169)" fill="#fbfbfb"/></g><g transform="translate(25.808 16.154)"><path d="M166.1,103.707h7.67v2.218H166.1Z" transform="translate(-166.097 -103.707)" fill="#fff"/></g><g transform="translate(25.808 24.98)"><path d="M166.1,224.3h7.67v2.218H166.1Z" transform="translate(-166.097 -224.299)" fill="#fff"/></g><g transform="translate(28.709 28.406)"><path d="M213.373,281.684l-4.249-8.142c2.347-2.547,4.528-3.47,6.874-.923Z" transform="translate(-209.124 -271.108)" fill="#fff"/></g><g transform="translate(32.958 28.929)"><path d="M276.39,280.165a5.759,5.759,0,0,0-4.249-1.91v10.053l2.419-4.635.281-1.192.706-.7Z" transform="translate(-272.141 -278.255)" fill="#fff"/></g><g transform="translate(30.075 30.49)"><path d="M1.083,0A1.011,1.011,0,0,1,2.1,1.083,1.163,1.163,0,0,1,1.021,2.229,1.011,1.011,0,0,1,0,1.146,1.163,1.163,0,0,1,1.083,0Z" transform="translate(0 0.806) rotate(-22.514)" fill="#b7b7b7"/></g><g transform="translate(34.591 32.126)"><path d="M297.394,321.936a1.085,1.085,0,0,0-1.038,1.127,1.114,1.114,0,0,0,.786,1.094l.987-1.891A1,1,0,0,0,297.394,321.936Z" transform="translate(-296.356 -321.936)" fill="#e2e2e2"/></g><g transform="translate(31.421 33.946)"><path d="M1.128,0A.982.982,0,0,1,2.167,1.039,1.2,1.2,0,0,1,1.039,2.167.982.982,0,0,1,0,1.128,1.2,1.2,0,0,1,1.128,0Z" transform="translate(0 1.532) rotate(-45)" fill="#afafaf"/></g><g transform="translate(32.958 16.154)"><path d="M272.142,103.707h7.15v2.218h-7.15Z" transform="translate(-272.142 -103.707)" fill="#f5f5f6"/><path d="M272.142,224.3h7.15v2.217h-7.15Z" transform="translate(-272.142 -215.473)" fill="#f5f5f6"/></g><g transform="translate(32.958 34.352)"><path d="M273.18,353.487a1.086,1.086,0,0,0-1.038-1.127v2.254A1.086,1.086,0,0,0,273.18,353.487Z" transform="translate(-272.142 -352.36)" fill="#afafaf"/></g><g transform="translate(27.708 28.164)"><path d="M203.773,271.565l-.5-.543a5.017,5.017,0,0,0-7.5,0l-.5.543-1-1.087.5-.543a6.357,6.357,0,0,1,9.5,0l.5.543Z" transform="translate(-194.273 -267.803)" fill="#efefef"/></g><g transform="translate(32.958 28.164)"><path d="M276.892,269.933a6.438,6.438,0,0,0-4.75-2.132v1.536a5.081,5.081,0,0,1,3.748,1.683l.5.543,1-1.087Z" transform="translate(-272.142 -267.801)" fill="#f2f2f2"/></g></g><g transform="translate(296.281 18)"><g transform="translate(0)"><path d="M114.513,0h-19.8A3.509,3.509,0,0,0,91,3.252v30.5A3.509,3.509,0,0,0,94.713,37h19.8a3.509,3.509,0,0,0,3.713-3.252V3.252A3.509,3.509,0,0,0,114.513,0Z" transform="translate(-91)" fill="#f9f9f9"/></g><g transform="translate(4.95 4.336)"><g transform="translate(0)"><path d="M167.088,75.248H165.85V74.164a5.664,5.664,0,0,0-4.95-5.31V67.66a1.248,1.248,0,0,0-2.475,0v1.194a5.664,5.664,0,0,0-4.95,5.31v1.084h-1.238a1.094,1.094,0,1,0,0,2.168h14.85a1.094,1.094,0,1,0,0-2.168Zm-9.9-13.08h4.95a1.094,1.094,0,1,0,0-2.168h-4.95a1.094,1.094,0,1,0,0,2.168Zm4.95,23.992h-4.95a1.094,1.094,0,1,0,0,2.168h4.95a1.094,1.094,0,1,0,0-2.168Z" transform="translate(-151 -60)" fill="url(#a)"/></g></g></g><g transform="translate(-1191 -288)"><g transform="translate(1437 406)"><g transform="translate(0 0)"><path d="M82.5,22.107H63V6.141C63,2.755,59.635,0,55.5,0H7.5C3.364,0,0,2.755,0,6.141V40.529c0,3.386,3.364,6.141,7.5,6.141H20.584L42.727,57.547a1.757,1.757,0,0,0,.772.176,1.706,1.706,0,0,0,.995-.308A1.081,1.081,0,0,0,44.871,56l-5.062-9.327H48V67.548c0,3.386,3.364,6.141,7.5,6.141h27c4.136,0,7.5-2.755,7.5-6.141v-39.3C90,24.861,86.635,22.107,82.5,22.107ZM60.534,45.048c.166-.124.324-.252.476-.388s.286-.275.421-.419a6.6,6.6,0,0,0,.437-.511,5.822,5.822,0,0,0,.432-.652c.068-.122.127-.243.186-.368a5.194,5.194,0,0,0,.292-.77c.022-.076.054-.149.073-.226a4.869,4.869,0,0,0,.135-.861A12.037,12.037,0,0,1,69,39.3c5.79,0,10.5,3.858,10.5,8.6s-4.71,8.6-10.5,8.6-10.5-3.858-10.5-8.6a7.1,7.1,0,0,1,.252-1.857c.076-.031.144-.07.219-.1a7.787,7.787,0,0,0,1.175-.628C60.277,45.225,60.409,45.14,60.534,45.048ZM49.5,44.213h-12a1.6,1.6,0,0,0-1.257.559,1.042,1.042,0,0,0-.114,1.168l4.071,7.5L21.771,44.388A1.758,1.758,0,0,0,21,44.213H7.5c-2.481,0-4.5-1.653-4.5-3.684V6.141C3,4.109,5.019,2.456,7.5,2.456h48c2.481,0,4.5,1.653,4.5,3.684V40.529a2.993,2.993,0,0,1-.081.658c-.02.085-.048.168-.074.252a3.3,3.3,0,0,1-.133.352c-.046.1-.1.205-.153.3-.044.075-.095.145-.144.217a4.408,4.408,0,0,1-2.425,1.673c-.006,0-.011.007-.016.009a5.346,5.346,0,0,1-1.473.219ZM87,67.548c0,2.031-2.019,3.684-4.5,3.684h-27c-2.481,0-4.5-1.653-4.5-3.684V66.32H87Zm0-3.684H51V46.669h4.5c.038,0,.072-.009.11-.009A8.812,8.812,0,0,0,55.5,47.9c0,6.1,6.057,11.053,13.5,11.053S82.5,53.993,82.5,47.9,76.443,36.844,69,36.844a15.982,15.982,0,0,0-6,1.168V31.932H87Zm0-34.388H63V24.563H82.5c2.481,0,4.5,1.653,4.5,3.684Z" fill="#f2f2f2"/><g transform="translate(14.702 6.963)"><path d="M90.195,48H85c-7.166,0-13,5.206-13,11.6a1.236,1.236,0,0,0,1.3,1.16h28.592a1.236,1.236,0,0,0,1.3-1.16C103.191,53.206,97.361,48,90.195,48ZM74.68,58.444C75.322,53.872,79.7,50.321,85,50.321h5.2c5.292,0,9.675,3.551,10.317,8.123Z" transform="translate(-72 -48)" fill="#f2f2f2"/></g><g transform="translate(14.702 33.363)"><path d="M101.892,216H73.3a1.236,1.236,0,0,0-1.3,1.16c0,3.2,2.915,5.8,6.5,5.8H96.693c3.583,0,6.5-2.6,6.5-5.8A1.236,1.236,0,0,0,101.892,216Zm-5.2,4.642H78.5a3.9,3.9,0,0,1-3.677-2.321h25.547A3.9,3.9,0,0,1,96.692,220.642Z" transform="translate(-72 -216)" fill="#f2f2f2"/></g><g transform="translate(14.702 27.126)"><path d="M99.671,177.5a2.137,2.137,0,0,1-3.369,0,4.879,4.879,0,0,0-7.039,0,2.129,2.129,0,0,1-3.358,0,4.869,4.869,0,0,0-7.031,0,2.127,2.127,0,0,1-3.357,0A4.837,4.837,0,0,0,72,176v2.321a2.2,2.2,0,0,1,1.679.82,4.872,4.872,0,0,0,7.034,0,2.126,2.126,0,0,1,3.356,0,4.873,4.873,0,0,0,7.035,0,2.133,2.133,0,0,1,3.363,0,4.882,4.882,0,0,0,7.04,0,2.212,2.212,0,0,1,1.684-.822V176A4.851,4.851,0,0,0,99.671,177.5Z" transform="translate(-72 -176)" fill="#f2f2f2"/></g><g transform="translate(14.702 23.379)"><rect width="31.191" height="2.321" fill="#f2f2f2"/></g><g transform="translate(24.111 13.535)"><rect width="2.599" height="2.321" fill="#f2f2f2"/></g><g transform="translate(30.138 13.535)"><rect width="2.599" height="2.321" fill="#f2f2f2"/></g><g transform="translate(36.166 13.535)"><rect width="2.599" height="2.321" fill="#f2f2f2"/></g><g transform="translate(64.822 43.645)"><path d="M347.441,282.344l-5.579,4.982-1.68-1.5-1.838,1.641,2.6,2.321a1.411,1.411,0,0,0,1.838,0l6.5-5.8Z" transform="translate(-338.344 -282.344)" fill="#f2f2f2"/></g></g></g><g transform="translate(1278.437 542.082)"><g transform="translate(0)"><path d="M141.152,0H98.919C94.552,0,91,3.111,91,6.936V71.982c0,3.825,3.552,6.936,7.919,6.936h42.233c4.367,0,7.919-3.111,7.919-6.936V6.936C149.07,3.111,145.518,0,141.152,0Z" transform="translate(-91)" fill="#f9f9f9"/></g><g transform="translate(10.558 9.248)"><g transform="translate(0)"><path d="M185.314,92.523h-2.64V90.211c0-5.582-4.541-10.252-10.558-11.326V76.339a2.663,2.663,0,0,0-5.279,0v2.546c-6.018,1.074-10.558,5.744-10.558,11.326v2.312h-2.64a2.332,2.332,0,1,0,0,4.624h31.675a2.332,2.332,0,1,0,0-4.624ZM164.2,64.624h10.558a2.332,2.332,0,1,0,0-4.624H164.2a2.332,2.332,0,1,0,0,4.624ZM174.756,115.8H164.2a2.332,2.332,0,1,0,0,4.624h10.558a2.332,2.332,0,1,0,0-4.624Z" transform="translate(-151 -60)" fill="url(#a)"/></g></g></g><path d="M58,25H30a5.006,5.006,0,0,0-5,5V53.636a2.951,2.951,0,0,0-.274.225L23.586,55H23v-.716a20.87,20.87,0,0,0-6.15-14.849l-.85-.85V36.96a4.374,4.374,0,0,0,4-4.374V30.721l3-1V29a16.719,16.719,0,0,0-1.973-7.565A5.948,5.948,0,0,0,22.65,15H25.5l2.1,2.8A3,3,0,0,0,33,16V15h1a3,3,0,0,0,3-3V4a3,3,0,0,0-3-3H20a3,3,0,0,0-3,3v7H12a9.012,9.012,0,0,0-8.995,8.689l-.3.444A10.179,10.179,0,0,0,4.555,33.506L8,36.459v2.63A6,6,0,0,0,3,45v6a2,2,0,0,0,2,2v3.939A5.967,5.967,0,0,0,6.785,61.2,6.092,6.092,0,0,0,11.116,63H30.007A5,5,0,0,0,35,58a2.96,2.96,0,0,0-.184-1H37v4H35v2H53V61H51V57h7a5.006,5.006,0,0,0,5-5V30a5.006,5.006,0,0,0-5-5ZM30,27H58a3,3,0,0,1,3,3V49H54a10.01,10.01,0,0,0-6.3-9.283,6,6,0,1,0-7.392,0A10.01,10.01,0,0,0,34,49H27V30A3,3,0,0,1,30,27Zm10,8a4,4,0,1,1,4,4A4,4,0,0,1,40,35Zm3,6.069a7.281,7.281,0,0,1,2,0V42a1,1,0,0,1-2,0ZM44,45a3,3,0,0,0,3-3v-.411A8.009,8.009,0,0,1,52,49H36a8.009,8.009,0,0,1,5-7.411V42A3,3,0,0,0,44,45ZM23,57v4H21V57Zm-2-2.716V55H13V53a2,2,0,0,0,2-2V45a5.964,5.964,0,0,0-1.142-3.508,4.646,4.646,0,0,0,1.267-.954l.311.311A18.886,18.886,0,0,1,21,54.283Zm-.021-26L18,29.279v3.307A2.414,2.414,0,0,1,15.586,35H12v2h2v1.708a2.6,2.6,0,0,1-1.789,1.231A5.966,5.966,0,0,0,10,39.089V31.828a2.985,2.985,0,0,0-.878-2.121l-.829-.829A1,1,0,0,1,8,28.171V28a1,1,0,0,1,1-1h1V23a2,2,0,0,1,1.123-1.79A5.963,5.963,0,0,0,15.386,23H17a5.971,5.971,0,0,0,2.341-.476,15.027,15.027,0,0,1,1.639,5.762ZM19,4a1,1,0,0,1,1-1H34a1,1,0,0,1,1,1v8a1,1,0,0,1-1,1H31v3a1,1,0,0,1-1.8.6L26.5,13H21.46A6.018,6.018,0,0,0,19,11.349ZM5.855,31.987A8.179,8.179,0,0,1,4.373,21.242L5,20.3V20a7.009,7.009,0,0,1,7-7h5a4,4,0,1,1,0,8H15.386a3.978,3.978,0,0,1-3.714-2.514l-.743-1.857-1.857.742.743,1.857c.046.115.108.218.161.328A4.01,4.01,0,0,0,8,23V25.17A3.006,3.006,0,0,0,6,28v.172a2.981,2.981,0,0,0,.878,2.121l.829.829A1,1,0,0,1,8,31.828v2ZM5,45a4,4,0,0,1,8,0v6L5,51ZM8.162,59.747A3.947,3.947,0,0,1,7,56.938V53h4v2.266a2.99,2.99,0,0,0-1.447,1.393l-.447.9,1.789.9.447-.9A.992.992,0,0,1,12.235,57H19v4H11.116a4.137,4.137,0,0,1-2.954-1.253ZM33,58a3,3,0,0,1-2.993,3H25V56.413l1.141-1.14a.967.967,0,0,1,1.5.244L28.382,57h2.68v0h.943A1,1,0,0,1,33,58Zm16,3H39V57H49Zm9-6H29.618l-.188-.376A2.915,2.915,0,0,0,27,53.013V51H61v1a3,3,0,0,1-3,3ZM48,23a3.009,3.009,0,0,0,2.4-1.2L52.5,19H58a3,3,0,0,0,3-3V8a3,3,0,0,0-3-3H44a3,3,0,0,0-3,3v8a3,3,0,0,0,3,3h1v1A3,3,0,0,0,48,23Zm-4-6a1,1,0,0,1-1-1V8a1,1,0,0,1,1-1H58a1,1,0,0,1,1,1v8a1,1,0,0,1-1,1H51.5l-2.7,3.6A1,1,0,0,1,47,20V17Zm13-6H45V9H57Zm0,4H45V13H57ZM33,7H21V5H33Zm0,4H21V9H33Z" transform="translate(1226 287.077)" fill="url(#b)"/><g transform="translate(1558.5 594.095)"><g transform="translate(26.624 13.114)"><path d="M147.391,62.169h32.876v52.852H147.391Z" transform="translate(-147.391 -62.169)" fill="#fcfcfc"/></g><g transform="translate(26.624 13.114)"><path d="M147.391,62.169h17.453v52.852H147.391Z" transform="translate(-147.391 -62.169)" fill="#f8f8f8"/></g><g transform="translate(22.37 13.114)"><path d="M115.108,62.169h5.023v52.852h-5.023Z" transform="translate(-115.108 -62.169)" fill="#fcfcfc"/></g><g transform="translate(43.062 13.114)"><path d="M272.142,62.169H288.58v52.852H272.142Z" transform="translate(-272.142 -62.169)" fill="#fbfbfb"/></g><g transform="translate(29.088 19.055)"><path d="M166.1,103.707h14.988v4.334H166.1Z" transform="translate(-166.097 -103.707)" fill="#fff"/></g><g transform="translate(29.088 36.303)"><path d="M166.1,224.3h14.988v4.334H166.1Z" transform="translate(-166.097 -224.299)" fill="#fff"/></g><g transform="translate(34.758 42.997)"><path d="M217.428,291.776l-8.3-15.912c4.586-4.978,8.848-6.782,13.434-1.8Z" transform="translate(-209.124 -271.109)" fill="#fff"/></g><g transform="translate(43.062 44.02)"><path d="M280.445,281.988a11.255,11.255,0,0,0-8.3-3.733V297.9l4.727-9.058.548-2.329,1.38-1.366Z" transform="translate(-272.141 -278.255)" fill="#fff"/></g><g transform="translate(37.428 47.071)"><path d="M2.117,0A1.976,1.976,0,0,1,4.111,2.117,2.273,2.273,0,0,1,1.994,4.356,1.976,1.976,0,0,1,0,2.24,2.273,2.273,0,0,1,2.117,0Z" transform="translate(0 1.575) rotate(-22.514)" fill="#b7b7b7"/></g><g transform="translate(46.252 50.267)"><path d="M298.385,321.936a2.121,2.121,0,0,0-2.029,2.2,2.177,2.177,0,0,0,1.536,2.137l1.928-3.695A1.947,1.947,0,0,0,298.385,321.936Z" transform="translate(-296.356 -321.936)" fill="#e2e2e2"/></g><g transform="translate(40.058 53.825)"><path d="M2.2,0A1.918,1.918,0,0,1,4.234,2.031a2.338,2.338,0,0,1-2.2,2.2A1.918,1.918,0,0,1,0,2.2,2.338,2.338,0,0,1,2.2,0Z" transform="translate(0 2.995) rotate(-45)" fill="#afafaf"/></g><g transform="translate(43.062 19.055)"><path d="M272.142,103.707h13.973v4.334H272.142Z" transform="translate(-272.142 -103.707)" fill="#f5f5f6"/><path d="M272.142,224.3h13.973v4.333H272.142Z" transform="translate(-272.142 -207.051)" fill="#f5f5f6"/></g><g transform="translate(43.062 54.619)"><path d="M274.171,354.563a2.121,2.121,0,0,0-2.029-2.2v4.405A2.121,2.121,0,0,0,274.171,354.563Z" transform="translate(-272.142 -352.36)" fill="#afafaf"/></g><g transform="translate(32.801 42.525)"><path d="M212.837,275.155l-.978-1.062a9.8,9.8,0,0,0-14.651,0l-.978,1.062-1.957-2.124.978-1.062a12.423,12.423,0,0,1,18.564,0l.978,1.062Z" transform="translate(-194.273 -267.803)" fill="#efefef"/></g><g transform="translate(43.062 42.524)"><path d="M281.424,271.968a12.581,12.581,0,0,0-9.282-4.167v3a9.929,9.929,0,0,1,7.325,3.288l.978,1.062,1.957-2.124Z" transform="translate(-272.142 -267.801)" fill="#f2f2f2"/></g></g><path d="M130.74,25.493a1.125,1.125,0,0,0,1.1-1.145V18.241a4.731,4.731,0,0,0-4.639-4.808h-2.43v-7.4A5.933,5.933,0,0,0,118.959,0H85.974a5.933,5.933,0,0,0-5.817,6.029V71.97A5.933,5.933,0,0,0,85.974,78h32.985a5.933,5.933,0,0,0,5.817-6.029V49.913h2.43a4.731,4.731,0,0,0,4.639-4.808V29.943a1.105,1.105,0,1,0-2.209,0V45.105a2.478,2.478,0,0,1-2.43,2.519H103.644a1.082,1.082,0,0,0-.719.276L96.5,53.606V18.241a2.478,2.478,0,0,1,2.43-2.519h28.273a2.478,2.478,0,0,1,2.43,2.519v6.108A1.125,1.125,0,0,0,130.74,25.493ZM122.567,71.97a3.68,3.68,0,0,1-3.608,3.74H85.974a3.68,3.68,0,0,1-3.608-3.74V68.23h40.2Zm0-58.538H98.932a4.731,4.731,0,0,0-4.639,4.808V56.1a1.11,1.11,0,0,0,1.823.869l7.936-7.051h18.514V65.941h-40.2V9.616h40.2Zm0-6.106h-40.2v-1.3a3.68,3.68,0,0,1,3.608-3.74h32.985a3.68,3.68,0,0,1,3.608,3.74Z" transform="translate(1110.843 698)" fill="#f2f2f2"/></g><g transform="translate(314.206 451)"><g transform="translate(0 0)"><path d="M61.228,16.407H46.756V4.557C46.756,2.044,44.259,0,41.19,0H5.566C2.5,0,0,2.044,0,4.557V30.079c0,2.513,2.5,4.557,5.566,4.557h9.711l16.434,8.073a1.3,1.3,0,0,0,.573.13,1.266,1.266,0,0,0,.738-.229.8.8,0,0,0,.279-1.053l-3.757-6.922h6.079v15.5c0,2.513,2.5,4.557,5.566,4.557H61.228c3.069,0,5.566-2.044,5.566-4.557V20.964C66.794,18.451,64.3,16.407,61.228,16.407Zm-16.3,17.026c.124-.092.24-.187.353-.288s.213-.2.313-.311a4.9,4.9,0,0,0,.324-.379,4.321,4.321,0,0,0,.321-.484c.05-.09.095-.18.138-.273a3.855,3.855,0,0,0,.217-.571c.017-.057.04-.11.055-.168a3.613,3.613,0,0,0,.1-.639,8.933,8.933,0,0,1,4.463-1.152c4.3,0,7.793,2.863,7.793,6.38s-3.5,6.38-7.793,6.38-7.793-2.863-7.793-6.38a5.273,5.273,0,0,1,.187-1.378c.057-.023.107-.052.163-.076a5.78,5.78,0,0,0,.872-.466C44.735,33.564,44.833,33.5,44.926,33.433Zm-8.189-.62H27.831a1.191,1.191,0,0,0-.933.415.774.774,0,0,0-.085.867l3.021,5.567L16.158,32.943a1.3,1.3,0,0,0-.572-.129H5.566c-1.841,0-3.34-1.227-3.34-2.734V4.557c0-1.508,1.5-2.734,3.34-2.734H41.19c1.841,0,3.34,1.227,3.34,2.734V30.079a2.221,2.221,0,0,1-.06.489c-.014.063-.036.125-.055.187a2.448,2.448,0,0,1-.1.262c-.035.077-.071.152-.114.226-.032.056-.07.108-.107.161a3.271,3.271,0,0,1-1.8,1.241s-.008.005-.012.006a3.968,3.968,0,0,1-1.093.162ZM64.568,50.131c0,1.508-1.5,2.734-3.34,2.734H41.19c-1.841,0-3.34-1.227-3.34-2.734V49.22H64.568Zm0-2.734H37.85V34.636h3.34c.028,0,.053-.006.081-.006a6.54,6.54,0,0,0-.081.918c0,4.524,4.5,8.2,10.019,8.2s10.019-3.68,10.019-8.2-4.5-8.2-10.019-8.2a11.862,11.862,0,0,0-4.453.867V23.7H64.568Zm0-25.521H46.756V18.23H61.228c1.841,0,3.34,1.227,3.34,2.734Z" fill="#f2f2f2"/><g transform="translate(10.911 5.167)"><path d="M85.5,48H81.645C76.327,48,72,51.864,72,56.612a.917.917,0,0,0,.965.861h21.22a.917.917,0,0,0,.965-.861C95.149,51.864,90.822,48,85.5,48ZM73.989,55.751c.476-3.393,3.729-6.029,7.656-6.029H85.5c3.928,0,7.18,2.635,7.656,6.029Z" transform="translate(-72 -48)" fill="#f2f2f2"/></g><g transform="translate(10.911 24.761)"><path d="M94.184,216H72.965a.917.917,0,0,0-.965.861,4.592,4.592,0,0,0,4.823,4.306h13.5a4.592,4.592,0,0,0,4.823-4.306A.917.917,0,0,0,94.184,216Zm-3.859,3.445h-13.5a2.9,2.9,0,0,1-2.729-1.722h18.96A2.9,2.9,0,0,1,90.325,219.445Z" transform="translate(-72 -216)" fill="#f2f2f2"/></g><g transform="translate(10.911 20.131)"><path d="M92.536,177.113a1.586,1.586,0,0,1-2.5,0,3.621,3.621,0,0,0-5.224,0,1.58,1.58,0,0,1-2.492,0,3.613,3.613,0,0,0-5.218,0,1.579,1.579,0,0,1-2.491,0A3.59,3.59,0,0,0,72,176v1.722a1.636,1.636,0,0,1,1.246.609,3.615,3.615,0,0,0,5.22,0,1.578,1.578,0,0,1,2.49,0,3.617,3.617,0,0,0,5.221,0,1.583,1.583,0,0,1,2.5,0,3.623,3.623,0,0,0,5.225,0,1.641,1.641,0,0,1,1.25-.61V176A3.6,3.6,0,0,0,92.536,177.113Z" transform="translate(-72 -176)" fill="#f2f2f2"/></g><g transform="translate(10.911 17.351)"><rect width="23.149" height="1.722" fill="#f2f2f2"/></g><g transform="translate(17.894 10.045)"><rect width="1.929" height="1.722" fill="#f2f2f2"/></g><g transform="translate(22.367 10.045)"><rect width="1.929" height="1.722" fill="#f2f2f2"/></g><g transform="translate(26.841 10.045)"><rect width="1.929" height="1.722" fill="#f2f2f2"/></g><g transform="translate(48.108 32.392)"><path d="M345.1,282.344l-4.141,3.7-1.247-1.114-1.364,1.218,1.929,1.722a1.048,1.048,0,0,0,1.364,0l4.823-4.306Z" transform="translate(-338.344 -282.344)" fill="#f2f2f2"/></g></g></g><g transform="translate(-1191 -288)"><g transform="translate(1437 406)"><g transform="translate(0 0)"><path d="M82.5,22.107H63V6.141C63,2.755,59.635,0,55.5,0H7.5C3.364,0,0,2.755,0,6.141V40.529c0,3.386,3.364,6.141,7.5,6.141H20.584L42.727,57.547a1.757,1.757,0,0,0,.772.176,1.706,1.706,0,0,0,.995-.308A1.081,1.081,0,0,0,44.871,56l-5.062-9.327H48V67.548c0,3.386,3.364,6.141,7.5,6.141h27c4.136,0,7.5-2.755,7.5-6.141v-39.3C90,24.861,86.635,22.107,82.5,22.107ZM60.534,45.048c.166-.124.324-.252.476-.388s.286-.275.421-.419a6.6,6.6,0,0,0,.437-.511,5.822,5.822,0,0,0,.432-.652c.068-.122.127-.243.186-.368a5.194,5.194,0,0,0,.292-.77c.022-.076.054-.149.073-.226a4.869,4.869,0,0,0,.135-.861A12.037,12.037,0,0,1,69,39.3c5.79,0,10.5,3.858,10.5,8.6s-4.71,8.6-10.5,8.6-10.5-3.858-10.5-8.6a7.1,7.1,0,0,1,.252-1.857c.076-.031.144-.07.219-.1a7.787,7.787,0,0,0,1.175-.628C60.277,45.225,60.409,45.14,60.534,45.048ZM49.5,44.213h-12a1.6,1.6,0,0,0-1.257.559,1.042,1.042,0,0,0-.114,1.168l4.071,7.5L21.771,44.388A1.758,1.758,0,0,0,21,44.213H7.5c-2.481,0-4.5-1.653-4.5-3.684V6.141C3,4.109,5.019,2.456,7.5,2.456h48c2.481,0,4.5,1.653,4.5,3.684V40.529a2.993,2.993,0,0,1-.081.658c-.02.085-.048.168-.074.252a3.3,3.3,0,0,1-.133.352c-.046.1-.1.205-.153.3-.044.075-.095.145-.144.217a4.408,4.408,0,0,1-2.425,1.673c-.006,0-.011.007-.016.009a5.346,5.346,0,0,1-1.473.219ZM87,67.548c0,2.031-2.019,3.684-4.5,3.684h-27c-2.481,0-4.5-1.653-4.5-3.684V66.32H87Zm0-3.684H51V46.669h4.5c.038,0,.072-.009.11-.009A8.812,8.812,0,0,0,55.5,47.9c0,6.1,6.057,11.053,13.5,11.053S82.5,53.993,82.5,47.9,76.443,36.844,69,36.844a15.982,15.982,0,0,0-6,1.168V31.932H87Zm0-34.388H63V24.563H82.5c2.481,0,4.5,1.653,4.5,3.684Z" fill="#f2f2f2"/><g transform="translate(14.702 6.963)"><path d="M90.195,48H85c-7.166,0-13,5.206-13,11.6a1.236,1.236,0,0,0,1.3,1.16h28.592a1.236,1.236,0,0,0,1.3-1.16C103.191,53.206,97.361,48,90.195,48ZM74.68,58.444C75.322,53.872,79.7,50.321,85,50.321h5.2c5.292,0,9.675,3.551,10.317,8.123Z" transform="translate(-72 -48)" fill="#f2f2f2"/></g><g transform="translate(14.702 33.363)"><path d="M101.892,216H73.3a1.236,1.236,0,0,0-1.3,1.16c0,3.2,2.915,5.8,6.5,5.8H96.693c3.583,0,6.5-2.6,6.5-5.8A1.236,1.236,0,0,0,101.892,216Zm-5.2,4.642H78.5a3.9,3.9,0,0,1-3.677-2.321h25.547A3.9,3.9,0,0,1,96.692,220.642Z" transform="translate(-72 -216)" fill="#f2f2f2"/></g><g transform="translate(14.702 27.126)"><path d="M99.671,177.5a2.137,2.137,0,0,1-3.369,0,4.879,4.879,0,0,0-7.039,0,2.129,2.129,0,0,1-3.358,0,4.869,4.869,0,0,0-7.031,0,2.127,2.127,0,0,1-3.357,0A4.837,4.837,0,0,0,72,176v2.321a2.2,2.2,0,0,1,1.679.82,4.872,4.872,0,0,0,7.034,0,2.126,2.126,0,0,1,3.356,0,4.873,4.873,0,0,0,7.035,0,2.133,2.133,0,0,1,3.363,0,4.882,4.882,0,0,0,7.04,0,2.212,2.212,0,0,1,1.684-.822V176A4.851,4.851,0,0,0,99.671,177.5Z" transform="translate(-72 -176)" fill="#f2f2f2"/></g><g transform="translate(14.702 23.379)"><rect width="31.191" height="2.321" fill="#f2f2f2"/></g><g transform="translate(24.111 13.535)"><rect width="2.599" height="2.321" fill="#f2f2f2"/></g><g transform="translate(30.138 13.535)"><rect width="2.599" height="2.321" fill="#f2f2f2"/></g><g transform="translate(36.166 13.535)"><rect width="2.599" height="2.321" fill="#f2f2f2"/></g><g transform="translate(64.822 43.645)"><path d="M347.441,282.344l-5.579,4.982-1.68-1.5-1.838,1.641,2.6,2.321a1.411,1.411,0,0,0,1.838,0l6.5-5.8Z" transform="translate(-338.344 -282.344)" fill="#f2f2f2"/></g></g></g><g transform="translate(1278.437 542.082)"><g transform="translate(0)"><path d="M141.152,0H98.919C94.552,0,91,3.111,91,6.936V71.982c0,3.825,3.552,6.936,7.919,6.936h42.233c4.367,0,7.919-3.111,7.919-6.936V6.936C149.07,3.111,145.518,0,141.152,0Z" transform="translate(-91)" fill="#f9f9f9"/></g><g transform="translate(10.558 9.248)"><g transform="translate(0)"><path d="M185.314,92.523h-2.64V90.211c0-5.582-4.541-10.252-10.558-11.326V76.339a2.663,2.663,0,0,0-5.279,0v2.546c-6.018,1.074-10.558,5.744-10.558,11.326v2.312h-2.64a2.332,2.332,0,1,0,0,4.624h31.675a2.332,2.332,0,1,0,0-4.624ZM164.2,64.624h10.558a2.332,2.332,0,1,0,0-4.624H164.2a2.332,2.332,0,1,0,0,4.624ZM174.756,115.8H164.2a2.332,2.332,0,1,0,0,4.624h10.558a2.332,2.332,0,1,0,0-4.624Z" transform="translate(-151 -60)" fill="url(#a)"/></g></g></g><path d="M58,25H30a5.006,5.006,0,0,0-5,5V53.636a2.951,2.951,0,0,0-.274.225L23.586,55H23v-.716a20.87,20.87,0,0,0-6.15-14.849l-.85-.85V36.96a4.374,4.374,0,0,0,4-4.374V30.721l3-1V29a16.719,16.719,0,0,0-1.973-7.565A5.948,5.948,0,0,0,22.65,15H25.5l2.1,2.8A3,3,0,0,0,33,16V15h1a3,3,0,0,0,3-3V4a3,3,0,0,0-3-3H20a3,3,0,0,0-3,3v7H12a9.012,9.012,0,0,0-8.995,8.689l-.3.444A10.179,10.179,0,0,0,4.555,33.506L8,36.459v2.63A6,6,0,0,0,3,45v6a2,2,0,0,0,2,2v3.939A5.967,5.967,0,0,0,6.785,61.2,6.092,6.092,0,0,0,11.116,63H30.007A5,5,0,0,0,35,58a2.96,2.96,0,0,0-.184-1H37v4H35v2H53V61H51V57h7a5.006,5.006,0,0,0,5-5V30a5.006,5.006,0,0,0-5-5ZM30,27H58a3,3,0,0,1,3,3V49H54a10.01,10.01,0,0,0-6.3-9.283,6,6,0,1,0-7.392,0A10.01,10.01,0,0,0,34,49H27V30A3,3,0,0,1,30,27Zm10,8a4,4,0,1,1,4,4A4,4,0,0,1,40,35Zm3,6.069a7.281,7.281,0,0,1,2,0V42a1,1,0,0,1-2,0ZM44,45a3,3,0,0,0,3-3v-.411A8.009,8.009,0,0,1,52,49H36a8.009,8.009,0,0,1,5-7.411V42A3,3,0,0,0,44,45ZM23,57v4H21V57Zm-2-2.716V55H13V53a2,2,0,0,0,2-2V45a5.964,5.964,0,0,0-1.142-3.508,4.646,4.646,0,0,0,1.267-.954l.311.311A18.886,18.886,0,0,1,21,54.283Zm-.021-26L18,29.279v3.307A2.414,2.414,0,0,1,15.586,35H12v2h2v1.708a2.6,2.6,0,0,1-1.789,1.231A5.966,5.966,0,0,0,10,39.089V31.828a2.985,2.985,0,0,0-.878-2.121l-.829-.829A1,1,0,0,1,8,28.171V28a1,1,0,0,1,1-1h1V23a2,2,0,0,1,1.123-1.79A5.963,5.963,0,0,0,15.386,23H17a5.971,5.971,0,0,0,2.341-.476,15.027,15.027,0,0,1,1.639,5.762ZM19,4a1,1,0,0,1,1-1H34a1,1,0,0,1,1,1v8a1,1,0,0,1-1,1H31v3a1,1,0,0,1-1.8.6L26.5,13H21.46A6.018,6.018,0,0,0,19,11.349ZM5.855,31.987A8.179,8.179,0,0,1,4.373,21.242L5,20.3V20a7.009,7.009,0,0,1,7-7h5a4,4,0,1,1,0,8H15.386a3.978,3.978,0,0,1-3.714-2.514l-.743-1.857-1.857.742.743,1.857c.046.115.108.218.161.328A4.01,4.01,0,0,0,8,23V25.17A3.006,3.006,0,0,0,6,28v.172a2.981,2.981,0,0,0,.878,2.121l.829.829A1,1,0,0,1,8,31.828v2ZM5,45a4,4,0,0,1,8,0v6L5,51ZM8.162,59.747A3.947,3.947,0,0,1,7,56.938V53h4v2.266a2.99,2.99,0,0,0-1.447,1.393l-.447.9,1.789.9.447-.9A.992.992,0,0,1,12.235,57H19v4H11.116a4.137,4.137,0,0,1-2.954-1.253ZM33,58a3,3,0,0,1-2.993,3H25V56.413l1.141-1.14a.967.967,0,0,1,1.5.244L28.382,57h2.68v0h.943A1,1,0,0,1,33,58Zm16,3H39V57H49Zm9-6H29.618l-.188-.376A2.915,2.915,0,0,0,27,53.013V51H61v1a3,3,0,0,1-3,3ZM48,23a3.009,3.009,0,0,0,2.4-1.2L52.5,19H58a3,3,0,0,0,3-3V8a3,3,0,0,0-3-3H44a3,3,0,0,0-3,3v8a3,3,0,0,0,3,3h1v1A3,3,0,0,0,48,23Zm-4-6a1,1,0,0,1-1-1V8a1,1,0,0,1,1-1H58a1,1,0,0,1,1,1v8a1,1,0,0,1-1,1H51.5l-2.7,3.6A1,1,0,0,1,47,20V17Zm13-6H45V9H57Zm0,4H45V13H57ZM33,7H21V5H33Zm0,4H21V9H33Z" transform="translate(1226 287.077)" fill="url(#b)"/><g transform="translate(1558.5 594.095)"><g transform="translate(26.624 13.114)"><path d="M147.391,62.169h32.876v52.852H147.391Z" transform="translate(-147.391 -62.169)" fill="#fcfcfc"/></g><g transform="translate(26.624 13.114)"><path d="M147.391,62.169h17.453v52.852H147.391Z" transform="translate(-147.391 -62.169)" fill="#f8f8f8"/></g><g transform="translate(22.37 13.114)"><path d="M115.108,62.169h5.023v52.852h-5.023Z" transform="translate(-115.108 -62.169)" fill="#fcfcfc"/></g><g transform="translate(43.062 13.114)"><path d="M272.142,62.169H288.58v52.852H272.142Z" transform="translate(-272.142 -62.169)" fill="#fbfbfb"/></g><g transform="translate(29.088 19.055)"><path d="M166.1,103.707h14.988v4.334H166.1Z" transform="translate(-166.097 -103.707)" fill="#fff"/></g><g transform="translate(29.088 36.303)"><path d="M166.1,224.3h14.988v4.334H166.1Z" transform="translate(-166.097 -224.299)" fill="#fff"/></g><g transform="translate(34.758 42.997)"><path d="M217.428,291.776l-8.3-15.912c4.586-4.978,8.848-6.782,13.434-1.8Z" transform="translate(-209.124 -271.109)" fill="#fff"/></g><g transform="translate(43.062 44.02)"><path d="M280.445,281.988a11.255,11.255,0,0,0-8.3-3.733V297.9l4.727-9.058.548-2.329,1.38-1.366Z" transform="translate(-272.141 -278.255)" fill="#fff"/></g><g transform="translate(37.428 47.071)"><path d="M2.117,0A1.976,1.976,0,0,1,4.111,2.117,2.273,2.273,0,0,1,1.994,4.356,1.976,1.976,0,0,1,0,2.24,2.273,2.273,0,0,1,2.117,0Z" transform="translate(0 1.575) rotate(-22.514)" fill="#b7b7b7"/></g><g transform="translate(46.252 50.267)"><path d="M298.385,321.936a2.121,2.121,0,0,0-2.029,2.2,2.177,2.177,0,0,0,1.536,2.137l1.928-3.695A1.947,1.947,0,0,0,298.385,321.936Z" transform="translate(-296.356 -321.936)" fill="#e2e2e2"/></g><g transform="translate(40.058 53.825)"><path d="M2.2,0A1.918,1.918,0,0,1,4.234,2.031a2.338,2.338,0,0,1-2.2,2.2A1.918,1.918,0,0,1,0,2.2,2.338,2.338,0,0,1,2.2,0Z" transform="translate(0 2.995) rotate(-45)" fill="#afafaf"/></g><g transform="translate(43.062 19.055)"><path d="M272.142,103.707h13.973v4.334H272.142Z" transform="translate(-272.142 -103.707)" fill="#f5f5f6"/><path d="M272.142,224.3h13.973v4.333H272.142Z" transform="translate(-272.142 -207.051)" fill="#f5f5f6"/></g><g transform="translate(43.062 54.619)"><path d="M274.171,354.563a2.121,2.121,0,0,0-2.029-2.2v4.405A2.121,2.121,0,0,0,274.171,354.563Z" transform="translate(-272.142 -352.36)" fill="#afafaf"/></g><g transform="translate(32.801 42.525)"><path d="M212.837,275.155l-.978-1.062a9.8,9.8,0,0,0-14.651,0l-.978,1.062-1.957-2.124.978-1.062a12.423,12.423,0,0,1,18.564,0l.978,1.062Z" transform="translate(-194.273 -267.803)" fill="#efefef"/></g><g transform="translate(43.062 42.524)"><path d="M281.424,271.968a12.581,12.581,0,0,0-9.282-4.167v3a9.929,9.929,0,0,1,7.325,3.288l.978,1.062,1.957-2.124Z" transform="translate(-272.142 -267.801)" fill="#f2f2f2"/></g></g><path d="M130.74,25.493a1.125,1.125,0,0,0,1.1-1.145V18.241a4.731,4.731,0,0,0-4.639-4.808h-2.43v-7.4A5.933,5.933,0,0,0,118.959,0H85.974a5.933,5.933,0,0,0-5.817,6.029V71.97A5.933,5.933,0,0,0,85.974,78h32.985a5.933,5.933,0,0,0,5.817-6.029V49.913h2.43a4.731,4.731,0,0,0,4.639-4.808V29.943a1.105,1.105,0,1,0-2.209,0V45.105a2.478,2.478,0,0,1-2.43,2.519H103.644a1.082,1.082,0,0,0-.719.276L96.5,53.606V18.241a2.478,2.478,0,0,1,2.43-2.519h28.273a2.478,2.478,0,0,1,2.43,2.519v6.108A1.125,1.125,0,0,0,130.74,25.493ZM122.567,71.97a3.68,3.68,0,0,1-3.608,3.74H85.974a3.68,3.68,0,0,1-3.608-3.74V68.23h40.2Zm0-58.538H98.932a4.731,4.731,0,0,0-4.639,4.808V56.1a1.11,1.11,0,0,0,1.823.869l7.936-7.051h18.514V65.941h-40.2V9.616h40.2Zm0-6.106h-40.2v-1.3a3.68,3.68,0,0,1,3.608-3.74h32.985a3.68,3.68,0,0,1,3.608,3.74Z" transform="translate(1110.843 698)" fill="#f2f2f2"/></g><g transform="translate(-1191 -288)"><g transform="translate(1437 406)"><g transform="translate(0 0)"><path d="M82.5,22.107H63V6.141C63,2.755,59.635,0,55.5,0H7.5C3.364,0,0,2.755,0,6.141V40.529c0,3.386,3.364,6.141,7.5,6.141H20.584L42.727,57.547a1.757,1.757,0,0,0,.772.176,1.706,1.706,0,0,0,.995-.308A1.081,1.081,0,0,0,44.871,56l-5.062-9.327H48V67.548c0,3.386,3.364,6.141,7.5,6.141h27c4.136,0,7.5-2.755,7.5-6.141v-39.3C90,24.861,86.635,22.107,82.5,22.107ZM60.534,45.048c.166-.124.324-.252.476-.388s.286-.275.421-.419a6.6,6.6,0,0,0,.437-.511,5.822,5.822,0,0,0,.432-.652c.068-.122.127-.243.186-.368a5.194,5.194,0,0,0,.292-.77c.022-.076.054-.149.073-.226a4.869,4.869,0,0,0,.135-.861A12.037,12.037,0,0,1,69,39.3c5.79,0,10.5,3.858,10.5,8.6s-4.71,8.6-10.5,8.6-10.5-3.858-10.5-8.6a7.1,7.1,0,0,1,.252-1.857c.076-.031.144-.07.219-.1a7.787,7.787,0,0,0,1.175-.628C60.277,45.225,60.409,45.14,60.534,45.048ZM49.5,44.213h-12a1.6,1.6,0,0,0-1.257.559,1.042,1.042,0,0,0-.114,1.168l4.071,7.5L21.771,44.388A1.758,1.758,0,0,0,21,44.213H7.5c-2.481,0-4.5-1.653-4.5-3.684V6.141C3,4.109,5.019,2.456,7.5,2.456h48c2.481,0,4.5,1.653,4.5,3.684V40.529a2.993,2.993,0,0,1-.081.658c-.02.085-.048.168-.074.252a3.3,3.3,0,0,1-.133.352c-.046.1-.1.205-.153.3-.044.075-.095.145-.144.217a4.408,4.408,0,0,1-2.425,1.673c-.006,0-.011.007-.016.009a5.346,5.346,0,0,1-1.473.219ZM87,67.548c0,2.031-2.019,3.684-4.5,3.684h-27c-2.481,0-4.5-1.653-4.5-3.684V66.32H87Zm0-3.684H51V46.669h4.5c.038,0,.072-.009.11-.009A8.812,8.812,0,0,0,55.5,47.9c0,6.1,6.057,11.053,13.5,11.053S82.5,53.993,82.5,47.9,76.443,36.844,69,36.844a15.982,15.982,0,0,0-6,1.168V31.932H87Zm0-34.388H63V24.563H82.5c2.481,0,4.5,1.653,4.5,3.684Z" fill="#f2f2f2"/><g transform="translate(14.702 6.963)"><path d="M90.195,48H85c-7.166,0-13,5.206-13,11.6a1.236,1.236,0,0,0,1.3,1.16h28.592a1.236,1.236,0,0,0,1.3-1.16C103.191,53.206,97.361,48,90.195,48ZM74.68,58.444C75.322,53.872,79.7,50.321,85,50.321h5.2c5.292,0,9.675,3.551,10.317,8.123Z" transform="translate(-72 -48)" fill="#f2f2f2"/></g><g transform="translate(14.702 33.363)"><path d="M101.892,216H73.3a1.236,1.236,0,0,0-1.3,1.16c0,3.2,2.915,5.8,6.5,5.8H96.693c3.583,0,6.5-2.6,6.5-5.8A1.236,1.236,0,0,0,101.892,216Zm-5.2,4.642H78.5a3.9,3.9,0,0,1-3.677-2.321h25.547A3.9,3.9,0,0,1,96.692,220.642Z" transform="translate(-72 -216)" fill="#f2f2f2"/></g><g transform="translate(14.702 27.126)"><path d="M99.671,177.5a2.137,2.137,0,0,1-3.369,0,4.879,4.879,0,0,0-7.039,0,2.129,2.129,0,0,1-3.358,0,4.869,4.869,0,0,0-7.031,0,2.127,2.127,0,0,1-3.357,0A4.837,4.837,0,0,0,72,176v2.321a2.2,2.2,0,0,1,1.679.82,4.872,4.872,0,0,0,7.034,0,2.126,2.126,0,0,1,3.356,0,4.873,4.873,0,0,0,7.035,0,2.133,2.133,0,0,1,3.363,0,4.882,4.882,0,0,0,7.04,0,2.212,2.212,0,0,1,1.684-.822V176A4.851,4.851,0,0,0,99.671,177.5Z" transform="translate(-72 -176)" fill="#f2f2f2"/></g><g transform="translate(14.702 23.379)"><rect width="31.191" height="2.321" fill="#f2f2f2"/></g><g transform="translate(24.111 13.535)"><rect width="2.599" height="2.321" fill="#f2f2f2"/></g><g transform="translate(30.138 13.535)"><rect width="2.599" height="2.321" fill="#f2f2f2"/></g><g transform="translate(36.166 13.535)"><rect width="2.599" height="2.321" fill="#f2f2f2"/></g><g transform="translate(64.822 43.645)"><path d="M347.441,282.344l-5.579,4.982-1.68-1.5-1.838,1.641,2.6,2.321a1.411,1.411,0,0,0,1.838,0l6.5-5.8Z" transform="translate(-338.344 -282.344)" fill="#f2f2f2"/></g></g></g><g transform="translate(1278.437 542.082)"><g transform="translate(0)"><path d="M141.152,0H98.919C94.552,0,91,3.111,91,6.936V71.982c0,3.825,3.552,6.936,7.919,6.936h42.233c4.367,0,7.919-3.111,7.919-6.936V6.936C149.07,3.111,145.518,0,141.152,0Z" transform="translate(-91)" fill="#f9f9f9"/></g><g transform="translate(10.558 9.248)"><g transform="translate(0)"><path d="M185.314,92.523h-2.64V90.211c0-5.582-4.541-10.252-10.558-11.326V76.339a2.663,2.663,0,0,0-5.279,0v2.546c-6.018,1.074-10.558,5.744-10.558,11.326v2.312h-2.64a2.332,2.332,0,1,0,0,4.624h31.675a2.332,2.332,0,1,0,0-4.624ZM164.2,64.624h10.558a2.332,2.332,0,1,0,0-4.624H164.2a2.332,2.332,0,1,0,0,4.624ZM174.756,115.8H164.2a2.332,2.332,0,1,0,0,4.624h10.558a2.332,2.332,0,1,0,0-4.624Z" transform="translate(-151 -60)" fill="url(#a)"/></g></g></g><path d="M58,25H30a5.006,5.006,0,0,0-5,5V53.636a2.951,2.951,0,0,0-.274.225L23.586,55H23v-.716a20.87,20.87,0,0,0-6.15-14.849l-.85-.85V36.96a4.374,4.374,0,0,0,4-4.374V30.721l3-1V29a16.719,16.719,0,0,0-1.973-7.565A5.948,5.948,0,0,0,22.65,15H25.5l2.1,2.8A3,3,0,0,0,33,16V15h1a3,3,0,0,0,3-3V4a3,3,0,0,0-3-3H20a3,3,0,0,0-3,3v7H12a9.012,9.012,0,0,0-8.995,8.689l-.3.444A10.179,10.179,0,0,0,4.555,33.506L8,36.459v2.63A6,6,0,0,0,3,45v6a2,2,0,0,0,2,2v3.939A5.967,5.967,0,0,0,6.785,61.2,6.092,6.092,0,0,0,11.116,63H30.007A5,5,0,0,0,35,58a2.96,2.96,0,0,0-.184-1H37v4H35v2H53V61H51V57h7a5.006,5.006,0,0,0,5-5V30a5.006,5.006,0,0,0-5-5ZM30,27H58a3,3,0,0,1,3,3V49H54a10.01,10.01,0,0,0-6.3-9.283,6,6,0,1,0-7.392,0A10.01,10.01,0,0,0,34,49H27V30A3,3,0,0,1,30,27Zm10,8a4,4,0,1,1,4,4A4,4,0,0,1,40,35Zm3,6.069a7.281,7.281,0,0,1,2,0V42a1,1,0,0,1-2,0ZM44,45a3,3,0,0,0,3-3v-.411A8.009,8.009,0,0,1,52,49H36a8.009,8.009,0,0,1,5-7.411V42A3,3,0,0,0,44,45ZM23,57v4H21V57Zm-2-2.716V55H13V53a2,2,0,0,0,2-2V45a5.964,5.964,0,0,0-1.142-3.508,4.646,4.646,0,0,0,1.267-.954l.311.311A18.886,18.886,0,0,1,21,54.283Zm-.021-26L18,29.279v3.307A2.414,2.414,0,0,1,15.586,35H12v2h2v1.708a2.6,2.6,0,0,1-1.789,1.231A5.966,5.966,0,0,0,10,39.089V31.828a2.985,2.985,0,0,0-.878-2.121l-.829-.829A1,1,0,0,1,8,28.171V28a1,1,0,0,1,1-1h1V23a2,2,0,0,1,1.123-1.79A5.963,5.963,0,0,0,15.386,23H17a5.971,5.971,0,0,0,2.341-.476,15.027,15.027,0,0,1,1.639,5.762ZM19,4a1,1,0,0,1,1-1H34a1,1,0,0,1,1,1v8a1,1,0,0,1-1,1H31v3a1,1,0,0,1-1.8.6L26.5,13H21.46A6.018,6.018,0,0,0,19,11.349ZM5.855,31.987A8.179,8.179,0,0,1,4.373,21.242L5,20.3V20a7.009,7.009,0,0,1,7-7h5a4,4,0,1,1,0,8H15.386a3.978,3.978,0,0,1-3.714-2.514l-.743-1.857-1.857.742.743,1.857c.046.115.108.218.161.328A4.01,4.01,0,0,0,8,23V25.17A3.006,3.006,0,0,0,6,28v.172a2.981,2.981,0,0,0,.878,2.121l.829.829A1,1,0,0,1,8,31.828v2ZM5,45a4,4,0,0,1,8,0v6L5,51ZM8.162,59.747A3.947,3.947,0,0,1,7,56.938V53h4v2.266a2.99,2.99,0,0,0-1.447,1.393l-.447.9,1.789.9.447-.9A.992.992,0,0,1,12.235,57H19v4H11.116a4.137,4.137,0,0,1-2.954-1.253ZM33,58a3,3,0,0,1-2.993,3H25V56.413l1.141-1.14a.967.967,0,0,1,1.5.244L28.382,57h2.68v0h.943A1,1,0,0,1,33,58Zm16,3H39V57H49Zm9-6H29.618l-.188-.376A2.915,2.915,0,0,0,27,53.013V51H61v1a3,3,0,0,1-3,3ZM48,23a3.009,3.009,0,0,0,2.4-1.2L52.5,19H58a3,3,0,0,0,3-3V8a3,3,0,0,0-3-3H44a3,3,0,0,0-3,3v8a3,3,0,0,0,3,3h1v1A3,3,0,0,0,48,23Zm-4-6a1,1,0,0,1-1-1V8a1,1,0,0,1,1-1H58a1,1,0,0,1,1,1v8a1,1,0,0,1-1,1H51.5l-2.7,3.6A1,1,0,0,1,47,20V17Zm13-6H45V9H57Zm0,4H45V13H57ZM33,7H21V5H33Zm0,4H21V9H33Z" transform="translate(1226 287.077)" fill="url(#b)"/><g transform="translate(1269.5 380.095)"><g transform="translate(26.624 13.114)"><path d="M147.391,62.169h32.876v52.852H147.391Z" transform="translate(-147.391 -62.169)" fill="#fcfcfc"/></g><g transform="translate(26.624 13.114)"><path d="M147.391,62.169h17.453v52.852H147.391Z" transform="translate(-147.391 -62.169)" fill="#f8f8f8"/></g><g transform="translate(22.37 13.114)"><path d="M115.108,62.169h5.023v52.852h-5.023Z" transform="translate(-115.108 -62.169)" fill="#fcfcfc"/></g><g transform="translate(43.062 13.114)"><path d="M272.142,62.169H288.58v52.852H272.142Z" transform="translate(-272.142 -62.169)" fill="#fbfbfb"/></g><g transform="translate(29.088 19.055)"><path d="M166.1,103.707h14.988v4.334H166.1Z" transform="translate(-166.097 -103.707)" fill="#fff"/></g><g transform="translate(29.088 36.303)"><path d="M166.1,224.3h14.988v4.334H166.1Z" transform="translate(-166.097 -224.299)" fill="#fff"/></g><g transform="translate(34.758 42.997)"><path d="M217.428,291.776l-8.3-15.912c4.586-4.978,8.848-6.782,13.434-1.8Z" transform="translate(-209.124 -271.109)" fill="#fff"/></g><g transform="translate(43.062 44.02)"><path d="M280.445,281.988a11.255,11.255,0,0,0-8.3-3.733V297.9l4.727-9.058.548-2.329,1.38-1.366Z" transform="translate(-272.141 -278.255)" fill="#fff"/></g><g transform="translate(37.428 47.071)"><path d="M2.117,0A1.976,1.976,0,0,1,4.111,2.117,2.273,2.273,0,0,1,1.994,4.356,1.976,1.976,0,0,1,0,2.24,2.273,2.273,0,0,1,2.117,0Z" transform="translate(0 1.575) rotate(-22.514)" fill="#b7b7b7"/></g><g transform="translate(46.252 50.267)"><path d="M298.385,321.936a2.121,2.121,0,0,0-2.029,2.2,2.177,2.177,0,0,0,1.536,2.137l1.928-3.695A1.947,1.947,0,0,0,298.385,321.936Z" transform="translate(-296.356 -321.936)" fill="#e2e2e2"/></g><g transform="translate(40.058 53.825)"><path d="M2.2,0A1.918,1.918,0,0,1,4.234,2.031a2.338,2.338,0,0,1-2.2,2.2A1.918,1.918,0,0,1,0,2.2,2.338,2.338,0,0,1,2.2,0Z" transform="translate(0 2.995) rotate(-45)" fill="#afafaf"/></g><g transform="translate(43.062 19.055)"><path d="M272.142,103.707h13.973v4.334H272.142Z" transform="translate(-272.142 -103.707)" fill="#f5f5f6"/><path d="M272.142,224.3h13.973v4.333H272.142Z" transform="translate(-272.142 -207.051)" fill="#f5f5f6"/></g><g transform="translate(43.062 54.619)"><path d="M274.171,354.563a2.121,2.121,0,0,0-2.029-2.2v4.405A2.121,2.121,0,0,0,274.171,354.563Z" transform="translate(-272.142 -352.36)" fill="#afafaf"/></g><g transform="translate(32.801 42.525)"><path d="M212.837,275.155l-.978-1.062a9.8,9.8,0,0,0-14.651,0l-.978,1.062-1.957-2.124.978-1.062a12.423,12.423,0,0,1,18.564,0l.978,1.062Z" transform="translate(-194.273 -267.803)" fill="#efefef"/></g><g transform="translate(43.062 42.524)"><path d="M281.424,271.968a12.581,12.581,0,0,0-9.282-4.167v3a9.929,9.929,0,0,1,7.325,3.288l.978,1.062,1.957-2.124Z" transform="translate(-272.142 -267.801)" fill="#f2f2f2"/></g></g><path d="M130.74,25.493a1.125,1.125,0,0,0,1.1-1.145V18.241a4.731,4.731,0,0,0-4.639-4.808h-2.43v-7.4A5.933,5.933,0,0,0,118.959,0H85.974a5.933,5.933,0,0,0-5.817,6.029V71.97A5.933,5.933,0,0,0,85.974,78h32.985a5.933,5.933,0,0,0,5.817-6.029V49.913h2.43a4.731,4.731,0,0,0,4.639-4.808V29.943a1.105,1.105,0,1,0-2.209,0V45.105a2.478,2.478,0,0,1-2.43,2.519H103.644a1.082,1.082,0,0,0-.719.276L96.5,53.606V18.241a2.478,2.478,0,0,1,2.43-2.519h28.273a2.478,2.478,0,0,1,2.43,2.519v6.108A1.125,1.125,0,0,0,130.74,25.493ZM122.567,71.97a3.68,3.68,0,0,1-3.608,3.74H85.974a3.68,3.68,0,0,1-3.608-3.74V68.23h40.2Zm0-58.538H98.932a4.731,4.731,0,0,0-4.639,4.808V56.1a1.11,1.11,0,0,0,1.823.869l7.936-7.051h18.514V65.941h-40.2V9.616h40.2Zm0-6.106h-40.2v-1.3a3.68,3.68,0,0,1,3.608-3.74h32.985a3.68,3.68,0,0,1,3.608,3.74Z" transform="translate(1110.843 698)" fill="#f2f2f2"/></g></g></svg>