<svg xmlns="http://www.w3.org/2000/svg" xmlns:xlink="http://www.w3.org/1999/xlink" width="129.572" height="120.27" viewBox="0 0 129.572 120.27"><defs><filter id="a" x="0" y="0" width="129.572" height="120.27" filterUnits="userSpaceOnUse"><feOffset dx="3" dy="3" input="SourceAlpha"/><feGaussianBlur stdDeviation="2" result="b"/><feFlood flood-color="#c9c9c9" flood-opacity="0.549"/><feComposite operator="in" in2="b"/><feComposite in="SourceGraphic"/></filter></defs><g transform="translate(3 3)"><g transform="matrix(1, 0, 0, 1, -3, -3)" filter="url(#a)"><path d="M70.248-2.872c34.169-9.386,47.325,27.1,47.325,57.148S102.714,103.9,70.248,103.9,0,84.327,0,54.277,36.078,6.515,70.248-2.872Z" transform="translate(3 7.37)" fill="#e0d6f0" opacity="0.5"/></g><g transform="translate(70.819 18.609)"><path d="M103.645,27.376a21.019,21.019,0,0,0,4.361-12.885V9.357h2.7a1.509,1.509,0,0,0,1.509-1.509V1.509A1.509,1.509,0,0,0,110.708,0H62.878a1.509,1.509,0,0,0-1.509,1.509V7.848a1.509,1.509,0,0,0,1.509,1.509h2.7v5.134A21.019,21.019,0,0,0,69.94,27.376a21.415,21.415,0,0,0,7.318,6.064A21.411,21.411,0,0,0,69.94,39.5,21.019,21.019,0,0,0,65.58,52.389v5.134h-2.7a1.509,1.509,0,0,0-1.509,1.509v6.339a1.509,1.509,0,0,0,1.509,1.509h47.829a1.509,1.509,0,0,0,1.509-1.509V59.032a1.509,1.509,0,0,0-1.509-1.509h-2.7V52.389A21.019,21.019,0,0,0,103.645,39.5a21.417,21.417,0,0,0-7.319-6.064A21.411,21.411,0,0,0,103.645,27.376ZM64.387,6.339V3.018H109.2V6.339H64.387ZM68.6,52.389h0a18.267,18.267,0,0,1,13.189-17.5A1.507,1.507,0,0,0,82.2,34.7v3.247A15.2,15.2,0,0,0,71.616,52.414v5.109H68.6Zm15.451-26.08a12.146,12.146,0,0,1-8.284-6.722H97.821a12.145,12.145,0,0,1-8.285,6.722,1.509,1.509,0,0,0-1.168,1.47V39.1a1.509,1.509,0,0,0,1.169,1.47,12.257,12.257,0,0,1,9.415,11.846v5.109H74.634V52.414a12.257,12.257,0,0,1,9.415-11.846,1.509,1.509,0,0,0,1.169-1.47V27.779A1.509,1.509,0,0,0,84.049,26.309ZM109.2,60.541v3.321H64.387V60.541H109.2Zm-4.211-8.152v5.134h-3.018V52.414A15.2,15.2,0,0,0,91.386,37.949V34.7a1.5,1.5,0,0,0,.412.189A18.267,18.267,0,0,1,104.988,52.389ZM91.8,31.989a1.509,1.509,0,0,0-.412.189V28.93A15.161,15.161,0,0,0,101.43,18.477a1.509,1.509,0,0,0-1.455-1.908H73.611a1.509,1.509,0,0,0-1.455,1.908A15.162,15.162,0,0,0,82.2,28.93v3.249a1.5,1.5,0,0,0-.412-.189A18.267,18.267,0,0,1,68.6,14.491V14.1H95.641a1.509,1.509,0,0,0,0-3.018H68.6V9.357h36.389v5.134A18.267,18.267,0,0,1,91.8,31.989Z" transform="translate(-61.369)" fill="#bc97f6"/><g transform="translate(36.536 5.949)"><g transform="translate(0)"><path d="M353.572,86.2a1.542,1.542,0,0,0-.094-.308,1.616,1.616,0,0,0-.152-.285,1.561,1.561,0,0,0-.2-.251,1.581,1.581,0,0,0-.251-.2,1.686,1.686,0,0,0-.283-.152,1.739,1.739,0,0,0-.308-.094,1.622,1.622,0,0,0-.644,0,1.671,1.671,0,0,0-.308.094,1.634,1.634,0,0,0-.285.152,1.6,1.6,0,0,0-.455.455,1.634,1.634,0,0,0-.152.285,1.539,1.539,0,0,0-.094.308,1.626,1.626,0,0,0-.033.321,1.656,1.656,0,0,0,.033.323,1.623,1.623,0,0,0,.094.308,1.685,1.685,0,0,0,.152.283,1.574,1.574,0,0,0,.2.251,1.637,1.637,0,0,0,1.488.45,1.616,1.616,0,0,0,.308-.094,1.6,1.6,0,0,0,.534-.356,1.564,1.564,0,0,0,.2-.251,1.672,1.672,0,0,0,.152-.283,1.618,1.618,0,0,0,.094-.308,1.657,1.657,0,0,0,.033-.323A1.638,1.638,0,0,0,353.572,86.2Z" transform="translate(-350.309 -84.877)" fill="#bc97f6"/></g></g></g></g></svg>