<svg xmlns="http://www.w3.org/2000/svg" width="656.148" height="598.156" viewBox="0 0 656.148 598.156"><g transform="translate(-1200.296 -298.9)"><g transform="translate(1199.296 499.296)"><path d="M80.215,67.179H10.691A8.691,8.691,0,0,1,2,58.489v-47.8A8.691,8.691,0,0,1,10.691,2H80.215a8.691,8.691,0,0,1,8.691,8.691v47.8A8.691,8.691,0,0,1,80.215,67.179Z" transform="translate(1.173 1.173)" fill="#dfdfdf"/><path d="M88.906,10.691A8.691,8.691,0,0,0,80.215,2H10.691A8.691,8.691,0,0,0,2,10.691V54.144H88.906Z" transform="translate(1.173 1.173)" fill="#dfdfdf"/><path d="M21.554,49.8c30,0,54.316-20.427,54.316-45.626,0-.728-.026-1.451-.065-2.173H10.691A8.691,8.691,0,0,0,2,10.691V46.739A63.36,63.36,0,0,0,21.554,49.8Z" transform="translate(1.173 1.173)" fill="#dfdfdf"/><path d="M44,34H78.762V55.726H44Z" transform="translate(50.424 38.697)" fill="#dfdfdf"/><path d="M44,51.155A43.113,43.113,0,0,0,74.041,34H44Z" transform="translate(50.424 38.697)" fill="#dfdfdf"/><path d="M2,44H132.359V83.108H2Z" transform="translate(1.173 50.424)" fill="#dfdfdf"/><path d="M6,48H66.834V69.726H6Z" transform="translate(5.863 55.114)" fill="#dfdfdf"/><path d="M13,48.691V44.345A4.344,4.344,0,0,1,17.345,40H47.762a4.344,4.344,0,0,1,4.345,4.345v4.345Z" transform="translate(14.072 45.733)" fill="#dfdfdf"/><path d="M17,32H38.726V49.381H17Z" transform="translate(18.762 36.352)" fill="#dfdfdf"/><path d="M46,46.9V23l6.518,6.518L59.036,23l6.518,6.518L72.072,23V46.9Z" transform="translate(52.769 25.798)" fill="#dfdfdf"/><g transform="translate(81.388 103.114)"><path d="M38,48h8.691v8.691H38Z" transform="translate(-38 -48)" fill="#dfdfdf"/><path d="M46,48h8.691v8.691H46Z" transform="translate(-28.619 -48)" fill="#dfdfdf"/><path d="M54,48h8.691v8.691H54Z" transform="translate(-19.238 -48)" fill="#dfdfdf"/></g><path d="M12,48l4.345,8.691H42.417L46.762,48Z" transform="translate(12.899 55.114)" fill="#dfdfdf"/><g transform="translate(1 1)"><path d="M133.532,92.251h-2.173V72.7a2.171,2.171,0,0,0-2.173-2.173h-2.173V48.8a2.172,2.172,0,0,0-3.709-1.536l-4.982,4.982-4.982-4.982a2.17,2.17,0,0,0-3.072,0l-4.982,4.982-4.982-4.982A2.172,2.172,0,0,0,96.6,48.8V70.525H94.424A2.171,2.171,0,0,0,92.251,72.7V92.251h-23.9V90.079a6.526,6.526,0,0,0-6.518-6.518H59.661V70.525H81.388A10.876,10.876,0,0,0,92.251,59.661v-47.8A10.876,10.876,0,0,0,81.388,1H11.863A10.876,10.876,0,0,0,1,11.863v47.8A10.876,10.876,0,0,0,11.863,70.525H33.59V83.561H31.417A6.526,6.526,0,0,0,24.9,90.079v2.173H3.173A2.171,2.171,0,0,0,1,94.424v39.108A2.171,2.171,0,0,0,3.173,135.7H133.532a2.171,2.171,0,0,0,2.173-2.173V94.424A2.171,2.171,0,0,0,133.532,92.251Zm-32.59-38.208,2.809,2.809a2.17,2.17,0,0,0,3.072,0l4.982-4.982,4.982,4.982a2.17,2.17,0,0,0,3.072,0l2.809-2.809V70.525H100.942ZM96.6,74.87h30.417V92.251H96.6ZM11.863,5.345H81.388a6.526,6.526,0,0,1,6.518,6.518v41.28H5.345V11.863A6.526,6.526,0,0,1,11.863,5.345ZM5.345,59.661V57.489H87.906v2.173a6.526,6.526,0,0,1-6.518,6.518H11.863A6.526,6.526,0,0,1,5.345,59.661Zm32.59,10.863H55.316V83.561H37.935ZM29.244,90.079a2.173,2.173,0,0,1,2.173-2.173H61.834a2.173,2.173,0,0,1,2.173,2.173v2.173H29.244Zm102.114,41.28H5.345V96.6H131.359Z" transform="translate(-1 -1)" fill="#dfdfdf"/><path d="M7.173,73.072H68.007A2.171,2.171,0,0,0,70.179,70.9V49.173A2.171,2.171,0,0,0,68.007,47H7.173A2.171,2.171,0,0,0,5,49.173V70.9A2.171,2.171,0,0,0,7.173,73.072ZM51.456,51.345l-2.173,4.345H25.9l-2.173-4.345Zm-42.11,0h9.521l3.746,7.489a2.169,2.169,0,0,0,1.942,1.2H50.626a2.175,2.175,0,0,0,1.945-1.2l3.743-7.489h9.521V68.726H9.345Z" transform="translate(3.691 52.942)" fill="#dfdfdf"/><path d="M26.691,35.417a4.35,4.35,0,0,1-4.345-4.345H18a8.681,8.681,0,0,0,6.518,8.382v4.654h4.345V39.454a8.672,8.672,0,0,0-2.173-17.073,4.345,4.345,0,1,1,4.345-4.345h4.345a8.681,8.681,0,0,0-6.518-8.382V5H24.518V9.654a8.672,8.672,0,0,0,2.173,17.073,4.345,4.345,0,0,1,0,8.691Z" transform="translate(18.935 3.691)" fill="#dfdfdf"/><path d="M39.173,60.036h8.691a2.171,2.171,0,0,0,2.173-2.173V49.173A2.171,2.171,0,0,0,47.863,47H39.173A2.171,2.171,0,0,0,37,49.173v8.691A2.171,2.171,0,0,0,39.173,60.036Zm2.173-8.691h4.345v4.345H41.345Z" transform="translate(41.215 52.942)" fill="#dfdfdf"/><path d="M47.173,60.036h8.691a2.171,2.171,0,0,0,2.173-2.173V49.173A2.171,2.171,0,0,0,55.863,47H47.173A2.171,2.171,0,0,0,45,49.173v8.691A2.171,2.171,0,0,0,47.173,60.036Zm2.173-8.691h4.345v4.345H49.345Z" transform="translate(50.596 52.942)" fill="#dfdfdf"/><path d="M55.173,60.036h8.691a2.171,2.171,0,0,0,2.173-2.173V49.173A2.171,2.171,0,0,0,63.863,47H55.173A2.171,2.171,0,0,0,53,49.173v8.691A2.171,2.171,0,0,0,55.173,60.036Zm2.173-8.691h4.345v4.345H57.345Z" transform="translate(59.978 52.942)" fill="#dfdfdf"/><path d="M37,57H84.8v4.345H37Z" transform="translate(41.215 64.668)" fill="#dfdfdf"/><path d="M49,29H62.036v4.345H49Z" transform="translate(55.287 31.834)" fill="#dfdfdf"/><path d="M55,37h4.345v4.345H55Z" transform="translate(62.323 41.215)" fill="#dfdfdf"/><path d="M49,12h4.345V29.381H49Z" transform="translate(55.287 11.899)" fill="#dfdfdf"/><path d="M53,10h4.345V25.209H53Z" transform="translate(59.978 9.554)" fill="#dfdfdf"/></g></g><g transform="translate(-156 -11)"><g transform="translate(1508 328)"><g transform="translate(3.871 3.871)"><circle cx="45.935" cy="45.935" r="45.935" fill="#dfdfdf"/><g transform="translate(0 40.194)"><path d="M61,47.495a43.064,43.064,0,0,1,84.493,9.445,22.967,22.967,0,1,1,5.8,45.189H24.968a22.975,22.975,0,0,1-6.374-45.045,23.251,23.251,0,0,1,6.374-.89,22.915,22.915,0,0,1,7.177,1.148A20.078,20.078,0,0,1,50.806,44.71,19.8,19.8,0,0,1,61,47.495Z" transform="translate(-2 -16)" fill="#dfdfdf"/></g><g transform="translate(100.355 356.419)"><circle cx="5.742" cy="5.742" r="5.742" fill="#dfdfdf"/></g><g transform="translate(80.387 160.774)"><circle cx="5.742" cy="5.742" r="5.742" fill="#dfdfdf"/></g><g transform="translate(11.484 160.774)"><circle cx="5.742" cy="5.742" r="5.742" fill="#dfdfdf"/></g></g><g transform="translate(1 1)"><path d="M59.452,24.742V19A34.49,34.49,0,0,0,25,53.452h5.742A28.833,28.833,0,0,1,43.186,29.806,28.318,28.318,0,0,1,59.452,24.742Z" transform="translate(43.903 32.677)" fill="#dfdfdf"/><path d="M73.968,47.355A14.371,14.371,0,0,0,59.613,33v5.742a8.613,8.613,0,0,1,0,17.226H51V61.71h8.613A14.371,14.371,0,0,0,73.968,47.355Z" transform="translate(92.548 58.871)" fill="#dfdfdf"/><path d="M47,41h5.742v5.742H47Z" transform="translate(85.065 73.839)" fill="#dfdfdf"/><path d="M43,41h5.742v5.742H43Z" transform="translate(77.581 73.839)" fill="#dfdfdf"/><path d="M153.161,133.065a25.839,25.839,0,1,0-3.244-51.451A45.521,45.521,0,0,0,97.892,41.7,48.783,48.783,0,1,0,15.2,84.186a25.82,25.82,0,0,0,11.636,48.878h20.1v31.581a2.876,2.876,0,0,1-2.871,2.871H29.181a8.613,8.613,0,1,0,0,5.742H44.065a8.623,8.623,0,0,0,8.613-8.613V133.065H64.161l.456,275.222a8.613,8.613,0,1,0,5.742,0L69.9,133.065H87.129V162.3a8.613,8.613,0,1,0,5.742,0V133.065H110.1s-.1,89.6,0,95.3,1.9,7.64,7.236,8.307,103,0,103,0c-.33.118,2.9.323,2.917,2.083.12,11.336,0,140.417,0,150.917s7.417,12.75,10.5,12.667c5.2.333,105.667-.358,105.667.016,0,4.749,6.38,1.53,11.129,1.53a8.623,8.623,0,0,0,8.613-8.613c0-.108-13.025,3.6-26.825,1.4-32.4.4-96.083,1.016-98.583.167a7.5,7.5,0,0,1-5.25-7.167c-.269-10.4.439-146.276,0-153-.5-7.667-7.723-5.842-8.167-6h-103s-1.667,1.333-1.495-2.307,0-95.3,0-95.3h11.484l.226,57.694a8.623,8.623,0,0,0,8.613,8.613l160.339,1a8.6,8.6,0,1,0,8.085-11.484c-3.738,0-6.9,1.409-8.085,4.742H136.161a2.876,2.876,0,0,1-2.871-2.871l-.226-57.694ZM21.1,173.258a2.871,2.871,0,1,1,2.871-2.871A2.876,2.876,0,0,1,21.1,173.258ZM67.489,419.242a2.871,2.871,0,1,1,2.871-2.871A2.876,2.876,0,0,1,67.489,419.242ZM90,173.258a2.871,2.871,0,1,1,2.871-2.871A2.876,2.876,0,0,1,90,173.258ZM350.546,398.137c-1.582,0-4.479,3.861-4.479,2.279s-8.232-3.4-6.65-3.4,14-3.332,14-1.75A2.876,2.876,0,0,1,350.546,398.137ZM304.585,194.629a2.871,2.871,0,1,1-2.871,2.871A2.876,2.876,0,0,1,304.585,194.629ZM61.193,71.563A22.966,22.966,0,0,0,52.677,69.9H32.159A80.967,80.967,0,0,1,29.8,52.677H69.837c-.049,1.519-.129,3.026-.256,4.522a45.912,45.912,0,0,0-8.389,14.363ZM6.9,52.677H24.062A87.72,87.72,0,0,0,26.247,69.9H11.778A42.835,42.835,0,0,1,6.9,52.677ZM49.806,6.742c6.408,0,12.213,6.853,15.922,17.226H33.884C37.593,13.595,43.4,6.742,49.806,6.742ZM67.489,29.71a81.429,81.429,0,0,1,2.343,17.226H29.779A81.429,81.429,0,0,1,32.121,29.71ZM24.042,46.935H6.888A42.714,42.714,0,0,1,11.749,29.71H26.2A87.323,87.323,0,0,0,24.042,46.935ZM73.412,29.71H87.924a42.924,42.924,0,0,1,4.341,13.152,45.812,45.812,0,0,0-16.657,8.492c.011-.517.037-1.031.037-1.547A88.649,88.649,0,0,0,73.412,29.71Zm10.872-5.742H71.81A47.662,47.662,0,0,0,64.4,9.3,42.9,42.9,0,0,1,84.284,23.968ZM35.17,9.357A47.815,47.815,0,0,0,27.8,23.968H15.438A43.177,43.177,0,0,1,35.17,9.357ZM15.386,75.645h22.15A23.064,23.064,0,0,0,32.42,82.07a25.813,25.813,0,0,0-5.581-.683A25.776,25.776,0,0,0,21.292,82a43.3,43.3,0,0,1-5.906-6.356ZM6.742,107.226A19.986,19.986,0,0,1,30.379,87.465a22.832,22.832,0,0,0-.669,5.406h5.742A17.207,17.207,0,0,1,59.559,77.089a45.754,45.754,0,0,0-1.14,10.04h5.742a40.17,40.17,0,0,1,80.129-4.14,25.861,25.861,0,0,0-16.967,24.237h5.742a20.1,20.1,0,1,1,20.1,20.1H26.839a20.119,20.119,0,0,1-20.1-20.1Z" transform="translate(-1 -1)" fill="#dfdfdf"/></g></g><g transform="translate(1502 322)"><g transform="translate(3.871 3.871)"><circle cx="45.935" cy="45.935" r="45.935" fill="#c7e2fb"/><g transform="translate(0 40.194)"><path d="M61,47.495a43.064,43.064,0,0,1,84.493,9.445,22.967,22.967,0,1,1,5.8,45.189H24.968a22.975,22.975,0,0,1-6.374-45.045,23.251,23.251,0,0,1,6.374-.89,22.915,22.915,0,0,1,7.177,1.148A20.078,20.078,0,0,1,50.806,44.71,19.8,19.8,0,0,1,61,47.495Z" transform="translate(-2 -16)" fill="#88929f"/></g><g transform="translate(100.355 356.419)"><circle cx="5.742" cy="5.742" r="5.742" fill="#ff84a7"/></g><g transform="translate(80.387 160.774)"><circle cx="5.742" cy="5.742" r="5.742" fill="#ff84a7"/></g><g transform="translate(11.484 160.774)"><circle cx="5.742" cy="5.742" r="5.742" fill="#ff84a7"/></g></g><g transform="translate(1 1)"><path d="M59.452,24.742V19A34.49,34.49,0,0,0,25,53.452h5.742A28.833,28.833,0,0,1,43.186,29.806,28.318,28.318,0,0,1,59.452,24.742Z" transform="translate(43.903 32.677)" fill="#696f78"/><path d="M73.968,47.355A14.371,14.371,0,0,0,59.613,33v5.742a8.613,8.613,0,0,1,0,17.226H51V61.71h8.613A14.371,14.371,0,0,0,73.968,47.355Z" transform="translate(92.548 58.871)" fill="#696f78"/><path d="M47,41h5.742v5.742H47Z" transform="translate(85.065 73.839)" fill="#696f78"/><path d="M43,41h5.742v5.742H43Z" transform="translate(77.581 73.839)" fill="#696f78"/><path d="M153.161,133.065a25.839,25.839,0,1,0-3.244-51.451A45.521,45.521,0,0,0,97.892,41.7,48.783,48.783,0,1,0,15.2,84.186a25.82,25.82,0,0,0,11.636,48.878h20.1v31.581a2.876,2.876,0,0,1-2.871,2.871H29.181a8.613,8.613,0,1,0,0,5.742H44.065a8.623,8.623,0,0,0,8.613-8.613V133.065H64.161L63.84,371.915a8.613,8.613,0,1,0,5.742,0L69.9,133.065H87.129V162.3a8.613,8.613,0,1,0,5.742,0V133.065H110.1s-.1,89.6,0,95.3,1.9,7.64,7.236,8.307,103,0,103,0c-.33.118,2.9.323,2.917,2.083.12,11.336,0,140.417,0,150.917s7.417,12.75,10.5,12.667c5.2.333,105.667-.358,105.667.016,0,4.749,6.38,1.53,11.129,1.53a8.623,8.623,0,0,0,8.613-8.613c0-.108-13.025,3.6-26.825,1.4-32.4.4-96.083,1.016-98.583.167a7.5,7.5,0,0,1-5.25-7.167c-.269-10.4.439-146.276,0-153-.5-7.667-7.723-5.842-8.167-6h-103s-1.667,1.333-1.495-2.307,0-95.3,0-95.3h11.484l.226,57.694a8.623,8.623,0,0,0,8.613,8.613l160.339,1a8.6,8.6,0,1,0,8.085-11.484c-3.738,0-6.9,1.409-8.085,4.742H136.161a2.876,2.876,0,0,1-2.871-2.871l-.226-57.694ZM21.1,173.258a2.871,2.871,0,1,1,2.871-2.871A2.876,2.876,0,0,1,21.1,173.258ZM66.711,382.871A2.871,2.871,0,1,1,69.582,380,2.876,2.876,0,0,1,66.711,382.871ZM90,173.258a2.871,2.871,0,1,1,2.871-2.871A2.876,2.876,0,0,1,90,173.258ZM350.546,398.137c-1.582,0-4.479,3.861-4.479,2.279s-8.232-3.4-6.65-3.4,14-3.332,14-1.75A2.876,2.876,0,0,1,350.546,398.137ZM304.585,194.629a2.871,2.871,0,1,1-2.871,2.871A2.876,2.876,0,0,1,304.585,194.629ZM61.193,71.563A22.966,22.966,0,0,0,52.677,69.9H32.159A80.967,80.967,0,0,1,29.8,52.677H69.837c-.049,1.519-.129,3.026-.256,4.522a45.912,45.912,0,0,0-8.389,14.363ZM6.9,52.677H24.062A87.72,87.72,0,0,0,26.247,69.9H11.778A42.835,42.835,0,0,1,6.9,52.677ZM49.806,6.742c6.408,0,12.213,6.853,15.922,17.226H33.884C37.593,13.595,43.4,6.742,49.806,6.742ZM67.489,29.71a81.429,81.429,0,0,1,2.343,17.226H29.779A81.429,81.429,0,0,1,32.121,29.71ZM24.042,46.935H6.888A42.714,42.714,0,0,1,11.749,29.71H26.2A87.323,87.323,0,0,0,24.042,46.935ZM73.412,29.71H87.924a42.924,42.924,0,0,1,4.341,13.152,45.812,45.812,0,0,0-16.657,8.492c.011-.517.037-1.031.037-1.547A88.649,88.649,0,0,0,73.412,29.71Zm10.872-5.742H71.81A47.662,47.662,0,0,0,64.4,9.3,42.9,42.9,0,0,1,84.284,23.968ZM35.17,9.357A47.815,47.815,0,0,0,27.8,23.968H15.438A43.177,43.177,0,0,1,35.17,9.357ZM15.386,75.645h22.15A23.064,23.064,0,0,0,32.42,82.07a25.813,25.813,0,0,0-5.581-.683A25.776,25.776,0,0,0,21.292,82a43.3,43.3,0,0,1-5.906-6.356ZM6.742,107.226A19.986,19.986,0,0,1,30.379,87.465a22.832,22.832,0,0,0-.669,5.406h5.742A17.207,17.207,0,0,1,59.559,77.089a45.754,45.754,0,0,0-1.14,10.04h5.742a40.17,40.17,0,0,1,80.129-4.14,25.861,25.861,0,0,0-16.967,24.237h5.742a20.1,20.1,0,1,1,20.1,20.1H26.839a20.119,20.119,0,0,1-20.1-20.1Z" transform="translate(-1 -1)" fill="#88929f"/><path d="M58.484,31.226h5.742A17.243,17.243,0,0,0,47,14v5.742A11.5,11.5,0,0,1,58.484,31.226Z" transform="translate(-101.935 158.323)" fill="#88929f"/><path d="M69.968,38.71H75.71A28.742,28.742,0,0,0,47,10v5.742A23,23,0,0,1,69.968,38.71Z" transform="translate(-101.935 150.839)" fill="#88929f"/><path d="M81.452,46.194h5.742A40.238,40.238,0,0,0,47,6v5.742A34.49,34.49,0,0,1,81.452,46.194Z" transform="translate(-101.935 142.355)" fill="#88929f"/><path d="M58.484,31.226h5.742A17.243,17.243,0,0,0,47,14v5.742A11.5,11.5,0,0,1,58.484,31.226Z" transform="matrix(-0.017, -1, 1, -0.017, -30.875, 74.62)" fill="#88929f"/><path d="M69.968,38.71H75.71A28.742,28.742,0,0,0,47,10v5.742A23,23,0,0,1,69.968,38.71Z" transform="matrix(-0.017, -1, 1, -0.017, -38.357, 74.75)" fill="#88929f"/><path d="M81.452,46.194h5.742A40.238,40.238,0,0,0,47,6v5.742A34.49,34.49,0,0,1,81.452,46.194Z" transform="matrix(-0.017, -1, 1, -0.017, -46.84, 74.898)" fill="#88929f"/></g></g></g><g transform="translate(168 -93)"><g transform="matrix(0.978, -0.208, 0.208, 0.978, 1383.78, 510.097)"><path d="M200.912,200.866a85.118,85.118,0,1,1,0-120.371A85.13,85.13,0,0,1,200.912,200.866Zm0,0" transform="translate(-31.976 -31.955)" fill="#dfdfdf"/><path d="M219.027,95.733a85.2,85.2,0,0,0-17.852-13.671A85.135,85.135,0,0,1,87.1,201.754,85.124,85.124,0,1,0,219.027,95.733Zm0,0" transform="translate(-50.091 -47.194)" fill="#dfdfdf"/><path d="M402.4,64.745,381.105,86.037q-1.713-3.687-3.806-7.223a85.143,85.143,0,0,0-11.529-15.231q-.774-.824-1.587-1.637c-.213-.217-.43-.435-.652-.644-.762-.745-1.539-1.479-2.322-2.191a85.043,85.043,0,0,0-14.79-10.8q-3.4-1.944-6.913-3.555l21.45-21.449Zm0,0" transform="translate(-195.254 -13.404)" fill="#dfdfdf"/><path d="M369.861,72.651,354.754,87.756a84.3,84.3,0,0,0-4.187-10.812q-1.715-3.685-3.807-7.22l8.068-8.068a8.893,8.893,0,0,0,0-12.576L336.715,30.97a8.894,8.894,0,0,0-12.579,0l-22.02,22.018A9.2,9.2,0,1,1,289.1,39.974l24.04-24.038a28.8,28.8,0,0,1,39.077-1.529q.844.732,1.648,1.529l15.995,15.995c.589.589,1.152,1.2,1.678,1.829A28.787,28.787,0,0,1,369.861,72.651Zm0,0" transform="translate(-164.715 -4.314)" fill="#dfdfdf"/><path d="M289.108,50.547l24.04-24.036a28.8,28.8,0,0,1,39.077-1.529q.844.729,1.648,1.529L369.868,42.5c.589.589,1.152,1.2,1.678,1.829a28.618,28.618,0,0,1,6.269,13.236,28.752,28.752,0,0,0-6.269-23.809c-.526-.627-1.089-1.241-1.678-1.829L353.873,15.936q-.8-.8-1.648-1.529a28.8,28.8,0,0,0-39.077,1.529l-24.04,24.038a9.2,9.2,0,0,0-1.016,11.794,9.245,9.245,0,0,1,1.016-1.222Zm0,0" transform="translate(-164.722 -4.314)" fill="#dfdfdf"/><path d="M437.367,132.6a8.748,8.748,0,0,1-.85,1l-8.068,8.068q2,3.391,3.66,6.913l4.408-4.407A8.887,8.887,0,0,0,437.367,132.6Zm0,0" transform="translate(-246.405 -76.26)" fill="#dfdfdf"/><path d="M421.507,45.565,415.6,39.658a9.5,9.5,0,0,1,0-13.432L427.19,14.634a9.5,9.5,0,0,1,13.431,0l5.909,5.909a9.5,9.5,0,0,1,0,13.431L434.936,45.565a9.494,9.494,0,0,1-13.429,0Zm0,0" transform="translate(-237.414 -6.816)" fill="#dfdfdf"/><path d="M436.7,39.109l-5.91-5.909a9.5,9.5,0,0,1,0-13.431l5.135-5.135a9.5,9.5,0,0,1,13.431,0l5.909,5.909a9.5,9.5,0,0,1,0,13.431l-5.135,5.135A9.5,9.5,0,0,1,436.7,39.109Zm0,0" transform="translate(-246.153 -6.816)" fill="#dfdfdf"/><path d="M87.411,382.3,65.959,403.74,24.523,362.308l21.293-21.3q1.713,3.69,3.806,7.225a85.049,85.049,0,0,0,11.525,15.231q.774.824,1.585,1.636c.217.216.435.433.652.642.763.745,1.539,1.479,2.324,2.191a85.165,85.165,0,0,0,14.793,10.8c2.259,1.295,4.569,2.485,6.909,3.558Zm0,0" transform="translate(-14.104 -196.118)" fill="#dfdfdf"/><path d="M17.8,330.679l15.107-15.105A84.384,84.384,0,0,0,37.1,326.386q1.715,3.685,3.807,7.22l-8.068,8.066a8.9,8.9,0,0,0,0,12.578L50.953,372.36a8.892,8.892,0,0,0,12.577,0l22.02-22.018a9.2,9.2,0,0,1,13.014,13.012l-24.04,24.038a28.8,28.8,0,0,1-39.077,1.529q-.844-.729-1.648-1.529L17.8,371.4c-.589-.589-1.152-1.2-1.678-1.829A28.787,28.787,0,0,1,17.8,330.679Zm0,0" transform="translate(-5.389 -181.489)" fill="#dfdfdf"/><path d="M55.808,395.094l-.8.8a8.9,8.9,0,0,0,0,12.578l18.114,18.111a8.9,8.9,0,0,0,12.577,0l22.02-22.018a9.189,9.189,0,0,1,14.946,2.851l.649-.649A9.2,9.2,0,0,0,110.3,393.755l-22.02,22.018a8.892,8.892,0,0,1-12.577,0L57.587,397.662A8.87,8.87,0,0,1,55.808,395.094Zm0,0" transform="translate(-30.138 -224.901)" fill="#dfdfdf"/><path d="M15.256,341.489l6.669-6.667A7.791,7.791,0,0,1,34.5,337.091l.05.1q.443.949.91,1.889l5.48-5.479q-2.091-3.538-3.809-7.22a84.393,84.393,0,0,1-4.188-10.811L17.837,330.679a28.687,28.687,0,0,0-8.412,19.206,28.7,28.7,0,0,1,5.831-8.4Zm0,0" transform="translate(-5.421 -181.488)" fill="#dfdfdf"/><path d="M41.139,416.994l5.909,5.909a9.5,9.5,0,0,1,0,13.431L35.455,447.927a9.5,9.5,0,0,1-13.429,0l-5.909-5.909a9.5,9.5,0,0,1,0-13.432l11.592-11.592A9.5,9.5,0,0,1,41.139,416.994Zm0,0" transform="translate(-7.669 -238.217)" fill="#dfdfdf"/><path d="M34.759,432.009l5.91,5.909a9.5,9.5,0,0,1,0,13.431l-5.215,5.213a9.5,9.5,0,0,1-13.429,0l-5.909-5.909a9.5,9.5,0,0,1,0-13.432l5.213-5.212A9.5,9.5,0,0,1,34.759,432.009Zm0,0" transform="translate(-7.67 -246.852)" fill="#dfdfdf"/><path d="M403.782,360.888l-41.437,41.435L341.05,381.032q3.682-1.718,7.222-3.809A84.753,84.753,0,0,0,363.508,365.7c.549-.515,1.1-1.047,1.631-1.585.217-.217.435-.43.649-.652.745-.762,1.479-1.539,2.186-2.322a84.961,84.961,0,0,0,10.8-14.788q1.944-3.4,3.558-6.913Zm0,0" transform="translate(-196.141 -195.213)" fill="#dfdfdf"/><path d="M330.708,369.785l-15.107-15.1a84.561,84.561,0,0,0,10.813-4.189q3.685-1.715,7.22-3.807l8.068,8.068a8.9,8.9,0,0,0,12.577,0l18.114-18.111a8.9,8.9,0,0,0,0-12.577l-22.02-22.018a9.2,9.2,0,1,1,13.014-13.012l24.04,24.036a28.8,28.8,0,0,1,1.529,39.074q-.729.846-1.529,1.648l-16,15.993c-.589.589-1.2,1.152-1.829,1.676a28.791,28.791,0,0,1-38.894-1.676Zm0,0" transform="translate(-181.505 -164.674)" fill="#dfdfdf"/><path d="M393.8,300.091a9.2,9.2,0,0,1,13.014,0l24.04,24.038a28.636,28.636,0,0,1,7.9,14.848,28.762,28.762,0,0,0-7.9-25.907l-24.04-24.036a9.2,9.2,0,0,0-13.852,12.035,9.271,9.271,0,0,1,.838-.978Zm0,0" transform="translate(-224.93 -164.674)" fill="#dfdfdf"/><path d="M324,429.69a15.743,15.743,0,0,1,17.7,3.18,8.892,8.892,0,0,0,12.577,0l18.114-18.111a8.892,8.892,0,0,0,.672-11.817,9.3,9.3,0,0,1-.672.76L354.28,421.813a8.9,8.9,0,0,1-12.577,0l-8.068-8.066q-3.538,2.089-7.22,3.806a84.574,84.574,0,0,1-10.813,4.189l8.09,8.086C323.761,429.8,323.865,429.752,324,429.69Zm0,0" transform="translate(-181.505 -231.734)" fill="#dfdfdf"/><path d="M417.035,421.426l5.91-5.909a9.5,9.5,0,0,1,13.429,0l11.593,11.592a9.5,9.5,0,0,1,0,13.431l-5.91,5.909a9.5,9.5,0,0,1-13.429,0l-11.593-11.592A9.5,9.5,0,0,1,417.035,421.426Zm0,0" transform="translate(-238.241 -237.367)" fill="#dfdfdf"/><path d="M432.228,436.617l5.91-5.909a9.5,9.5,0,0,1,13.429,0l5.139,5.137a9.5,9.5,0,0,1,0,13.431l-5.91,5.909a9.5,9.5,0,0,1-13.429,0l-5.139-5.137A9.5,9.5,0,0,1,432.228,436.617Zm0,0" transform="translate(-246.979 -246.104)" fill="#dfdfdf"/><path d="M86.043,45.764q-3.69,1.72-7.22,3.811A84.615,84.615,0,0,0,63.585,61.1c-.554.516-1.1,1.044-1.637,1.585-.217.217-.43.43-.644.652-.745.767-1.479,1.542-2.186,2.327a84.92,84.92,0,0,0-10.8,14.785q-1.944,3.393-3.555,6.911L23.308,65.91l41.44-41.437Zm0,0" transform="translate(-13.405 -14.074)" fill="#dfdfdf"/><path d="M72.658,17.764,87.765,32.869a84.316,84.316,0,0,0-10.813,4.188q-3.685,1.715-7.22,3.807L61.664,32.8a8.9,8.9,0,0,0-12.577,0L30.972,50.909a8.893,8.893,0,0,0,0,12.576L52.992,85.5A9.2,9.2,0,0,1,39.978,98.517L15.938,74.479A28.8,28.8,0,0,1,14.41,35.405c.486-.563.994-1.114,1.529-1.646L31.933,17.764c.589-.588,1.2-1.152,1.831-1.676a28.793,28.793,0,0,1,38.894,1.676Zm0,0" transform="translate(-4.316 -5.365)" fill="#dfdfdf"/><path d="M59.22,135.216a8.957,8.957,0,0,1-.968-1.162,8.888,8.888,0,0,0,.968,11.414l22.02,22.018a9.265,9.265,0,0,1,1.134,1.381,9.2,9.2,0,0,0-1.134-11.633Zm0,0" transform="translate(-32.564 -77.095)" fill="#dfdfdf"/><path d="M14.412,45.659q.729-.846,1.529-1.648L31.936,28.018c.589-.589,1.2-1.152,1.829-1.676a28.793,28.793,0,0,1,38.9,1.676L80.246,35.6q3.709-1.549,7.52-2.734L72.661,17.764a28.793,28.793,0,0,0-38.894-1.676c-.627.524-1.241,1.089-1.831,1.676L15.941,33.759c-.534.533-1.042,1.084-1.529,1.646A28.769,28.769,0,0,0,7.968,59.252a28.637,28.637,0,0,1,6.445-13.593Zm0,0" transform="translate(-4.318 -5.365)" fill="#dfdfdf"/><path d="M45.571,41.1l-5.91,5.909a9.5,9.5,0,0,1-13.429,0L14.638,35.413a9.5,9.5,0,0,1,0-13.432l5.91-5.907a9.493,9.493,0,0,1,13.429,0L45.571,27.666a9.5,9.5,0,0,1,0,13.431Zm0,0" transform="translate(-6.82 -7.644)" fill="#dfdfdf"/><path d="M38.145,33.672l-5.91,5.909a9.5,9.5,0,0,1-13.429,0l-4.169-4.168a9.5,9.5,0,0,1,0-13.432l5.909-5.907a9.5,9.5,0,0,1,13.431,0l4.169,4.168a9.5,9.5,0,0,1,0,13.431Zm0,0" transform="translate(-6.818 -7.644)" fill="#dfdfdf"/><path d="M158.125,310.344l-15.638,13.864a2.8,2.8,0,0,1-3.947-.239L132.361,317l-4.241-4.782-6.513-7.348a2.791,2.791,0,0,1,.239-3.942l15.641-13.864a2.792,2.792,0,0,1,3.942.239l6.385,7.2,4.241,4.787,6.309,7.112a2.8,2.8,0,0,1-.239,3.947Zm0,0" transform="translate(-69.534 -164.687)" fill="#dfdfdf"/><path d="M331.939,161.307l-22.433,19.884a3.284,3.284,0,0,1-4.634-.279l-16.284-18.368a3.283,3.283,0,0,1,.279-4.634L311.3,138.026a3.279,3.279,0,0,1,4.632.279l16.285,18.368a3.283,3.283,0,0,1-.28,4.634Zm0,0" transform="translate(-165.495 -78.904)" fill="#dfdfdf"/><path d="M212.77,317.279a31.981,31.981,0,0,0-3.515-41.055l-14.217-14.217a88.077,88.077,0,0,0,2.553-32.991,3.186,3.186,0,1,0-6.334.7,81.725,81.725,0,0,1-1.48,27.024l-4.561-4.561A12.39,12.39,0,1,0,167.693,269.7l11.973,11.968a82.1,82.1,0,0,1-61.7,38.657,81.374,81.374,0,0,1-26.029-1.565l4.568-4.568a12.389,12.389,0,0,0-17.523-17.519L67,308.665a82.549,82.549,0,0,1-27.558-27.884c-.033-.068-.058-.139-.1-.2-1.349-2.287-2.581-4.624-3.666-6.959a80.929,80.929,0,0,1-4.03-10.4,3.242,3.242,0,0,0-.186-.456,81.818,81.818,0,0,1-3.235-31.391,3.186,3.186,0,1,0-6.347-.574,88.113,88.113,0,0,0,3.089,32.493L11.243,277.015a31.969,31.969,0,0,0-3.651,40.859l-.319.319a12.682,12.682,0,0,0,0,17.938l5.909,5.909a12.694,12.694,0,0,0,17.935,0l.285-.286a31.764,31.764,0,0,0,18.4,5.857,32.421,32.421,0,0,0,5.9-.543,3.187,3.187,0,0,0-1.158-6.267A25.507,25.507,0,0,1,36,337.161l6.712-6.712a12.6,12.6,0,0,0,3.334-5.867A12.1,12.1,0,0,0,61.472,323.2l8.256-8.254.017-.017L83.49,301.186a6.03,6.03,0,0,1,8.514,0,6.016,6.016,0,0,1,0,8.5l-8.5,8.5c-.013.012-.023.023-.035.035L67.96,333.73a26.07,26.07,0,0,1-2.69,2.345,3.186,3.186,0,1,0,3.844,5.082,32.1,32.1,0,0,0,3.353-2.921l7.592-7.59,6.62-6.619a88.252,88.252,0,0,0,47.568-.368l13.781,13.786a31.887,31.887,0,0,0,21.326,9.341q.65.028,1.3.027a31.85,31.85,0,0,0,18.242-5.721l.322.322a12.7,12.7,0,0,0,17.935,0l5.909-5.909a12.68,12.68,0,0,0,0-17.937ZM8.265,298.6a25.531,25.531,0,0,1,7.482-17.074l11.464-11.462A87.746,87.746,0,0,0,32.6,281.684l-6.327,6.325a12.088,12.088,0,0,0-1.5,15.258,12.611,12.611,0,0,0-5.907,3.334l-6.679,6.679A25.51,25.51,0,0,1,8.265,298.6ZM38.2,325.943,28.941,335.2s0,0,0,0l-2.327,2.327a6.319,6.319,0,0,1-8.924,0l-5.909-5.909a6.309,6.309,0,0,1,0-8.924l2.279-2.279a.313.313,0,0,0,.023-.023l9.291-9.29a6.313,6.313,0,0,1,8.9-.017l5.645,5.641.284.284a6.313,6.313,0,0,1,0,8.924Zm18.762-7.248a5.7,5.7,0,0,1-8.07,0l-6.154-6.153s-.032-.03-.032-.032l-2.752-2.752L36.8,306.6l-.022-.02-6-6a5.7,5.7,0,0,1,0-8.07l5.23-5.23a88.814,88.814,0,0,0,9.864,12.4l-1.638,1.638a3.187,3.187,0,0,0,4.508,4.506l1.691-1.691a88.464,88.464,0,0,0,11.942,9.143ZM172.2,256.686a6.025,6.025,0,0,1,8.508,0l24.04,24.041a25.743,25.743,0,0,1,3.429,31.957l-6.712-6.712a12.621,12.621,0,0,0-5.867-3.324,12.078,12.078,0,0,0-1.378-15.436L172.2,265.2a6.026,6.026,0,0,1,0-8.511Zm-1.522,46.1,1.66,1.66a3.187,3.187,0,1,0,4.506-4.508l-1.716-1.716a88.706,88.706,0,0,0,9.153-11.935l5.432,5.431a5.706,5.706,0,0,1,0,8.07l-6.169,6.169-.017.015-5.909,5.909a.158.158,0,0,0-.017.017l-6,6a5.718,5.718,0,0,1-8.073,0l-5.266-5.268a88.284,88.284,0,0,0,12.417-9.846Zm-1.072,37.63a25.537,25.537,0,0,1-17.074-7.48l-11.5-11.5c2.134-.8,4.241-1.69,6.3-2.654,1.789-.835,3.578-1.748,5.339-2.722l6.347,6.345a12.1,12.1,0,0,0,15.251,1.5,12.613,12.613,0,0,0,3.344,5.909l6.675,6.674a25.553,25.553,0,0,1-14.687,3.924ZM208.551,331l-5.91,5.909a6.315,6.315,0,0,1-8.923,0l-11.592-11.592a6.307,6.307,0,0,1-.008-8.914l5.925-5.925a6.317,6.317,0,0,1,8.915.007l9.318,9.318a0,0,0,0,1,0,0l2.272,2.271a6.309,6.309,0,0,1,0,8.924Zm0,0" transform="translate(-1.078 -130.078)" fill="#dfdfdf"/><path d="M33.411,95.4A12.389,12.389,0,0,0,50.93,77.882L38.9,65.857A82.15,82.15,0,0,1,49.886,51.741a3.436,3.436,0,0,0,.262-.234,3.19,3.19,0,0,0,.285-.334l.377-.382a82.253,82.253,0,0,1,15.754-12.32,3.225,3.225,0,0,0,.476-.231c2.267-1.339,4.6-2.573,6.949-3.666a81.544,81.544,0,0,1,10.4-4.028,3.132,3.132,0,0,0,.531-.226,81.866,81.866,0,0,1,41.832-1.532l-4.619,4.619a12.386,12.386,0,0,0,17.517,17.517l12.012-12.01A82.582,82.582,0,0,1,179.8,67.884a119.533,119.533,0,0,1,7.109,16.154,3.13,3.13,0,0,0,.216.685.043.043,0,0,1,0,.012c.641,2.116,1.909,1.89,2.91,1.89h0a3.185,3.185,0,0,0,2.251-.933l15.109-15.1a31.974,31.974,0,0,0,3.65-40.861l.319-.319a12.684,12.684,0,0,0,0-17.937l-5.909-5.909a12.7,12.7,0,0,0-17.937,0l-.285.285a31.993,31.993,0,0,0-41.064,3.519L132.013,23.529a88.233,88.233,0,0,0-47.707.329L70.594,10.143A31.981,31.981,0,0,0,29.73,6.5l-.319-.32a12.7,12.7,0,0,0-17.937,0L5.568,12.084a12.68,12.68,0,0,0,0,17.937l.287.287A31.98,31.98,0,0,0,9.368,71.364ZM175.8,34.96c.043.043.086.09.131.133l11.928,11.924a5.7,5.7,0,0,1,0,8.071l-5.24,5.24a88.85,88.85,0,0,0-9.852-12.411l1.638-1.637a3.186,3.186,0,0,0-4.506-4.506l-1.685,1.685a88.4,88.4,0,0,0-11.93-9.158l5.391-5.391a5.717,5.717,0,0,1,8.075,0Zm34.577,14.05a25.518,25.518,0,0,1-7.48,17.072L191.347,77.625a114.2,114.2,0,0,0-5.341-11.671l6.357-6.358a12.086,12.086,0,0,0,1.505-15.258A12.6,12.6,0,0,0,199.776,41l6.677-6.677a25.5,25.5,0,0,1,3.922,14.685ZM196.492,8.225a6.289,6.289,0,0,1,4.461,1.846l5.91,5.909a6.313,6.313,0,0,1,0,8.924l-2.319,2.319a.223.223,0,0,0-.02.02L195.27,36.5a6.317,6.317,0,0,1-8.923,0l-5.909-5.909a6.317,6.317,0,0,1,0-8.924L192.03,10.07a6.282,6.282,0,0,1,4.461-1.846Zm-45.81,5.648a25.748,25.748,0,0,1,31.963-3.429l-6.714,6.712a12.6,12.6,0,0,0-3.326,5.87A12.1,12.1,0,0,0,157.168,24.4L135.15,46.419a6.024,6.024,0,0,1-8.509,0,6.01,6.01,0,0,1,0-8.5ZM28.912,55.866a5.706,5.706,0,0,1,0-8.07L47.026,29.685a5.713,5.713,0,0,1,8.071,0l5.2,5.2a88.872,88.872,0,0,0-12.41,9.857l-1.608-1.608a3.187,3.187,0,0,0-4.506,4.508L43.434,49.3a88.324,88.324,0,0,0-9.148,11.94Zm20.1-48.7A25.526,25.526,0,0,1,66.09,14.65L77.539,26.1A88.107,88.107,0,0,0,65.91,31.484L59.6,25.177a12.1,12.1,0,0,0-15.253-1.5A12.6,12.6,0,0,0,41,17.767l-6.677-6.675A25.518,25.518,0,0,1,49.014,7.169ZM10.074,16.59l5.909-5.909a6.321,6.321,0,0,1,8.924,0l2.309,2.31c.012.01.023.023.035.033l9.25,9.248a6.313,6.313,0,0,1,0,8.924l-5.91,5.909a6.317,6.317,0,0,1-8.924,0L10.074,25.514a6.309,6.309,0,0,1,0-8.924ZM10.449,34.9l6.71,6.71a12.615,12.615,0,0,0,5.869,3.326,12.076,12.076,0,0,0,1.378,15.434L46.424,82.389A6.016,6.016,0,0,1,37.917,90.9L13.874,66.857A25.734,25.734,0,0,1,10.449,34.9Zm0,0" transform="translate(-0.001 0.001)" fill="#dfdfdf"/><g transform="translate(60.825 100.366) rotate(-43)"><path d="M4.022,0H57.475A4.022,4.022,0,0,1,61.5,4.022V70.713a4.022,4.022,0,0,1-4.022,4.022H4.022A4.022,4.022,0,0,1,0,70.713V4.022A4.022,4.022,0,0,1,4.022,0Z" transform="translate(0 0)" fill="#dfdfdf"/><path d="M0,0H53.454V61.664H0Z" transform="translate(4.022 4.022)" fill="#dfdfdf"/><circle cx="2.24" cy="2.24" r="2.24" transform="translate(28.508 67.907)" fill="#dfdfdf"/><g transform="translate(7.372 4.022)"><path d="M1.927,61.664H0L31.167,0h1.927Z" transform="translate(0 0)" fill="#dfdfdf" opacity="0.5"/><path d="M9.221,61.664H0L31.167,0h9.221Z" transform="translate(6.365 0)" fill="#dfdfdf" opacity="0.5"/></g></g></g><g transform="translate(1380.444 505.256) rotate(-13)"><path d="M200.912,200.866a85.118,85.118,0,1,1,0-120.371A85.13,85.13,0,0,1,200.912,200.866Zm0,0" transform="translate(-31.976 -31.955)" fill="#88929f"/><path d="M219.027,95.733a85.2,85.2,0,0,0-17.852-13.671A85.135,85.135,0,0,1,87.1,201.754,85.124,85.124,0,1,0,219.027,95.733Zm0,0" transform="translate(-50.091 -47.194)" fill="#808a97"/><path d="M402.4,64.745,381.105,86.037q-1.713-3.687-3.806-7.223a85.143,85.143,0,0,0-11.529-15.231q-.774-.824-1.587-1.637c-.213-.217-.43-.435-.652-.644-.762-.745-1.539-1.479-2.322-2.191a85.043,85.043,0,0,0-14.79-10.8q-3.4-1.944-6.913-3.555l21.45-21.449Zm0,0" transform="translate(-195.254 -13.404)" fill="#162937"/><path d="M369.861,72.651,354.754,87.756a84.3,84.3,0,0,0-4.187-10.812q-1.715-3.685-3.807-7.22l8.068-8.068a8.893,8.893,0,0,0,0-12.576L336.715,30.97a8.894,8.894,0,0,0-12.579,0l-22.02,22.018A9.2,9.2,0,1,1,289.1,39.974l24.04-24.038a28.8,28.8,0,0,1,39.077-1.529q.844.732,1.648,1.529l15.995,15.995c.589.589,1.152,1.2,1.678,1.829A28.787,28.787,0,0,1,369.861,72.651Zm0,0" transform="translate(-164.715 -4.314)" fill="#ff84a7"/><path d="M289.108,50.547l24.04-24.036a28.8,28.8,0,0,1,39.077-1.529q.844.729,1.648,1.529L369.868,42.5c.589.589,1.152,1.2,1.678,1.829a28.618,28.618,0,0,1,6.269,13.236,28.752,28.752,0,0,0-6.269-23.809c-.526-.627-1.089-1.241-1.678-1.829L353.873,15.936q-.8-.8-1.648-1.529a28.8,28.8,0,0,0-39.077,1.529l-24.04,24.038a9.2,9.2,0,0,0-1.016,11.794,9.245,9.245,0,0,1,1.016-1.222Zm0,0" transform="translate(-164.722 -4.314)" fill="#ef6085"/><path d="M437.367,132.6a8.748,8.748,0,0,1-.85,1l-8.068,8.068q2,3.391,3.66,6.913l4.408-4.407A8.887,8.887,0,0,0,437.367,132.6Zm0,0" transform="translate(-246.405 -76.26)" fill="#ef6085"/><path d="M421.507,45.565,415.6,39.658a9.5,9.5,0,0,1,0-13.432L427.19,14.634a9.5,9.5,0,0,1,13.431,0l5.909,5.909a9.5,9.5,0,0,1,0,13.431L434.936,45.565a9.494,9.494,0,0,1-13.429,0Zm0,0" transform="translate(-237.414 -6.816)" fill="#fecbaa"/><path d="M436.7,39.109l-5.91-5.909a9.5,9.5,0,0,1,0-13.431l5.135-5.135a9.5,9.5,0,0,1,13.431,0l5.909,5.909a9.5,9.5,0,0,1,0,13.431l-5.135,5.135A9.5,9.5,0,0,1,436.7,39.109Zm0,0" transform="translate(-246.153 -6.816)" fill="#c97f4c"/><path d="M87.411,382.3,65.959,403.74,24.523,362.308l21.293-21.3q1.713,3.69,3.806,7.225a85.049,85.049,0,0,0,11.525,15.231q.774.824,1.585,1.636c.217.216.435.433.652.642.763.745,1.539,1.479,2.324,2.191a85.165,85.165,0,0,0,14.793,10.8c2.259,1.295,4.569,2.485,6.909,3.558Zm0,0" transform="translate(-14.104 -196.118)" fill="#162937"/><path d="M17.8,330.679l15.107-15.105A84.384,84.384,0,0,0,37.1,326.386q1.715,3.685,3.807,7.22l-8.068,8.066a8.9,8.9,0,0,0,0,12.578L50.953,372.36a8.892,8.892,0,0,0,12.577,0l22.02-22.018a9.2,9.2,0,0,1,13.014,13.012l-24.04,24.038a28.8,28.8,0,0,1-39.077,1.529q-.844-.729-1.648-1.529L17.8,371.4c-.589-.589-1.152-1.2-1.678-1.829A28.787,28.787,0,0,1,17.8,330.679Zm0,0" transform="translate(-5.389 -181.489)" fill="#ff84a7"/><path d="M55.808,395.094l-.8.8a8.9,8.9,0,0,0,0,12.578l18.114,18.111a8.9,8.9,0,0,0,12.577,0l22.02-22.018a9.189,9.189,0,0,1,14.946,2.851l.649-.649A9.2,9.2,0,0,0,110.3,393.755l-22.02,22.018a8.892,8.892,0,0,1-12.577,0L57.587,397.662A8.87,8.87,0,0,1,55.808,395.094Zm0,0" transform="translate(-30.138 -224.901)" fill="#ef6085"/><path d="M15.256,341.489l6.669-6.667A7.791,7.791,0,0,1,34.5,337.091l.05.1q.443.949.91,1.889l5.48-5.479q-2.091-3.538-3.809-7.22a84.393,84.393,0,0,1-4.188-10.811L17.837,330.679a28.687,28.687,0,0,0-8.412,19.206,28.7,28.7,0,0,1,5.831-8.4Zm0,0" transform="translate(-5.421 -181.488)" fill="#ef6085"/><path d="M41.139,416.994l5.909,5.909a9.5,9.5,0,0,1,0,13.431L35.455,447.927a9.5,9.5,0,0,1-13.429,0l-5.909-5.909a9.5,9.5,0,0,1,0-13.432l11.592-11.592A9.5,9.5,0,0,1,41.139,416.994Zm0,0" transform="translate(-7.669 -238.217)" fill="#fecbaa"/><path d="M34.759,432.009l5.91,5.909a9.5,9.5,0,0,1,0,13.431l-5.215,5.213a9.5,9.5,0,0,1-13.429,0l-5.909-5.909a9.5,9.5,0,0,1,0-13.432l5.213-5.212A9.5,9.5,0,0,1,34.759,432.009Zm0,0" transform="translate(-7.67 -246.852)" fill="#c97f4c"/><path d="M403.782,360.888l-41.437,41.435L341.05,381.032q3.682-1.718,7.222-3.809A84.753,84.753,0,0,0,363.508,365.7c.549-.515,1.1-1.047,1.631-1.585.217-.217.435-.43.649-.652.745-.762,1.479-1.539,2.186-2.322a84.961,84.961,0,0,0,10.8-14.788q1.944-3.4,3.558-6.913Zm0,0" transform="translate(-196.141 -195.213)" fill="#4f7693"/><path d="M330.708,369.785l-15.107-15.1a84.561,84.561,0,0,0,10.813-4.189q3.685-1.715,7.22-3.807l8.068,8.068a8.9,8.9,0,0,0,12.577,0l18.114-18.111a8.9,8.9,0,0,0,0-12.577l-22.02-22.018a9.2,9.2,0,1,1,13.014-13.012l24.04,24.036a28.8,28.8,0,0,1,1.529,39.074q-.729.846-1.529,1.648l-16,15.993c-.589.589-1.2,1.152-1.829,1.676a28.791,28.791,0,0,1-38.894-1.676Zm0,0" transform="translate(-181.505 -164.674)" fill="#83d9ff"/><path d="M393.8,300.091a9.2,9.2,0,0,1,13.014,0l24.04,24.038a28.636,28.636,0,0,1,7.9,14.848,28.762,28.762,0,0,0-7.9-25.907l-24.04-24.036a9.2,9.2,0,0,0-13.852,12.035,9.271,9.271,0,0,1,.838-.978Zm0,0" transform="translate(-224.93 -164.674)" fill="#5fc9ed"/><path d="M324,429.69a15.743,15.743,0,0,1,17.7,3.18,8.892,8.892,0,0,0,12.577,0l18.114-18.111a8.892,8.892,0,0,0,.672-11.817,9.3,9.3,0,0,1-.672.76L354.28,421.813a8.9,8.9,0,0,1-12.577,0l-8.068-8.066q-3.538,2.089-7.22,3.806a84.574,84.574,0,0,1-10.813,4.189l8.09,8.086C323.761,429.8,323.865,429.752,324,429.69Zm0,0" transform="translate(-181.505 -231.734)" fill="#5fc9ed"/><path d="M417.035,421.426l5.91-5.909a9.5,9.5,0,0,1,13.429,0l11.593,11.592a9.5,9.5,0,0,1,0,13.431l-5.91,5.909a9.5,9.5,0,0,1-13.429,0l-11.593-11.592A9.5,9.5,0,0,1,417.035,421.426Zm0,0" transform="translate(-238.241 -237.367)" fill="#fecbaa"/><path d="M432.228,436.617l5.91-5.909a9.5,9.5,0,0,1,13.429,0l5.139,5.137a9.5,9.5,0,0,1,0,13.431l-5.91,5.909a9.5,9.5,0,0,1-13.429,0l-5.139-5.137A9.5,9.5,0,0,1,432.228,436.617Zm0,0" transform="translate(-246.979 -246.104)" fill="#c97f4c"/><path d="M86.043,45.764q-3.69,1.72-7.22,3.811A84.615,84.615,0,0,0,63.585,61.1c-.554.516-1.1,1.044-1.637,1.585-.217.217-.43.43-.644.652-.745.767-1.479,1.542-2.186,2.327a84.92,84.92,0,0,0-10.8,14.785q-1.944,3.393-3.555,6.911L23.308,65.91l41.44-41.437Zm0,0" transform="translate(-13.405 -14.074)" fill="#162937"/><path d="M72.658,17.764,87.765,32.869a84.316,84.316,0,0,0-10.813,4.188q-3.685,1.715-7.22,3.807L61.664,32.8a8.9,8.9,0,0,0-12.577,0L30.972,50.909a8.893,8.893,0,0,0,0,12.576L52.992,85.5A9.2,9.2,0,0,1,39.978,98.517L15.938,74.479A28.8,28.8,0,0,1,14.41,35.405c.486-.563.994-1.114,1.529-1.646L31.933,17.764c.589-.588,1.2-1.152,1.831-1.676a28.793,28.793,0,0,1,38.894,1.676Zm0,0" transform="translate(-4.316 -5.365)" fill="#83d9ff"/><path d="M59.22,135.216a8.957,8.957,0,0,1-.968-1.162,8.888,8.888,0,0,0,.968,11.414l22.02,22.018a9.265,9.265,0,0,1,1.134,1.381,9.2,9.2,0,0,0-1.134-11.633Zm0,0" transform="translate(-32.564 -77.095)" fill="#5fc9ed"/><path d="M14.412,45.659q.729-.846,1.529-1.648L31.936,28.018c.589-.589,1.2-1.152,1.829-1.676a28.793,28.793,0,0,1,38.9,1.676L80.246,35.6q3.709-1.549,7.52-2.734L72.661,17.764a28.793,28.793,0,0,0-38.894-1.676c-.627.524-1.241,1.089-1.831,1.676L15.941,33.759c-.534.533-1.042,1.084-1.529,1.646A28.769,28.769,0,0,0,7.968,59.252a28.637,28.637,0,0,1,6.445-13.593Zm0,0" transform="translate(-4.318 -5.365)" fill="#5fc9ed"/><path d="M45.571,41.1l-5.91,5.909a9.5,9.5,0,0,1-13.429,0L14.638,35.413a9.5,9.5,0,0,1,0-13.432l5.91-5.907a9.493,9.493,0,0,1,13.429,0L45.571,27.666a9.5,9.5,0,0,1,0,13.431Zm0,0" transform="translate(-6.82 -7.644)" fill="#fecbaa"/><path d="M38.145,33.672l-5.91,5.909a9.5,9.5,0,0,1-13.429,0l-4.169-4.168a9.5,9.5,0,0,1,0-13.432l5.909-5.907a9.5,9.5,0,0,1,13.431,0l4.169,4.168a9.5,9.5,0,0,1,0,13.431Zm0,0" transform="translate(-6.818 -7.644)" fill="#c97f4c"/><path d="M158.125,310.344l-15.638,13.864a2.8,2.8,0,0,1-3.947-.239L132.361,317l-4.241-4.782-6.513-7.348a2.791,2.791,0,0,1,.239-3.942l15.641-13.864a2.792,2.792,0,0,1,3.942.239l6.385,7.2,4.241,4.787,6.309,7.112a2.8,2.8,0,0,1-.239,3.947Zm0,0" transform="translate(-69.534 -164.687)" fill="#88929f"/><path d="M331.939,161.307l-22.433,19.884a3.284,3.284,0,0,1-4.634-.279l-16.284-18.368a3.283,3.283,0,0,1,.279-4.634L311.3,138.026a3.279,3.279,0,0,1,4.632.279l16.285,18.368a3.283,3.283,0,0,1-.28,4.634Zm0,0" transform="translate(-165.495 -78.904)" fill="#88929f"/><g transform="translate(79.549 105.366) rotate(-43)"><path d="M2.441,0H34.877a2.441,2.441,0,0,1,2.441,2.441V42.91a2.441,2.441,0,0,1-2.441,2.441H2.441A2.441,2.441,0,0,1,0,42.91V2.441A2.441,2.441,0,0,1,2.441,0Z" transform="translate(0 0)" fill="#2c2d34"/><path d="M0,0H32.437V37.419H0Z" transform="translate(2.441 2.441)" fill="#69b0ee"/><circle cx="1.359" cy="1.359" r="1.359" transform="translate(17.299 41.207)" fill="#828a9e"/><g transform="translate(4.474 2.441)"><path d="M1.169,37.419H0L18.913,0h1.169Z" transform="translate(0 0)" fill="#eeefee" opacity="0.5"/><path d="M5.6,37.419H0L18.913,0h5.6Z" transform="translate(3.862 0)" fill="#eeefee" opacity="0.5"/></g></g></g></g><g transform="translate(471.524 -669.044) rotate(34)"><g transform="translate(1440.452 475.361)"><path d="M200.912,200.866a85.118,85.118,0,1,1,0-120.371A85.13,85.13,0,0,1,200.912,200.866Zm0,0" transform="translate(-31.976 -31.955)" fill="#dfdfdf"/><path d="M219.027,95.733a85.2,85.2,0,0,0-17.852-13.671A85.135,85.135,0,0,1,87.1,201.754,85.124,85.124,0,1,0,219.027,95.733Zm0,0" transform="translate(-50.091 -47.194)" fill="#dfdfdf"/><path d="M402.4,64.745,381.105,86.037q-1.713-3.687-3.806-7.223a85.143,85.143,0,0,0-11.529-15.231q-.774-.824-1.587-1.637c-.213-.217-.43-.435-.652-.644-.762-.745-1.539-1.479-2.322-2.191a85.043,85.043,0,0,0-14.79-10.8q-3.4-1.944-6.913-3.555l21.45-21.449Zm0,0" transform="translate(-195.254 -13.404)" fill="#dfdfdf"/><path d="M369.861,72.651,354.754,87.756a84.3,84.3,0,0,0-4.187-10.812q-1.715-3.685-3.807-7.22l8.068-8.068a8.893,8.893,0,0,0,0-12.576L336.715,30.97a8.894,8.894,0,0,0-12.579,0l-22.02,22.018A9.2,9.2,0,1,1,289.1,39.974l24.04-24.038a28.8,28.8,0,0,1,39.077-1.529q.844.732,1.648,1.529l15.995,15.995c.589.589,1.152,1.2,1.678,1.829A28.787,28.787,0,0,1,369.861,72.651Zm0,0" transform="translate(-164.715 -4.314)" fill="#dfdfdf"/><path d="M289.108,50.547l24.04-24.036a28.8,28.8,0,0,1,39.077-1.529q.844.729,1.648,1.529L369.868,42.5c.589.589,1.152,1.2,1.678,1.829a28.618,28.618,0,0,1,6.269,13.236,28.752,28.752,0,0,0-6.269-23.809c-.526-.627-1.089-1.241-1.678-1.829L353.873,15.936q-.8-.8-1.648-1.529a28.8,28.8,0,0,0-39.077,1.529l-24.04,24.038a9.2,9.2,0,0,0-1.016,11.794,9.245,9.245,0,0,1,1.016-1.222Zm0,0" transform="translate(-164.722 -4.314)" fill="#dfdfdf"/><path d="M437.367,132.6a8.748,8.748,0,0,1-.85,1l-8.068,8.068q2,3.391,3.66,6.913l4.408-4.407A8.887,8.887,0,0,0,437.367,132.6Zm0,0" transform="translate(-246.405 -76.26)" fill="#dfdfdf"/><path d="M421.507,45.565,415.6,39.658a9.5,9.5,0,0,1,0-13.432L427.19,14.634a9.5,9.5,0,0,1,13.431,0l5.909,5.909a9.5,9.5,0,0,1,0,13.431L434.936,45.565a9.494,9.494,0,0,1-13.429,0Zm0,0" transform="translate(-237.414 -6.816)" fill="#dfdfdf"/><path d="M436.7,39.109l-5.91-5.909a9.5,9.5,0,0,1,0-13.431l5.135-5.135a9.5,9.5,0,0,1,13.431,0l5.909,5.909a9.5,9.5,0,0,1,0,13.431l-5.135,5.135A9.5,9.5,0,0,1,436.7,39.109Zm0,0" transform="translate(-246.153 -6.816)" fill="#dfdfdf"/><path d="M87.411,382.3,65.959,403.74,24.523,362.308l21.293-21.3q1.713,3.69,3.806,7.225a85.049,85.049,0,0,0,11.525,15.231q.774.824,1.585,1.636c.217.216.435.433.652.642.763.745,1.539,1.479,2.324,2.191a85.165,85.165,0,0,0,14.793,10.8c2.259,1.295,4.569,2.485,6.909,3.558Zm0,0" transform="translate(-14.104 -196.118)" fill="#dfdfdf"/><path d="M17.8,330.679l15.107-15.105A84.384,84.384,0,0,0,37.1,326.386q1.715,3.685,3.807,7.22l-8.068,8.066a8.9,8.9,0,0,0,0,12.578L50.953,372.36a8.892,8.892,0,0,0,12.577,0l22.02-22.018a9.2,9.2,0,0,1,13.014,13.012l-24.04,24.038a28.8,28.8,0,0,1-39.077,1.529q-.844-.729-1.648-1.529L17.8,371.4c-.589-.589-1.152-1.2-1.678-1.829A28.787,28.787,0,0,1,17.8,330.679Zm0,0" transform="translate(-5.389 -181.489)" fill="#dfdfdf"/><path d="M55.808,395.094l-.8.8a8.9,8.9,0,0,0,0,12.578l18.114,18.111a8.9,8.9,0,0,0,12.577,0l22.02-22.018a9.189,9.189,0,0,1,14.946,2.851l.649-.649A9.2,9.2,0,0,0,110.3,393.755l-22.02,22.018a8.892,8.892,0,0,1-12.577,0L57.587,397.662A8.87,8.87,0,0,1,55.808,395.094Zm0,0" transform="translate(-30.138 -224.901)" fill="#dfdfdf"/><path d="M15.256,341.489l6.669-6.667A7.791,7.791,0,0,1,34.5,337.091l.05.1q.443.949.91,1.889l5.48-5.479q-2.091-3.538-3.809-7.22a84.393,84.393,0,0,1-4.188-10.811L17.837,330.679a28.687,28.687,0,0,0-8.412,19.206,28.7,28.7,0,0,1,5.831-8.4Zm0,0" transform="translate(-5.421 -181.488)" fill="#dfdfdf"/><path d="M41.139,416.994l5.909,5.909a9.5,9.5,0,0,1,0,13.431L35.455,447.927a9.5,9.5,0,0,1-13.429,0l-5.909-5.909a9.5,9.5,0,0,1,0-13.432l11.592-11.592A9.5,9.5,0,0,1,41.139,416.994Zm0,0" transform="translate(-7.669 -238.217)" fill="#dfdfdf"/><path d="M34.759,432.009l5.91,5.909a9.5,9.5,0,0,1,0,13.431l-5.215,5.213a9.5,9.5,0,0,1-13.429,0l-5.909-5.909a9.5,9.5,0,0,1,0-13.432l5.213-5.212A9.5,9.5,0,0,1,34.759,432.009Zm0,0" transform="translate(-7.67 -246.852)" fill="#dfdfdf"/><path d="M403.782,360.888l-41.437,41.435L341.05,381.032q3.682-1.718,7.222-3.809A84.753,84.753,0,0,0,363.508,365.7c.549-.515,1.1-1.047,1.631-1.585.217-.217.435-.43.649-.652.745-.762,1.479-1.539,2.186-2.322a84.961,84.961,0,0,0,10.8-14.788q1.944-3.4,3.558-6.913Zm0,0" transform="translate(-196.141 -195.213)" fill="#dfdfdf"/><path d="M330.708,369.785l-15.107-15.1a84.561,84.561,0,0,0,10.813-4.189q3.685-1.715,7.22-3.807l8.068,8.068a8.9,8.9,0,0,0,12.577,0l18.114-18.111a8.9,8.9,0,0,0,0-12.577l-22.02-22.018a9.2,9.2,0,1,1,13.014-13.012l24.04,24.036a28.8,28.8,0,0,1,1.529,39.074q-.729.846-1.529,1.648l-16,15.993c-.589.589-1.2,1.152-1.829,1.676a28.791,28.791,0,0,1-38.894-1.676Zm0,0" transform="translate(-181.505 -164.674)" fill="#dfdfdf"/><path d="M393.8,300.091a9.2,9.2,0,0,1,13.014,0l24.04,24.038a28.636,28.636,0,0,1,7.9,14.848,28.762,28.762,0,0,0-7.9-25.907l-24.04-24.036a9.2,9.2,0,0,0-13.852,12.035,9.271,9.271,0,0,1,.838-.978Zm0,0" transform="translate(-224.93 -164.674)" fill="#dfdfdf"/><path d="M324,429.69a15.743,15.743,0,0,1,17.7,3.18,8.892,8.892,0,0,0,12.577,0l18.114-18.111a8.892,8.892,0,0,0,.672-11.817,9.3,9.3,0,0,1-.672.76L354.28,421.813a8.9,8.9,0,0,1-12.577,0l-8.068-8.066q-3.538,2.089-7.22,3.806a84.574,84.574,0,0,1-10.813,4.189l8.09,8.086C323.761,429.8,323.865,429.752,324,429.69Zm0,0" transform="translate(-181.505 -231.734)" fill="#dfdfdf"/><path d="M417.035,421.426l5.91-5.909a9.5,9.5,0,0,1,13.429,0l11.593,11.592a9.5,9.5,0,0,1,0,13.431l-5.91,5.909a9.5,9.5,0,0,1-13.429,0l-11.593-11.592A9.5,9.5,0,0,1,417.035,421.426Zm0,0" transform="translate(-238.241 -237.367)" fill="#dfdfdf"/><path d="M432.228,436.617l5.91-5.909a9.5,9.5,0,0,1,13.429,0l5.139,5.137a9.5,9.5,0,0,1,0,13.431l-5.91,5.909a9.5,9.5,0,0,1-13.429,0l-5.139-5.137A9.5,9.5,0,0,1,432.228,436.617Zm0,0" transform="translate(-246.979 -246.104)" fill="#dfdfdf"/><path d="M86.043,45.764q-3.69,1.72-7.22,3.811A84.615,84.615,0,0,0,63.585,61.1c-.554.516-1.1,1.044-1.637,1.585-.217.217-.43.43-.644.652-.745.767-1.479,1.542-2.186,2.327a84.92,84.92,0,0,0-10.8,14.785q-1.944,3.393-3.555,6.911L23.308,65.91l41.44-41.437Zm0,0" transform="translate(-13.405 -14.074)" fill="#dfdfdf"/><path d="M72.658,17.764,87.765,32.869a84.316,84.316,0,0,0-10.813,4.188q-3.685,1.715-7.22,3.807L61.664,32.8a8.9,8.9,0,0,0-12.577,0L30.972,50.909a8.893,8.893,0,0,0,0,12.576L52.992,85.5A9.2,9.2,0,0,1,39.978,98.517L15.938,74.479A28.8,28.8,0,0,1,14.41,35.405c.486-.563.994-1.114,1.529-1.646L31.933,17.764c.589-.588,1.2-1.152,1.831-1.676a28.793,28.793,0,0,1,38.894,1.676Zm0,0" transform="translate(-4.316 -5.365)" fill="#dfdfdf"/><path d="M59.22,135.216a8.957,8.957,0,0,1-.968-1.162,8.888,8.888,0,0,0,.968,11.414l22.02,22.018a9.265,9.265,0,0,1,1.134,1.381,9.2,9.2,0,0,0-1.134-11.633Zm0,0" transform="translate(-32.564 -77.095)" fill="#dfdfdf"/><path d="M14.412,45.659q.729-.846,1.529-1.648L31.936,28.018c.589-.589,1.2-1.152,1.829-1.676a28.793,28.793,0,0,1,38.9,1.676L80.246,35.6q3.709-1.549,7.52-2.734L72.661,17.764a28.793,28.793,0,0,0-38.894-1.676c-.627.524-1.241,1.089-1.831,1.676L15.941,33.759c-.534.533-1.042,1.084-1.529,1.646A28.769,28.769,0,0,0,7.968,59.252a28.637,28.637,0,0,1,6.445-13.593Zm0,0" transform="translate(-4.318 -5.365)" fill="#dfdfdf"/><path d="M45.571,41.1l-5.91,5.909a9.5,9.5,0,0,1-13.429,0L14.638,35.413a9.5,9.5,0,0,1,0-13.432l5.91-5.907a9.493,9.493,0,0,1,13.429,0L45.571,27.666a9.5,9.5,0,0,1,0,13.431Zm0,0" transform="translate(-6.82 -7.644)" fill="#dfdfdf"/><path d="M38.145,33.672l-5.91,5.909a9.5,9.5,0,0,1-13.429,0l-4.169-4.168a9.5,9.5,0,0,1,0-13.432l5.909-5.907a9.5,9.5,0,0,1,13.431,0l4.169,4.168a9.5,9.5,0,0,1,0,13.431Zm0,0" transform="translate(-6.818 -7.644)" fill="#dfdfdf"/><path d="M158.125,310.344l-15.638,13.864a2.8,2.8,0,0,1-3.947-.239L132.361,317l-4.241-4.782-6.513-7.348a2.791,2.791,0,0,1,.239-3.942l15.641-13.864a2.792,2.792,0,0,1,3.942.239l6.385,7.2,4.241,4.787,6.309,7.112a2.8,2.8,0,0,1-.239,3.947Zm0,0" transform="translate(-69.534 -164.687)" fill="#dfdfdf"/><path d="M331.939,161.307l-22.433,19.884a3.284,3.284,0,0,1-4.634-.279l-16.284-18.368a3.283,3.283,0,0,1,.279-4.634L311.3,138.026a3.279,3.279,0,0,1,4.632.279l16.285,18.368a3.283,3.283,0,0,1-.28,4.634Zm0,0" transform="translate(-165.495 -78.904)" fill="#dfdfdf"/><path d="M212.77,317.279a31.981,31.981,0,0,0-3.515-41.055l-14.217-14.217a88.077,88.077,0,0,0,2.553-32.991,3.186,3.186,0,1,0-6.334.7,81.725,81.725,0,0,1-1.48,27.024l-4.561-4.561A12.39,12.39,0,1,0,167.693,269.7l11.973,11.968a82.1,82.1,0,0,1-61.7,38.657,81.374,81.374,0,0,1-26.029-1.565l4.568-4.568a12.389,12.389,0,0,0-17.523-17.519L67,308.665a82.549,82.549,0,0,1-27.558-27.884c-.033-.068-.058-.139-.1-.2-1.349-2.287-2.581-4.624-3.666-6.959a80.929,80.929,0,0,1-4.03-10.4,3.242,3.242,0,0,0-.186-.456,81.818,81.818,0,0,1-3.235-31.391,3.186,3.186,0,1,0-6.347-.574,88.113,88.113,0,0,0,3.089,32.493L11.243,277.015a31.969,31.969,0,0,0-3.651,40.859l-.319.319a12.682,12.682,0,0,0,0,17.938l5.909,5.909a12.694,12.694,0,0,0,17.935,0l.285-.286a31.764,31.764,0,0,0,18.4,5.857,32.421,32.421,0,0,0,5.9-.543,3.187,3.187,0,0,0-1.158-6.267A25.507,25.507,0,0,1,36,337.161l6.712-6.712a12.6,12.6,0,0,0,3.334-5.867A12.1,12.1,0,0,0,61.472,323.2l8.256-8.254.017-.017L83.49,301.186a6.03,6.03,0,0,1,8.514,0,6.016,6.016,0,0,1,0,8.5l-8.5,8.5c-.013.012-.023.023-.035.035L67.96,333.73a26.07,26.07,0,0,1-2.69,2.345,3.186,3.186,0,1,0,3.844,5.082,32.1,32.1,0,0,0,3.353-2.921l7.592-7.59,6.62-6.619a88.252,88.252,0,0,0,47.568-.368l13.781,13.786a31.887,31.887,0,0,0,21.326,9.341q.65.028,1.3.027a31.85,31.85,0,0,0,18.242-5.721l.322.322a12.7,12.7,0,0,0,17.935,0l5.909-5.909a12.68,12.68,0,0,0,0-17.937ZM8.265,298.6a25.531,25.531,0,0,1,7.482-17.074l11.464-11.462A87.746,87.746,0,0,0,32.6,281.684l-6.327,6.325a12.088,12.088,0,0,0-1.5,15.258,12.611,12.611,0,0,0-5.907,3.334l-6.679,6.679A25.51,25.51,0,0,1,8.265,298.6ZM38.2,325.943,28.941,335.2s0,0,0,0l-2.327,2.327a6.319,6.319,0,0,1-8.924,0l-5.909-5.909a6.309,6.309,0,0,1,0-8.924l2.279-2.279a.313.313,0,0,0,.023-.023l9.291-9.29a6.313,6.313,0,0,1,8.9-.017l5.645,5.641.284.284a6.313,6.313,0,0,1,0,8.924Zm18.762-7.248a5.7,5.7,0,0,1-8.07,0l-6.154-6.153s-.032-.03-.032-.032l-2.752-2.752L36.8,306.6l-.022-.02-6-6a5.7,5.7,0,0,1,0-8.07l5.23-5.23a88.814,88.814,0,0,0,9.864,12.4l-1.638,1.638a3.187,3.187,0,0,0,4.508,4.506l1.691-1.691a88.464,88.464,0,0,0,11.942,9.143ZM172.2,256.686a6.025,6.025,0,0,1,8.508,0l24.04,24.041a25.743,25.743,0,0,1,3.429,31.957l-6.712-6.712a12.621,12.621,0,0,0-5.867-3.324,12.078,12.078,0,0,0-1.378-15.436L172.2,265.2a6.026,6.026,0,0,1,0-8.511Zm-1.522,46.1,1.66,1.66a3.187,3.187,0,1,0,4.506-4.508l-1.716-1.716a88.706,88.706,0,0,0,9.153-11.935l5.432,5.431a5.706,5.706,0,0,1,0,8.07l-6.169,6.169-.017.015-5.909,5.909a.158.158,0,0,0-.017.017l-6,6a5.718,5.718,0,0,1-8.073,0l-5.266-5.268a88.284,88.284,0,0,0,12.417-9.846Zm-1.072,37.63a25.537,25.537,0,0,1-17.074-7.48l-11.5-11.5c2.134-.8,4.241-1.69,6.3-2.654,1.789-.835,3.578-1.748,5.339-2.722l6.347,6.345a12.1,12.1,0,0,0,15.251,1.5,12.613,12.613,0,0,0,3.344,5.909l6.675,6.674a25.553,25.553,0,0,1-14.687,3.924ZM208.551,331l-5.91,5.909a6.315,6.315,0,0,1-8.923,0l-11.592-11.592a6.307,6.307,0,0,1-.008-8.914l5.925-5.925a6.317,6.317,0,0,1,8.915.007l9.318,9.318a0,0,0,0,1,0,0l2.272,2.271a6.309,6.309,0,0,1,0,8.924Zm0,0" transform="translate(-1.078 -130.078)" fill="#dfdfdf"/><path d="M33.411,95.4A12.389,12.389,0,0,0,50.93,77.882L38.9,65.857A82.15,82.15,0,0,1,49.886,51.741a3.436,3.436,0,0,0,.262-.234,3.19,3.19,0,0,0,.285-.334l.377-.382a82.253,82.253,0,0,1,15.754-12.32,3.225,3.225,0,0,0,.476-.231c2.267-1.339,4.6-2.573,6.949-3.666a81.544,81.544,0,0,1,10.4-4.028,3.132,3.132,0,0,0,.531-.226,81.866,81.866,0,0,1,41.832-1.532l-4.619,4.619a12.386,12.386,0,0,0,17.517,17.517l12.012-12.01A82.582,82.582,0,0,1,179.8,67.884a119.533,119.533,0,0,1,7.109,16.154,3.13,3.13,0,0,0,.216.685.043.043,0,0,1,0,.012c.641,2.116,1.909,1.89,2.91,1.89h0a3.185,3.185,0,0,0,2.251-.933l15.109-15.1a31.974,31.974,0,0,0,3.65-40.861l.319-.319a12.684,12.684,0,0,0,0-17.937l-5.909-5.909a12.7,12.7,0,0,0-17.937,0l-.285.285a31.993,31.993,0,0,0-41.064,3.519L132.013,23.529a88.233,88.233,0,0,0-47.707.329L70.594,10.143A31.981,31.981,0,0,0,29.73,6.5l-.319-.32a12.7,12.7,0,0,0-17.937,0L5.568,12.084a12.68,12.68,0,0,0,0,17.937l.287.287A31.98,31.98,0,0,0,9.368,71.364ZM175.8,34.96c.043.043.086.09.131.133l11.928,11.924a5.7,5.7,0,0,1,0,8.071l-5.24,5.24a88.85,88.85,0,0,0-9.852-12.411l1.638-1.637a3.186,3.186,0,0,0-4.506-4.506l-1.685,1.685a88.4,88.4,0,0,0-11.93-9.158l5.391-5.391a5.717,5.717,0,0,1,8.075,0Zm34.577,14.05a25.518,25.518,0,0,1-7.48,17.072L191.347,77.625a114.2,114.2,0,0,0-5.341-11.671l6.357-6.358a12.086,12.086,0,0,0,1.505-15.258A12.6,12.6,0,0,0,199.776,41l6.677-6.677a25.5,25.5,0,0,1,3.922,14.685ZM196.492,8.225a6.289,6.289,0,0,1,4.461,1.846l5.91,5.909a6.313,6.313,0,0,1,0,8.924l-2.319,2.319a.223.223,0,0,0-.02.02L195.27,36.5a6.317,6.317,0,0,1-8.923,0l-5.909-5.909a6.317,6.317,0,0,1,0-8.924L192.03,10.07a6.282,6.282,0,0,1,4.461-1.846Zm-45.81,5.648a25.748,25.748,0,0,1,31.963-3.429l-6.714,6.712a12.6,12.6,0,0,0-3.326,5.87A12.1,12.1,0,0,0,157.168,24.4L135.15,46.419a6.024,6.024,0,0,1-8.509,0,6.01,6.01,0,0,1,0-8.5ZM28.912,55.866a5.706,5.706,0,0,1,0-8.07L47.026,29.685a5.713,5.713,0,0,1,8.071,0l5.2,5.2a88.872,88.872,0,0,0-12.41,9.857l-1.608-1.608a3.187,3.187,0,0,0-4.506,4.508L43.434,49.3a88.324,88.324,0,0,0-9.148,11.94Zm20.1-48.7A25.526,25.526,0,0,1,66.09,14.65L77.539,26.1A88.107,88.107,0,0,0,65.91,31.484L59.6,25.177a12.1,12.1,0,0,0-15.253-1.5A12.6,12.6,0,0,0,41,17.767l-6.677-6.675A25.518,25.518,0,0,1,49.014,7.169ZM10.074,16.59l5.909-5.909a6.321,6.321,0,0,1,8.924,0l2.309,2.31c.012.01.023.023.035.033l9.25,9.248a6.313,6.313,0,0,1,0,8.924l-5.91,5.909a6.317,6.317,0,0,1-8.924,0L10.074,25.514a6.309,6.309,0,0,1,0-8.924ZM10.449,34.9l6.71,6.71a12.615,12.615,0,0,0,5.869,3.326,12.076,12.076,0,0,0,1.378,15.434L46.424,82.389A6.016,6.016,0,0,1,37.917,90.9L13.874,66.857A25.734,25.734,0,0,1,10.449,34.9Zm0,0" transform="translate(-0.001 0.001)" fill="#dfdfdf"/><g transform="translate(60.825 100.366) rotate(-43)"><path d="M4.022,0H57.475A4.022,4.022,0,0,1,61.5,4.022V70.713a4.022,4.022,0,0,1-4.022,4.022H4.022A4.022,4.022,0,0,1,0,70.713V4.022A4.022,4.022,0,0,1,4.022,0Z" transform="translate(0 0)" fill="#dfdfdf"/><path d="M0,0H53.454V61.664H0Z" transform="translate(4.022 4.022)" fill="#dfdfdf"/><circle cx="2.24" cy="2.24" r="2.24" transform="translate(28.508 67.907)" fill="#dfdfdf"/><g transform="translate(7.372 4.022)"><path d="M1.927,61.664H0L31.167,0h1.927Z" transform="translate(0 0)" fill="#dfdfdf" opacity="0.5"/><path d="M9.221,61.664H0L31.167,0h9.221Z" transform="translate(6.365 0)" fill="#dfdfdf" opacity="0.5"/></g></g></g><g transform="translate(1434.122 474)"><path d="M200.912,200.866a85.118,85.118,0,1,1,0-120.371A85.13,85.13,0,0,1,200.912,200.866Zm0,0" transform="translate(-31.976 -31.955)" fill="#ffe29f"/><path d="M219.027,95.733a85.2,85.2,0,0,0-17.852-13.671A85.135,85.135,0,0,1,87.1,201.754,85.124,85.124,0,1,0,219.027,95.733Zm0,0" transform="translate(-50.091 -47.194)" fill="#fed36f"/><path d="M402.4,64.745,381.105,86.037q-1.713-3.687-3.806-7.223a85.143,85.143,0,0,0-11.529-15.231q-.774-.824-1.587-1.637c-.213-.217-.43-.435-.652-.644-.762-.745-1.539-1.479-2.322-2.191a85.043,85.043,0,0,0-14.79-10.8q-3.4-1.944-6.913-3.555l21.45-21.449Zm0,0" transform="translate(-195.254 -13.404)" fill="#162937"/><path d="M369.861,72.651,354.754,87.756a84.3,84.3,0,0,0-4.187-10.812q-1.715-3.685-3.807-7.22l8.068-8.068a8.893,8.893,0,0,0,0-12.576L336.715,30.97a8.894,8.894,0,0,0-12.579,0l-22.02,22.018A9.2,9.2,0,1,1,289.1,39.974l24.04-24.038a28.8,28.8,0,0,1,39.077-1.529q.844.732,1.648,1.529l15.995,15.995c.589.589,1.152,1.2,1.678,1.829A28.787,28.787,0,0,1,369.861,72.651Zm0,0" transform="translate(-164.715 -4.314)" fill="#d684ff"/><path d="M289.108,50.547l24.04-24.036a28.8,28.8,0,0,1,39.077-1.529q.844.729,1.648,1.529L369.868,42.5c.589.589,1.152,1.2,1.678,1.829a28.618,28.618,0,0,1,6.269,13.236,28.752,28.752,0,0,0-6.269-23.809c-.526-.627-1.089-1.241-1.678-1.829L353.873,15.936q-.8-.8-1.648-1.529a28.8,28.8,0,0,0-39.077,1.529l-24.04,24.038a9.2,9.2,0,0,0-1.016,11.794,9.245,9.245,0,0,1,1.016-1.222Zm0,0" transform="translate(-164.722 -4.314)" fill="#c758fe"/><path d="M437.367,132.6a8.748,8.748,0,0,1-.85,1l-8.068,8.068q2,3.391,3.66,6.913l4.408-4.407A8.887,8.887,0,0,0,437.367,132.6Zm0,0" transform="translate(-246.405 -76.26)" fill="#c758fe"/><path d="M421.507,45.565,415.6,39.658a9.5,9.5,0,0,1,0-13.432L427.19,14.634a9.5,9.5,0,0,1,13.431,0l5.909,5.909a9.5,9.5,0,0,1,0,13.431L434.936,45.565a9.494,9.494,0,0,1-13.429,0Zm0,0" transform="translate(-237.414 -6.816)" fill="#fecbaa"/><path d="M436.7,39.109l-5.91-5.909a9.5,9.5,0,0,1,0-13.431l5.135-5.135a9.5,9.5,0,0,1,13.431,0l5.909,5.909a9.5,9.5,0,0,1,0,13.431l-5.135,5.135A9.5,9.5,0,0,1,436.7,39.109Zm0,0" transform="translate(-246.153 -6.816)" fill="#c97f4c"/><path d="M87.411,382.3,65.959,403.74,24.523,362.308l21.293-21.3q1.713,3.69,3.806,7.225a85.049,85.049,0,0,0,11.525,15.231q.774.824,1.585,1.636c.217.216.435.433.652.642.763.745,1.539,1.479,2.324,2.191a85.165,85.165,0,0,0,14.793,10.8c2.259,1.295,4.569,2.485,6.909,3.558Zm0,0" transform="translate(-14.104 -196.118)" fill="#162937"/><path d="M17.8,330.679l15.107-15.105A84.384,84.384,0,0,0,37.1,326.386q1.715,3.685,3.807,7.22l-8.068,8.066a8.9,8.9,0,0,0,0,12.578L50.953,372.36a8.892,8.892,0,0,0,12.577,0l22.02-22.018a9.2,9.2,0,0,1,13.014,13.012l-24.04,24.038a28.8,28.8,0,0,1-39.077,1.529q-.844-.729-1.648-1.529L17.8,371.4c-.589-.589-1.152-1.2-1.678-1.829A28.787,28.787,0,0,1,17.8,330.679Zm0,0" transform="translate(-5.389 -181.489)" fill="#d684ff"/><path d="M55.808,395.094l-.8.8a8.9,8.9,0,0,0,0,12.578l18.114,18.111a8.9,8.9,0,0,0,12.577,0l22.02-22.018a9.189,9.189,0,0,1,14.946,2.851l.649-.649A9.2,9.2,0,0,0,110.3,393.755l-22.02,22.018a8.892,8.892,0,0,1-12.577,0L57.587,397.662A8.87,8.87,0,0,1,55.808,395.094Zm0,0" transform="translate(-30.138 -224.901)" fill="#c758fe"/><path d="M15.256,341.489l6.669-6.667A7.791,7.791,0,0,1,34.5,337.091l.05.1q.443.949.91,1.889l5.48-5.479q-2.091-3.538-3.809-7.22a84.393,84.393,0,0,1-4.188-10.811L17.837,330.679a28.687,28.687,0,0,0-8.412,19.206,28.7,28.7,0,0,1,5.831-8.4Zm0,0" transform="translate(-5.421 -181.488)" fill="#c758fe"/><path d="M41.139,416.994l5.909,5.909a9.5,9.5,0,0,1,0,13.431L35.455,447.927a9.5,9.5,0,0,1-13.429,0l-5.909-5.909a9.5,9.5,0,0,1,0-13.432l11.592-11.592A9.5,9.5,0,0,1,41.139,416.994Zm0,0" transform="translate(-7.669 -238.217)" fill="#fecbaa"/><path d="M34.759,432.009l5.91,5.909a9.5,9.5,0,0,1,0,13.431l-5.215,5.213a9.5,9.5,0,0,1-13.429,0l-5.909-5.909a9.5,9.5,0,0,1,0-13.432l5.213-5.212A9.5,9.5,0,0,1,34.759,432.009Zm0,0" transform="translate(-7.67 -246.852)" fill="#c97f4c"/><path d="M403.782,360.888l-41.437,41.435L341.05,381.032q3.682-1.718,7.222-3.809A84.753,84.753,0,0,0,363.508,365.7c.549-.515,1.1-1.047,1.631-1.585.217-.217.435-.43.649-.652.745-.762,1.479-1.539,2.186-2.322a84.961,84.961,0,0,0,10.8-14.788q1.944-3.4,3.558-6.913Zm0,0" transform="translate(-196.141 -195.213)" fill="#4f7693"/><path d="M330.708,369.785l-15.107-15.1a84.561,84.561,0,0,0,10.813-4.189q3.685-1.715,7.22-3.807l8.068,8.068a8.9,8.9,0,0,0,12.577,0l18.114-18.111a8.9,8.9,0,0,0,0-12.577l-22.02-22.018a9.2,9.2,0,1,1,13.014-13.012l12.992,12.99,11.048,11.047a28.8,28.8,0,0,1,1.529,39.074q-.729.846-1.529,1.648l-16,15.993c-.589.589-1.2,1.152-1.829,1.676a28.791,28.791,0,0,1-38.894-1.676Zm0,0" transform="translate(-181.505 -164.674)" fill="#0affa3"/><path d="M393.8,300.091a9.2,9.2,0,0,1,13.014,0l24.04,24.038a28.636,28.636,0,0,1,7.9,14.848,28.762,28.762,0,0,0-7.9-25.907l-24.04-24.036a9.2,9.2,0,0,0-13.852,12.035,9.271,9.271,0,0,1,.838-.978Zm0,0" transform="translate(-224.93 -164.674)" fill="#00e891"/><path d="M324,429.69a15.743,15.743,0,0,1,17.7,3.18,8.892,8.892,0,0,0,12.577,0l18.114-18.111a8.892,8.892,0,0,0,.672-11.817,9.3,9.3,0,0,1-.672.76L354.28,421.813a8.9,8.9,0,0,1-12.577,0l-8.068-8.066q-3.538,2.089-7.22,3.806a84.574,84.574,0,0,1-10.813,4.189l8.09,8.086C323.761,429.8,323.865,429.752,324,429.69Zm0,0" transform="translate(-181.505 -231.734)" fill="#00e891"/><path d="M417.035,421.426l5.91-5.909a9.5,9.5,0,0,1,13.429,0l11.593,11.592a9.5,9.5,0,0,1,0,13.431l-5.91,5.909a9.5,9.5,0,0,1-13.429,0l-11.593-11.592A9.5,9.5,0,0,1,417.035,421.426Zm0,0" transform="translate(-238.241 -237.367)" fill="#fecbaa"/><path d="M432.228,436.617l5.91-5.909a9.5,9.5,0,0,1,13.429,0l5.139,5.137a9.5,9.5,0,0,1,0,13.431l-5.91,5.909a9.5,9.5,0,0,1-13.429,0l-5.139-5.137A9.5,9.5,0,0,1,432.228,436.617Zm0,0" transform="translate(-246.979 -246.104)" fill="#c97f4c"/><path d="M86.043,45.764q-3.69,1.72-7.22,3.811A84.615,84.615,0,0,0,63.585,61.1c-.554.516-1.1,1.044-1.637,1.585-.217.217-.43.43-.644.652-.745.767-1.479,1.542-2.186,2.327a84.92,84.92,0,0,0-10.8,14.785q-1.944,3.393-3.555,6.911L23.308,65.91l41.44-41.437Zm0,0" transform="translate(-13.405 -14.074)" fill="#162937"/><path d="M72.658,17.764,87.765,32.869a84.316,84.316,0,0,0-10.813,4.188q-3.685,1.715-7.22,3.807L61.664,32.8a8.9,8.9,0,0,0-12.577,0L30.972,50.909a8.893,8.893,0,0,0,0,12.576L52.992,85.5A9.2,9.2,0,0,1,39.978,98.517L15.938,74.479A28.8,28.8,0,0,1,14.41,35.405c.486-.563.994-1.114,1.529-1.646L31.933,17.764c.589-.588,1.2-1.152,1.831-1.676a28.793,28.793,0,0,1,38.894,1.676Zm0,0" transform="translate(-4.316 -5.365)" fill="#0affa3"/><path d="M59.22,135.216a8.957,8.957,0,0,1-.968-1.162,8.888,8.888,0,0,0,.968,11.414l22.02,22.018a9.265,9.265,0,0,1,1.134,1.381,9.2,9.2,0,0,0-1.134-11.633Zm0,0" transform="translate(-32.564 -77.095)" fill="#00e891"/><path d="M14.412,45.659q.729-.846,1.529-1.648L31.936,28.018c.589-.589,1.2-1.152,1.829-1.676a28.793,28.793,0,0,1,38.9,1.676L80.246,35.6q3.709-1.549,7.52-2.734L72.661,17.764a28.793,28.793,0,0,0-38.894-1.676c-.627.524-1.241,1.089-1.831,1.676L15.941,33.759c-.534.533-1.042,1.084-1.529,1.646A28.769,28.769,0,0,0,7.968,59.252a28.637,28.637,0,0,1,6.445-13.593Zm0,0" transform="translate(-4.318 -5.365)" fill="#00e891"/><path d="M45.571,41.1l-5.91,5.909a9.5,9.5,0,0,1-13.429,0L14.638,35.413a9.5,9.5,0,0,1,0-13.432l5.91-5.907a9.493,9.493,0,0,1,13.429,0L45.571,27.666a9.5,9.5,0,0,1,0,13.431Zm0,0" transform="translate(-6.82 -7.644)" fill="#fecbaa"/><path d="M38.145,33.672l-5.91,5.909a9.5,9.5,0,0,1-13.429,0l-4.169-4.168a9.5,9.5,0,0,1,0-13.432l5.909-5.907a9.5,9.5,0,0,1,13.431,0l4.169,4.168a9.5,9.5,0,0,1,0,13.431Zm0,0" transform="translate(-6.818 -7.644)" fill="#c97f4c"/><path d="M158.125,310.344l-15.638,13.864a2.8,2.8,0,0,1-3.947-.239L132.361,317l-4.241-4.782-6.513-7.348a2.791,2.791,0,0,1,.239-3.942l15.641-13.864a2.792,2.792,0,0,1,3.942.239l6.385,7.2,4.241,4.787,6.309,7.112a2.8,2.8,0,0,1-.239,3.947Zm0,0" transform="translate(-69.534 -164.687)" fill="#ffe29f"/><path d="M331.939,161.307l-22.433,19.884a3.284,3.284,0,0,1-4.634-.279l-16.284-18.368a3.283,3.283,0,0,1,.279-4.634L311.3,138.026a3.279,3.279,0,0,1,4.632.279l16.285,18.368a3.283,3.283,0,0,1-.28,4.634Zm0,0" transform="translate(-165.495 -78.904)" fill="#ffe29f"/><g transform="translate(75.355 103.938) rotate(-43)"><path d="M2.576,0H36.805a2.576,2.576,0,0,1,2.576,2.576V45.282a2.576,2.576,0,0,1-2.576,2.576H2.576A2.576,2.576,0,0,1,0,45.282V2.576A2.576,2.576,0,0,1,2.576,0Z" transform="translate(0 0)" fill="#2c2d34"/><path d="M0,0H34.23V39.488H0Z" transform="translate(2.576 2.576)" fill="#69b0ee"/><circle cx="1.435" cy="1.435" r="1.435" transform="translate(18.256 43.485)" fill="#828a9e"/><g transform="translate(4.721 2.576)"><path d="M1.234,39.488H0L19.958,0h1.234Z" transform="translate(0 0)" fill="#eeefee" opacity="0.5"/><path d="M5.9,39.488H0L19.958,0h5.9Z" transform="translate(4.076 0)" fill="#eeefee" opacity="0.5"/></g></g></g></g><g transform="translate(480.823 -344.807) rotate(21)"><g transform="translate(1439.65 476.544)"><path d="M200.912,200.866a85.118,85.118,0,1,1,0-120.371A85.13,85.13,0,0,1,200.912,200.866Zm0,0" transform="translate(-31.976 -31.955)" fill="#dfdfdf"/><path d="M219.027,95.733a85.2,85.2,0,0,0-17.852-13.671A85.135,85.135,0,0,1,87.1,201.754,85.124,85.124,0,1,0,219.027,95.733Zm0,0" transform="translate(-50.091 -47.194)" fill="#dfdfdf"/><path d="M402.4,64.745,381.105,86.037q-1.713-3.687-3.806-7.223a85.143,85.143,0,0,0-11.529-15.231q-.774-.824-1.587-1.637c-.213-.217-.43-.435-.652-.644-.762-.745-1.539-1.479-2.322-2.191a85.043,85.043,0,0,0-14.79-10.8q-3.4-1.944-6.913-3.555l21.45-21.449Zm0,0" transform="translate(-195.254 -13.404)" fill="#dfdfdf"/><path d="M369.861,72.651,354.754,87.756a84.3,84.3,0,0,0-4.187-10.812q-1.715-3.685-3.807-7.22l8.068-8.068a8.893,8.893,0,0,0,0-12.576L336.715,30.97a8.894,8.894,0,0,0-12.579,0l-22.02,22.018A9.2,9.2,0,1,1,289.1,39.974l24.04-24.038a28.8,28.8,0,0,1,39.077-1.529q.844.732,1.648,1.529l15.995,15.995c.589.589,1.152,1.2,1.678,1.829A28.787,28.787,0,0,1,369.861,72.651Zm0,0" transform="translate(-164.715 -4.314)" fill="#dfdfdf"/><path d="M289.108,50.547l24.04-24.036a28.8,28.8,0,0,1,39.077-1.529q.844.729,1.648,1.529L369.868,42.5c.589.589,1.152,1.2,1.678,1.829a28.618,28.618,0,0,1,6.269,13.236,28.752,28.752,0,0,0-6.269-23.809c-.526-.627-1.089-1.241-1.678-1.829L353.873,15.936q-.8-.8-1.648-1.529a28.8,28.8,0,0,0-39.077,1.529l-24.04,24.038a9.2,9.2,0,0,0-1.016,11.794,9.245,9.245,0,0,1,1.016-1.222Zm0,0" transform="translate(-164.722 -4.314)" fill="#dfdfdf"/><path d="M437.367,132.6a8.748,8.748,0,0,1-.85,1l-8.068,8.068q2,3.391,3.66,6.913l4.408-4.407A8.887,8.887,0,0,0,437.367,132.6Zm0,0" transform="translate(-246.405 -76.26)" fill="#dfdfdf"/><path d="M421.507,45.565,415.6,39.658a9.5,9.5,0,0,1,0-13.432L427.19,14.634a9.5,9.5,0,0,1,13.431,0l5.909,5.909a9.5,9.5,0,0,1,0,13.431L434.936,45.565a9.494,9.494,0,0,1-13.429,0Zm0,0" transform="translate(-237.414 -6.816)" fill="#dfdfdf"/><path d="M436.7,39.109l-5.91-5.909a9.5,9.5,0,0,1,0-13.431l5.135-5.135a9.5,9.5,0,0,1,13.431,0l5.909,5.909a9.5,9.5,0,0,1,0,13.431l-5.135,5.135A9.5,9.5,0,0,1,436.7,39.109Zm0,0" transform="translate(-246.153 -6.816)" fill="#dfdfdf"/><path d="M87.411,382.3,65.959,403.74,24.523,362.308l21.293-21.3q1.713,3.69,3.806,7.225a85.049,85.049,0,0,0,11.525,15.231q.774.824,1.585,1.636c.217.216.435.433.652.642.763.745,1.539,1.479,2.324,2.191a85.165,85.165,0,0,0,14.793,10.8c2.259,1.295,4.569,2.485,6.909,3.558Zm0,0" transform="translate(-14.104 -196.118)" fill="#dfdfdf"/><path d="M17.8,330.679l15.107-15.105A84.384,84.384,0,0,0,37.1,326.386q1.715,3.685,3.807,7.22l-8.068,8.066a8.9,8.9,0,0,0,0,12.578L50.953,372.36a8.892,8.892,0,0,0,12.577,0l22.02-22.018a9.2,9.2,0,0,1,13.014,13.012l-24.04,24.038a28.8,28.8,0,0,1-39.077,1.529q-.844-.729-1.648-1.529L17.8,371.4c-.589-.589-1.152-1.2-1.678-1.829A28.787,28.787,0,0,1,17.8,330.679Zm0,0" transform="translate(-5.389 -181.489)" fill="#dfdfdf"/><path d="M55.808,395.094l-.8.8a8.9,8.9,0,0,0,0,12.578l18.114,18.111a8.9,8.9,0,0,0,12.577,0l22.02-22.018a9.189,9.189,0,0,1,14.946,2.851l.649-.649A9.2,9.2,0,0,0,110.3,393.755l-22.02,22.018a8.892,8.892,0,0,1-12.577,0L57.587,397.662A8.87,8.87,0,0,1,55.808,395.094Zm0,0" transform="translate(-30.138 -224.901)" fill="#dfdfdf"/><path d="M15.256,341.489l6.669-6.667A7.791,7.791,0,0,1,34.5,337.091l.05.1q.443.949.91,1.889l5.48-5.479q-2.091-3.538-3.809-7.22a84.393,84.393,0,0,1-4.188-10.811L17.837,330.679a28.687,28.687,0,0,0-8.412,19.206,28.7,28.7,0,0,1,5.831-8.4Zm0,0" transform="translate(-5.421 -181.488)" fill="#dfdfdf"/><path d="M41.139,416.994l5.909,5.909a9.5,9.5,0,0,1,0,13.431L35.455,447.927a9.5,9.5,0,0,1-13.429,0l-5.909-5.909a9.5,9.5,0,0,1,0-13.432l11.592-11.592A9.5,9.5,0,0,1,41.139,416.994Zm0,0" transform="translate(-7.669 -238.217)" fill="#dfdfdf"/><path d="M34.759,432.009l5.91,5.909a9.5,9.5,0,0,1,0,13.431l-5.215,5.213a9.5,9.5,0,0,1-13.429,0l-5.909-5.909a9.5,9.5,0,0,1,0-13.432l5.213-5.212A9.5,9.5,0,0,1,34.759,432.009Zm0,0" transform="translate(-7.67 -246.852)" fill="#dfdfdf"/><path d="M403.782,360.888l-41.437,41.435L341.05,381.032q3.682-1.718,7.222-3.809A84.753,84.753,0,0,0,363.508,365.7c.549-.515,1.1-1.047,1.631-1.585.217-.217.435-.43.649-.652.745-.762,1.479-1.539,2.186-2.322a84.961,84.961,0,0,0,10.8-14.788q1.944-3.4,3.558-6.913Zm0,0" transform="translate(-196.141 -195.213)" fill="#dfdfdf"/><path d="M330.708,369.785l-15.107-15.1a84.561,84.561,0,0,0,10.813-4.189q3.685-1.715,7.22-3.807l8.068,8.068a8.9,8.9,0,0,0,12.577,0l18.114-18.111a8.9,8.9,0,0,0,0-12.577l-22.02-22.018a9.2,9.2,0,1,1,13.014-13.012l24.04,24.036a28.8,28.8,0,0,1,1.529,39.074q-.729.846-1.529,1.648l-16,15.993c-.589.589-1.2,1.152-1.829,1.676a28.791,28.791,0,0,1-38.894-1.676Zm0,0" transform="translate(-181.505 -164.674)" fill="#dfdfdf"/><path d="M393.8,300.091a9.2,9.2,0,0,1,13.014,0l24.04,24.038a28.636,28.636,0,0,1,7.9,14.848,28.762,28.762,0,0,0-7.9-25.907l-24.04-24.036a9.2,9.2,0,0,0-13.852,12.035,9.271,9.271,0,0,1,.838-.978Zm0,0" transform="translate(-224.93 -164.674)" fill="#dfdfdf"/><path d="M324,429.69a15.743,15.743,0,0,1,17.7,3.18,8.892,8.892,0,0,0,12.577,0l18.114-18.111a8.892,8.892,0,0,0,.672-11.817,9.3,9.3,0,0,1-.672.76L354.28,421.813a8.9,8.9,0,0,1-12.577,0l-8.068-8.066q-3.538,2.089-7.22,3.806a84.574,84.574,0,0,1-10.813,4.189l8.09,8.086C323.761,429.8,323.865,429.752,324,429.69Zm0,0" transform="translate(-181.505 -231.734)" fill="#dfdfdf"/><path d="M417.035,421.426l5.91-5.909a9.5,9.5,0,0,1,13.429,0l11.593,11.592a9.5,9.5,0,0,1,0,13.431l-5.91,5.909a9.5,9.5,0,0,1-13.429,0l-11.593-11.592A9.5,9.5,0,0,1,417.035,421.426Zm0,0" transform="translate(-238.241 -237.367)" fill="#dfdfdf"/><path d="M432.228,436.617l5.91-5.909a9.5,9.5,0,0,1,13.429,0l5.139,5.137a9.5,9.5,0,0,1,0,13.431l-5.91,5.909a9.5,9.5,0,0,1-13.429,0l-5.139-5.137A9.5,9.5,0,0,1,432.228,436.617Zm0,0" transform="translate(-246.979 -246.104)" fill="#dfdfdf"/><path d="M86.043,45.764q-3.69,1.72-7.22,3.811A84.615,84.615,0,0,0,63.585,61.1c-.554.516-1.1,1.044-1.637,1.585-.217.217-.43.43-.644.652-.745.767-1.479,1.542-2.186,2.327a84.92,84.92,0,0,0-10.8,14.785q-1.944,3.393-3.555,6.911L23.308,65.91l41.44-41.437Zm0,0" transform="translate(-13.405 -14.074)" fill="#dfdfdf"/><path d="M72.658,17.764,87.765,32.869a84.316,84.316,0,0,0-10.813,4.188q-3.685,1.715-7.22,3.807L61.664,32.8a8.9,8.9,0,0,0-12.577,0L30.972,50.909a8.893,8.893,0,0,0,0,12.576L52.992,85.5A9.2,9.2,0,0,1,39.978,98.517L15.938,74.479A28.8,28.8,0,0,1,14.41,35.405c.486-.563.994-1.114,1.529-1.646L31.933,17.764c.589-.588,1.2-1.152,1.831-1.676a28.793,28.793,0,0,1,38.894,1.676Zm0,0" transform="translate(-4.316 -5.365)" fill="#dfdfdf"/><path d="M59.22,135.216a8.957,8.957,0,0,1-.968-1.162,8.888,8.888,0,0,0,.968,11.414l22.02,22.018a9.265,9.265,0,0,1,1.134,1.381,9.2,9.2,0,0,0-1.134-11.633Zm0,0" transform="translate(-32.564 -77.095)" fill="#dfdfdf"/><path d="M14.412,45.659q.729-.846,1.529-1.648L31.936,28.018c.589-.589,1.2-1.152,1.829-1.676a28.793,28.793,0,0,1,38.9,1.676L80.246,35.6q3.709-1.549,7.52-2.734L72.661,17.764a28.793,28.793,0,0,0-38.894-1.676c-.627.524-1.241,1.089-1.831,1.676L15.941,33.759c-.534.533-1.042,1.084-1.529,1.646A28.769,28.769,0,0,0,7.968,59.252a28.637,28.637,0,0,1,6.445-13.593Zm0,0" transform="translate(-4.318 -5.365)" fill="#dfdfdf"/><path d="M45.571,41.1l-5.91,5.909a9.5,9.5,0,0,1-13.429,0L14.638,35.413a9.5,9.5,0,0,1,0-13.432l5.91-5.907a9.493,9.493,0,0,1,13.429,0L45.571,27.666a9.5,9.5,0,0,1,0,13.431Zm0,0" transform="translate(-6.82 -7.644)" fill="#dfdfdf"/><path d="M38.145,33.672l-5.91,5.909a9.5,9.5,0,0,1-13.429,0l-4.169-4.168a9.5,9.5,0,0,1,0-13.432l5.909-5.907a9.5,9.5,0,0,1,13.431,0l4.169,4.168a9.5,9.5,0,0,1,0,13.431Zm0,0" transform="translate(-6.818 -7.644)" fill="#dfdfdf"/><path d="M158.125,310.344l-15.638,13.864a2.8,2.8,0,0,1-3.947-.239L132.361,317l-4.241-4.782-6.513-7.348a2.791,2.791,0,0,1,.239-3.942l15.641-13.864a2.792,2.792,0,0,1,3.942.239l6.385,7.2,4.241,4.787,6.309,7.112a2.8,2.8,0,0,1-.239,3.947Zm0,0" transform="translate(-69.534 -164.687)" fill="#dfdfdf"/><path d="M331.939,161.307l-22.433,19.884a3.284,3.284,0,0,1-4.634-.279l-16.284-18.368a3.283,3.283,0,0,1,.279-4.634L311.3,138.026a3.279,3.279,0,0,1,4.632.279l16.285,18.368a3.283,3.283,0,0,1-.28,4.634Zm0,0" transform="translate(-165.495 -78.904)" fill="#dfdfdf"/><path d="M212.77,317.279a31.981,31.981,0,0,0-3.515-41.055l-14.217-14.217a88.077,88.077,0,0,0,2.553-32.991,3.186,3.186,0,1,0-6.334.7,81.725,81.725,0,0,1-1.48,27.024l-4.561-4.561A12.39,12.39,0,1,0,167.693,269.7l11.973,11.968a82.1,82.1,0,0,1-61.7,38.657,81.374,81.374,0,0,1-26.029-1.565l4.568-4.568a12.389,12.389,0,0,0-17.523-17.519L67,308.665a82.549,82.549,0,0,1-27.558-27.884c-.033-.068-.058-.139-.1-.2-1.349-2.287-2.581-4.624-3.666-6.959a80.929,80.929,0,0,1-4.03-10.4,3.242,3.242,0,0,0-.186-.456,81.818,81.818,0,0,1-3.235-31.391,3.186,3.186,0,1,0-6.347-.574,88.113,88.113,0,0,0,3.089,32.493L11.243,277.015a31.969,31.969,0,0,0-3.651,40.859l-.319.319a12.682,12.682,0,0,0,0,17.938l5.909,5.909a12.694,12.694,0,0,0,17.935,0l.285-.286a31.764,31.764,0,0,0,18.4,5.857,32.421,32.421,0,0,0,5.9-.543,3.187,3.187,0,0,0-1.158-6.267A25.507,25.507,0,0,1,36,337.161l6.712-6.712a12.6,12.6,0,0,0,3.334-5.867A12.1,12.1,0,0,0,61.472,323.2l8.256-8.254.017-.017L83.49,301.186a6.03,6.03,0,0,1,8.514,0,6.016,6.016,0,0,1,0,8.5l-8.5,8.5c-.013.012-.023.023-.035.035L67.96,333.73a26.07,26.07,0,0,1-2.69,2.345,3.186,3.186,0,1,0,3.844,5.082,32.1,32.1,0,0,0,3.353-2.921l7.592-7.59,6.62-6.619a88.252,88.252,0,0,0,47.568-.368l13.781,13.786a31.887,31.887,0,0,0,21.326,9.341q.65.028,1.3.027a31.85,31.85,0,0,0,18.242-5.721l.322.322a12.7,12.7,0,0,0,17.935,0l5.909-5.909a12.68,12.68,0,0,0,0-17.937ZM8.265,298.6a25.531,25.531,0,0,1,7.482-17.074l11.464-11.462A87.746,87.746,0,0,0,32.6,281.684l-6.327,6.325a12.088,12.088,0,0,0-1.5,15.258,12.611,12.611,0,0,0-5.907,3.334l-6.679,6.679A25.51,25.51,0,0,1,8.265,298.6ZM38.2,325.943,28.941,335.2s0,0,0,0l-2.327,2.327a6.319,6.319,0,0,1-8.924,0l-5.909-5.909a6.309,6.309,0,0,1,0-8.924l2.279-2.279a.313.313,0,0,0,.023-.023l9.291-9.29a6.313,6.313,0,0,1,8.9-.017l5.645,5.641.284.284a6.313,6.313,0,0,1,0,8.924Zm18.762-7.248a5.7,5.7,0,0,1-8.07,0l-6.154-6.153s-.032-.03-.032-.032l-2.752-2.752L36.8,306.6l-.022-.02-6-6a5.7,5.7,0,0,1,0-8.07l5.23-5.23a88.814,88.814,0,0,0,9.864,12.4l-1.638,1.638a3.187,3.187,0,0,0,4.508,4.506l1.691-1.691a88.464,88.464,0,0,0,11.942,9.143ZM172.2,256.686a6.025,6.025,0,0,1,8.508,0l24.04,24.041a25.743,25.743,0,0,1,3.429,31.957l-6.712-6.712a12.621,12.621,0,0,0-5.867-3.324,12.078,12.078,0,0,0-1.378-15.436L172.2,265.2a6.026,6.026,0,0,1,0-8.511Zm-1.522,46.1,1.66,1.66a3.187,3.187,0,1,0,4.506-4.508l-1.716-1.716a88.706,88.706,0,0,0,9.153-11.935l5.432,5.431a5.706,5.706,0,0,1,0,8.07l-6.169,6.169-.017.015-5.909,5.909a.158.158,0,0,0-.017.017l-6,6a5.718,5.718,0,0,1-8.073,0l-5.266-5.268a88.284,88.284,0,0,0,12.417-9.846Zm-1.072,37.63a25.537,25.537,0,0,1-17.074-7.48l-11.5-11.5c2.134-.8,4.241-1.69,6.3-2.654,1.789-.835,3.578-1.748,5.339-2.722l6.347,6.345a12.1,12.1,0,0,0,15.251,1.5,12.613,12.613,0,0,0,3.344,5.909l6.675,6.674a25.553,25.553,0,0,1-14.687,3.924ZM208.551,331l-5.91,5.909a6.315,6.315,0,0,1-8.923,0l-11.592-11.592a6.307,6.307,0,0,1-.008-8.914l5.925-5.925a6.317,6.317,0,0,1,8.915.007l9.318,9.318a0,0,0,0,1,0,0l2.272,2.271a6.309,6.309,0,0,1,0,8.924Zm0,0" transform="translate(-1.078 -130.078)" fill="#dfdfdf"/><path d="M33.411,95.4A12.389,12.389,0,0,0,50.93,77.882L38.9,65.857A82.15,82.15,0,0,1,49.886,51.741a3.436,3.436,0,0,0,.262-.234,3.19,3.19,0,0,0,.285-.334l.377-.382a82.253,82.253,0,0,1,15.754-12.32,3.225,3.225,0,0,0,.476-.231c2.267-1.339,4.6-2.573,6.949-3.666a81.544,81.544,0,0,1,10.4-4.028,3.132,3.132,0,0,0,.531-.226,81.866,81.866,0,0,1,41.832-1.532l-4.619,4.619a12.386,12.386,0,0,0,17.517,17.517l12.012-12.01A82.582,82.582,0,0,1,179.8,67.884a119.533,119.533,0,0,1,7.109,16.154,3.13,3.13,0,0,0,.216.685.043.043,0,0,1,0,.012c.641,2.116,1.909,1.89,2.91,1.89h0a3.185,3.185,0,0,0,2.251-.933l15.109-15.1a31.974,31.974,0,0,0,3.65-40.861l.319-.319a12.684,12.684,0,0,0,0-17.937l-5.909-5.909a12.7,12.7,0,0,0-17.937,0l-.285.285a31.993,31.993,0,0,0-41.064,3.519L132.013,23.529a88.233,88.233,0,0,0-47.707.329L70.594,10.143A31.981,31.981,0,0,0,29.73,6.5l-.319-.32a12.7,12.7,0,0,0-17.937,0L5.568,12.084a12.68,12.68,0,0,0,0,17.937l.287.287A31.98,31.98,0,0,0,9.368,71.364ZM175.8,34.96c.043.043.086.09.131.133l11.928,11.924a5.7,5.7,0,0,1,0,8.071l-5.24,5.24a88.85,88.85,0,0,0-9.852-12.411l1.638-1.637a3.186,3.186,0,0,0-4.506-4.506l-1.685,1.685a88.4,88.4,0,0,0-11.93-9.158l5.391-5.391a5.717,5.717,0,0,1,8.075,0Zm34.577,14.05a25.518,25.518,0,0,1-7.48,17.072L191.347,77.625a114.2,114.2,0,0,0-5.341-11.671l6.357-6.358a12.086,12.086,0,0,0,1.505-15.258A12.6,12.6,0,0,0,199.776,41l6.677-6.677a25.5,25.5,0,0,1,3.922,14.685ZM196.492,8.225a6.289,6.289,0,0,1,4.461,1.846l5.91,5.909a6.313,6.313,0,0,1,0,8.924l-2.319,2.319a.223.223,0,0,0-.02.02L195.27,36.5a6.317,6.317,0,0,1-8.923,0l-5.909-5.909a6.317,6.317,0,0,1,0-8.924L192.03,10.07a6.282,6.282,0,0,1,4.461-1.846Zm-45.81,5.648a25.748,25.748,0,0,1,31.963-3.429l-6.714,6.712a12.6,12.6,0,0,0-3.326,5.87A12.1,12.1,0,0,0,157.168,24.4L135.15,46.419a6.024,6.024,0,0,1-8.509,0,6.01,6.01,0,0,1,0-8.5ZM28.912,55.866a5.706,5.706,0,0,1,0-8.07L47.026,29.685a5.713,5.713,0,0,1,8.071,0l5.2,5.2a88.872,88.872,0,0,0-12.41,9.857l-1.608-1.608a3.187,3.187,0,0,0-4.506,4.508L43.434,49.3a88.324,88.324,0,0,0-9.148,11.94Zm20.1-48.7A25.526,25.526,0,0,1,66.09,14.65L77.539,26.1A88.107,88.107,0,0,0,65.91,31.484L59.6,25.177a12.1,12.1,0,0,0-15.253-1.5A12.6,12.6,0,0,0,41,17.767l-6.677-6.675A25.518,25.518,0,0,1,49.014,7.169ZM10.074,16.59l5.909-5.909a6.321,6.321,0,0,1,8.924,0l2.309,2.31c.012.01.023.023.035.033l9.25,9.248a6.313,6.313,0,0,1,0,8.924l-5.91,5.909a6.317,6.317,0,0,1-8.924,0L10.074,25.514a6.309,6.309,0,0,1,0-8.924ZM10.449,34.9l6.71,6.71a12.615,12.615,0,0,0,5.869,3.326,12.076,12.076,0,0,0,1.378,15.434L46.424,82.389A6.016,6.016,0,0,1,37.917,90.9L13.874,66.857A25.734,25.734,0,0,1,10.449,34.9Zm0,0" transform="translate(-0.001 0.001)" fill="#dfdfdf"/><g transform="translate(60.825 100.366) rotate(-43)"><path d="M4.022,0H57.475A4.022,4.022,0,0,1,61.5,4.022V70.713a4.022,4.022,0,0,1-4.022,4.022H4.022A4.022,4.022,0,0,1,0,70.713V4.022A4.022,4.022,0,0,1,4.022,0Z" transform="translate(0 0)" fill="#dfdfdf"/><path d="M0,0H53.454V61.664H0Z" transform="translate(4.022 4.022)" fill="#dfdfdf"/><circle cx="2.24" cy="2.24" r="2.24" transform="translate(28.508 67.907)" fill="#dfdfdf"/><g transform="translate(7.372 4.022)"><path d="M1.927,61.664H0L31.167,0h1.927Z" transform="translate(0 0)" fill="#dfdfdf" opacity="0.5"/><path d="M9.221,61.664H0L31.167,0h9.221Z" transform="translate(6.365 0)" fill="#dfdfdf" opacity="0.5"/></g></g></g><g transform="translate(1434.122 474)"><path d="M200.912,200.866a85.118,85.118,0,1,1,0-120.371A85.13,85.13,0,0,1,200.912,200.866Zm0,0" transform="translate(-31.976 -31.955)" fill="#fbf5a1"/><path d="M219.027,95.733a85.2,85.2,0,0,0-17.852-13.671A85.135,85.135,0,0,1,87.1,201.754,85.124,85.124,0,1,0,219.027,95.733Zm0,0" transform="translate(-50.091 -47.194)" fill="#f9f065"/><path d="M402.4,64.745,381.105,86.037q-1.713-3.687-3.806-7.223a85.143,85.143,0,0,0-11.529-15.231q-.774-.824-1.587-1.637c-.213-.217-.43-.435-.652-.644-.762-.745-1.539-1.479-2.322-2.191a85.043,85.043,0,0,0-14.79-10.8q-3.4-1.944-6.913-3.555l21.45-21.449Zm0,0" transform="translate(-195.254 -13.404)" fill="#162937"/><path d="M369.861,72.651,354.754,87.756a84.3,84.3,0,0,0-4.187-10.812q-1.715-3.685-3.807-7.22l8.068-8.068s3.472-9.1,0-12.576L336.715,30.97a8.894,8.894,0,0,0-12.579,0l-22.02,22.018A9.2,9.2,0,1,1,289.1,39.974l24.04-24.038a28.8,28.8,0,0,1,39.077-1.529q.844.732,1.648,1.529l15.995,15.995c.589.589,1.152,1.2,1.678,1.829A28.787,28.787,0,0,1,369.861,72.651Zm0,0" transform="translate(-164.715 -4.314)" fill="#707070"/><path d="M289.108,50.547l24.04-24.036a28.8,28.8,0,0,1,39.077-1.529q.844.729,1.648,1.529L369.868,42.5c.589.589,1.152,1.2,1.678,1.829a28.618,28.618,0,0,1,6.269,13.236,28.752,28.752,0,0,0-6.269-23.809c-.526-.627-1.089-1.241-1.678-1.829L353.873,15.936q-.8-.8-1.648-1.529a28.8,28.8,0,0,0-39.077,1.529l-24.04,24.038a9.2,9.2,0,0,0-1.016,11.794,9.245,9.245,0,0,1,1.016-1.222Zm0,0" transform="translate(-164.722 -4.314)" fill="#434343"/><path d="M437.367,132.6a8.748,8.748,0,0,1-.85,1l-8.068,8.068q2,3.391,3.66,6.913l4.408-4.407A8.887,8.887,0,0,0,437.367,132.6Zm0,0" transform="translate(-246.405 -76.26)" fill="#434343"/><path d="M421.507,45.565,415.6,39.658a9.5,9.5,0,0,1,0-13.432L427.19,14.634a9.5,9.5,0,0,1,13.431,0l5.909,5.909a9.5,9.5,0,0,1,0,13.431L434.936,45.565a9.494,9.494,0,0,1-13.429,0Zm0,0" transform="translate(-237.414 -6.816)" fill="#fecbaa"/><path d="M436.7,39.109l-5.91-5.909a9.5,9.5,0,0,1,0-13.431l5.135-5.135a9.5,9.5,0,0,1,13.431,0l5.909,5.909a9.5,9.5,0,0,1,0,13.431l-5.135,5.135A9.5,9.5,0,0,1,436.7,39.109Zm0,0" transform="translate(-246.153 -6.816)" fill="#c97f4c"/><path d="M87.411,382.3,65.959,403.74,24.523,362.308l21.293-21.3q1.713,3.69,3.806,7.225a85.049,85.049,0,0,0,11.525,15.231q.774.824,1.585,1.636c.217.216.435.433.652.642.763.745,1.539,1.479,2.324,2.191a85.165,85.165,0,0,0,14.793,10.8c2.259,1.295,4.569,2.485,6.909,3.558Zm0,0" transform="translate(-14.104 -196.118)" fill="#162937"/><path d="M17.8,330.679l15.107-15.105A84.384,84.384,0,0,0,37.1,326.386q1.715,3.685,3.807,7.22l-8.068,8.066a8.9,8.9,0,0,0,0,12.578L50.953,372.36a8.892,8.892,0,0,0,12.577,0l22.02-22.018a9.2,9.2,0,0,1,13.014,13.012l-24.04,24.038a28.8,28.8,0,0,1-39.077,1.529q-.844-.729-1.648-1.529L17.8,371.4c-.589-.589-1.152-1.2-1.678-1.829A28.787,28.787,0,0,1,17.8,330.679Zm0,0" transform="translate(-5.389 -181.489)" fill="#707070"/><path d="M55.808,395.094l-.8.8a8.9,8.9,0,0,0,0,12.578l18.114,18.111a8.9,8.9,0,0,0,12.577,0l22.02-22.018a9.189,9.189,0,0,1,14.946,2.851l.649-.649A9.2,9.2,0,0,0,110.3,393.755l-22.02,22.018a8.892,8.892,0,0,1-12.577,0L57.587,397.662A8.87,8.87,0,0,1,55.808,395.094Zm0,0" transform="translate(-30.138 -224.901)" fill="#434343"/><path d="M15.256,341.489l6.669-6.667A7.791,7.791,0,0,1,34.5,337.091l.05.1q.443.949.91,1.889l5.48-5.479q-2.091-3.538-3.809-7.22a84.393,84.393,0,0,1-4.188-10.811L17.837,330.679a28.687,28.687,0,0,0-8.412,19.206,28.7,28.7,0,0,1,5.831-8.4Zm0,0" transform="translate(-5.421 -181.488)" fill="#434343"/><path d="M41.139,416.994l5.909,5.909a9.5,9.5,0,0,1,0,13.431L35.455,447.927a9.5,9.5,0,0,1-13.429,0l-5.909-5.909a9.5,9.5,0,0,1,0-13.432l11.592-11.592A9.5,9.5,0,0,1,41.139,416.994Zm0,0" transform="translate(-7.669 -238.217)" fill="#fecbaa"/><path d="M34.759,432.009l5.91,5.909a9.5,9.5,0,0,1,0,13.431l-5.215,5.213a9.5,9.5,0,0,1-13.429,0l-5.909-5.909a9.5,9.5,0,0,1,0-13.432l5.213-5.212A9.5,9.5,0,0,1,34.759,432.009Zm0,0" transform="translate(-7.67 -246.852)" fill="#c97f4c"/><path d="M403.782,360.888l-41.437,41.435L341.05,381.032q3.682-1.718,7.222-3.809A84.753,84.753,0,0,0,363.508,365.7c.549-.515,1.1-1.047,1.631-1.585.217-.217.435-.43.649-.652.745-.762,1.479-1.539,2.186-2.322a84.961,84.961,0,0,0,10.8-14.788q1.944-3.4,3.558-6.913Zm0,0" transform="translate(-196.141 -195.213)" fill="#4f7693"/><path d="M330.708,369.785l-15.107-15.1a84.561,84.561,0,0,0,10.813-4.189q3.685-1.715,7.22-3.807l8.068,8.068a8.9,8.9,0,0,0,12.577,0l18.114-18.111a8.9,8.9,0,0,0,0-12.577l-22.02-22.018a9.2,9.2,0,1,1,13.014-13.012l12.992,12.99,11.048,11.047a28.8,28.8,0,0,1,1.529,39.074q-.729.846-1.529,1.648l-16,15.993c-.589.589-1.2,1.152-1.829,1.676a28.791,28.791,0,0,1-38.894-1.676Zm0,0" transform="translate(-181.505 -164.674)" fill="#fece7b"/><path d="M393.8,300.091a9.2,9.2,0,0,1,13.014,0l24.04,24.038a28.636,28.636,0,0,1,7.9,14.848,28.762,28.762,0,0,0-7.9-25.907l-24.04-24.036a9.2,9.2,0,0,0-13.852,12.035,9.271,9.271,0,0,1,.838-.978Zm0,0" transform="translate(-224.93 -164.674)" fill="#ffbe4e"/><path d="M324,429.69a15.743,15.743,0,0,1,17.7,3.18,8.892,8.892,0,0,0,12.577,0l18.114-18.111a8.892,8.892,0,0,0,.672-11.817,9.3,9.3,0,0,1-.672.76L354.28,421.813a8.9,8.9,0,0,1-12.577,0l-8.068-8.066q-3.538,2.089-7.22,3.806a84.574,84.574,0,0,1-10.813,4.189l8.09,8.086C323.761,429.8,323.865,429.752,324,429.69Zm0,0" transform="translate(-181.505 -231.734)" fill="#ffbe4e"/><path d="M417.035,421.426l5.91-5.909a9.5,9.5,0,0,1,13.429,0l11.593,11.592a9.5,9.5,0,0,1,0,13.431l-5.91,5.909a9.5,9.5,0,0,1-13.429,0l-11.593-11.592A9.5,9.5,0,0,1,417.035,421.426Zm0,0" transform="translate(-238.241 -237.367)" fill="#fecbaa"/><path d="M432.228,436.617l5.91-5.909a9.5,9.5,0,0,1,13.429,0l5.139,5.137a9.5,9.5,0,0,1,0,13.431l-5.91,5.909a9.5,9.5,0,0,1-13.429,0l-5.139-5.137A9.5,9.5,0,0,1,432.228,436.617Zm0,0" transform="translate(-246.979 -246.104)" fill="#c97f4c"/><path d="M86.043,45.764q-3.69,1.72-7.22,3.811A84.615,84.615,0,0,0,63.585,61.1c-.554.516-1.1,1.044-1.637,1.585-.217.217-.43.43-.644.652-.745.767-1.479,1.542-2.186,2.327a84.92,84.92,0,0,0-10.8,14.785q-1.944,3.393-3.555,6.911L23.308,65.91l41.44-41.437Zm0,0" transform="translate(-13.405 -14.074)" fill="#162937"/><path d="M72.658,17.764,87.765,32.869a84.316,84.316,0,0,0-10.813,4.188q-3.685,1.715-7.22,3.807L61.664,32.8a8.9,8.9,0,0,0-12.577,0L30.972,50.909a8.893,8.893,0,0,0,0,12.576L52.992,85.5A9.2,9.2,0,0,1,39.978,98.517L15.938,74.479A28.8,28.8,0,0,1,14.41,35.405c.486-.563.994-1.114,1.529-1.646L31.933,17.764c.589-.588,1.2-1.152,1.831-1.676a28.793,28.793,0,0,1,38.894,1.676Zm0,0" transform="translate(-4.316 -5.365)" fill="#fece7b"/><path d="M59.22,135.216a8.957,8.957,0,0,1-.968-1.162,8.888,8.888,0,0,0,.968,11.414l22.02,22.018a9.265,9.265,0,0,1,1.134,1.381,9.2,9.2,0,0,0-1.134-11.633Zm0,0" transform="translate(-32.564 -77.095)" fill="#ffbe4e"/><path d="M14.412,45.659q.729-.846,1.529-1.648L31.936,28.018c.589-.589,1.2-1.152,1.829-1.676A28.912,28.912,0,0,1,58.289,20.21a28.429,28.429,0,0,1,14.372,7.808L80.246,35.6q3.709-1.549,7.52-2.734L72.661,17.764a28.793,28.793,0,0,0-38.894-1.676c-.627.524-1.241,1.089-1.831,1.676L15.941,33.759c-.534.533-1.042,1.084-1.529,1.646A28.769,28.769,0,0,0,7.968,59.252a28.637,28.637,0,0,1,6.445-13.593Zm0,0" transform="translate(-4.318 -5.365)" fill="#ffbe4e"/><path d="M45.571,41.1l-5.91,5.909a9.5,9.5,0,0,1-13.429,0L14.638,35.413a9.5,9.5,0,0,1,0-13.432l5.91-5.907a9.493,9.493,0,0,1,13.429,0L45.571,27.666a9.5,9.5,0,0,1,0,13.431Zm0,0" transform="translate(-6.82 -7.644)" fill="#fecbaa"/><path d="M38.145,33.672l-5.91,5.909a9.5,9.5,0,0,1-13.429,0l-4.169-4.168a9.5,9.5,0,0,1,0-13.432l5.909-5.907a9.5,9.5,0,0,1,13.431,0l4.169,4.168a9.5,9.5,0,0,1,0,13.431Zm0,0" transform="translate(-6.818 -7.644)" fill="#c97f4c"/><path d="M158.125,310.344l-15.638,13.864a2.8,2.8,0,0,1-3.947-.239L132.361,317l-4.241-4.782-6.513-7.348a2.791,2.791,0,0,1,.239-3.942l15.641-13.864a2.792,2.792,0,0,1,3.942.239l6.385,7.2,4.241,4.787,6.309,7.112a2.8,2.8,0,0,1-.239,3.947Zm0,0" transform="translate(-69.534 -164.687)" fill="#fbf5a1"/><path d="M331.939,161.307l-22.433,19.884a3.284,3.284,0,0,1-4.634-.279l-16.284-18.368a3.283,3.283,0,0,1,.279-4.634L311.3,138.026a3.279,3.279,0,0,1,4.632.279l16.285,18.368a3.283,3.283,0,0,1-.28,4.634Zm0,0" transform="translate(-165.495 -78.904)" fill="#fbf5a1"/><g transform="translate(75.355 103.938) rotate(-43)"><path d="M2.576,0H36.805a2.576,2.576,0,0,1,2.576,2.576V45.282a2.576,2.576,0,0,1-2.576,2.576H2.576A2.576,2.576,0,0,1,0,45.282V2.576A2.576,2.576,0,0,1,2.576,0Z" transform="translate(0 0)" fill="#2c2d34"/><path d="M0,0H34.23V39.488H0Z" transform="translate(2.576 2.576)" fill="#69b0ee"/><circle cx="1.435" cy="1.435" r="1.435" transform="translate(18.256 43.485)" fill="#828a9e"/><g transform="translate(4.721 2.576)"><path d="M1.234,39.488H0L19.958,0h1.234Z" transform="translate(0 0)" fill="#eeefee" opacity="0.5"/><path d="M5.9,39.488H0L19.958,0h5.9Z" transform="translate(4.076 0)" fill="#eeefee" opacity="0.5"/></g></g></g></g><g transform="translate(1197.296 497.296)"><path d="M80.215,67.179H10.691A8.691,8.691,0,0,1,2,58.489v-47.8A8.691,8.691,0,0,1,10.691,2H80.215a8.691,8.691,0,0,1,8.691,8.691v47.8A8.691,8.691,0,0,1,80.215,67.179Z" transform="translate(1.173 1.173)" fill="#88929f"/><path d="M88.906,10.691A8.691,8.691,0,0,0,80.215,2H10.691A8.691,8.691,0,0,0,2,10.691V54.144H88.906Z" transform="translate(1.173 1.173)" fill="#c7e2fb"/><path d="M21.554,49.8c30,0,54.316-20.427,54.316-45.626,0-.728-.026-1.451-.065-2.173H10.691A8.691,8.691,0,0,0,2,10.691V46.739A63.36,63.36,0,0,0,21.554,49.8Z" transform="translate(1.173 1.173)" fill="#ebf7fe"/><path d="M44,34H78.762V55.726H44Z" transform="translate(50.424 38.697)" fill="#88929f"/><path d="M44,51.155A43.113,43.113,0,0,0,74.041,34H44Z" transform="translate(50.424 38.697)" fill="#a0a8b2"/><path d="M2,44H132.359V83.108H2Z" transform="translate(1.173 50.424)" fill="#4d5d79"/><path d="M6,48H66.834V69.726H6Z" transform="translate(5.863 55.114)" fill="#ebf7fe"/><path d="M13,48.691V44.345A4.344,4.344,0,0,1,17.345,40H47.762a4.344,4.344,0,0,1,4.345,4.345v4.345Z" transform="translate(14.072 45.733)" fill="#88929f"/><path d="M17,32H38.726V49.381H17Z" transform="translate(18.762 36.352)" fill="#a0a8b2"/><path d="M46,46.9V23l6.518,6.518L59.036,23l6.518,6.518L72.072,23V46.9Z" transform="translate(52.769 25.798)" fill="#c7e2fb"/><g transform="translate(81.388 103.114)"><path d="M38,48h8.691v8.691H38Z" transform="translate(-38 -48)" fill="#3c98f4"/><path d="M46,48h8.691v8.691H46Z" transform="translate(-28.619 -48)" fill="#3c98f4"/><path d="M54,48h8.691v8.691H54Z" transform="translate(-19.238 -48)" fill="#3c98f4"/></g><path d="M12,48l4.345,8.691H42.417L46.762,48Z" transform="translate(12.899 55.114)" fill="#c7e2fb"/><g transform="translate(-36 187)"><path d="M62.924-125.106a4.35,4.35,0,0,1-4.345-4.345H54.233a8.681,8.681,0,0,0,6.518,8.382v4.654H65.1v-4.654a8.681,8.681,0,0,0,6.518-8.382,8.7,8.7,0,0,0-8.691-8.69,4.35,4.35,0,0,1-4.345-4.345,4.35,4.35,0,0,1,4.345-4.345,4.35,4.35,0,0,1,4.345,4.345h4.345a8.681,8.681,0,0,0-6.518-8.382v-4.654H60.751v4.654a8.681,8.681,0,0,0-6.518,8.382,8.7,8.7,0,0,0,8.691,8.691,4.35,4.35,0,0,1,4.345,4.345A4.35,4.35,0,0,1,62.924-125.106Z" transform="translate(19.935 -22.309)" fill="#afd7fc"/></g></g><g transform="translate(1212.129 331.667)"><g transform="translate(1.273 35.442)"><path d="M91.826,134.5v52.937a3.393,3.393,0,0,1-3.393,3.393H10.893A3.393,3.393,0,0,1,7.5,187.437V134.5Z" transform="translate(-7.5 -118.89)" fill="#faf8f8"/><g transform="translate(35.036 36.649)"><path d="M230.9,265.626a7.129,7.129,0,0,0-10.432-6.315c-2.271,1.191-3.279,3.572-3.279,6.315,0,3.936,2.649,6.186,6.585,6.186,2.751,0,5.138-.618,6.326-2.9A7.1,7.1,0,0,0,230.9,265.626Z" transform="translate(-216.648 -258.5)" fill="#f93da1"/><path d="M227.566,272.021a7.127,7.127,0,1,1-9.491-9.491,7.129,7.129,0,0,0,9.491,9.491Z" transform="translate(-213.998 -261.846)" fill="#d43d8d"/></g><g transform="translate(58.62 36.649)"><path d="M369.9,265.626a7.129,7.129,0,0,0-10.432-6.315c-2.271,1.191-3.279,3.572-3.279,6.315,0,3.936,2.649,6.186,6.585,6.186,2.751,0,5.138-.618,6.326-2.9A7.1,7.1,0,0,0,369.9,265.626Z" transform="translate(-355.646 -258.5)" fill="#00ffb1"/><path d="M366.564,272.021a7.127,7.127,0,1,1-9.491-9.491,7.129,7.129,0,0,0,9.491,9.491Z" transform="translate(-352.996 -261.846)" fill="#04d494"/></g><path d="M91.826,127.267v-3.393L45,121.7,7.5,123.873V176.81a3.393,3.393,0,0,0,3.393,3.393h2.545a2.546,2.546,0,0,1-2.545-2.545V128.285a1.018,1.018,0,0,1,1.018-1.018Z" transform="translate(-7.5 -108.264)" fill="#f0e9e6"/><path d="M91.826,45.893v12.3H7.5v-12.3A3.393,3.393,0,0,1,10.893,42.5H88.432A3.393,3.393,0,0,1,91.826,45.893Z" transform="translate(-7.5 -42.5)" fill="#5d748a"/><g transform="translate(3.054 5.7)"><path d="M222.847,89.59a2.545,2.545,0,0,1,0-5.09h35.345a2.545,2.545,0,0,1,0,5.09Z" transform="translate(-187.257 -83.073)" fill="#3f597d"/><ellipse cx="2.536" cy="2.545" rx="2.536" ry="2.545" transform="translate(21.704 1.427)" fill="#3f597d"/><path d="M178.641,99.5l2.184-2.183-2.229.2Z" transform="translate(-152.62 -93.714)" fill="#3f597d"/><path d="M158.092,78.216l2.131-2.124-.457,1.766Z" transform="translate(-135.595 -76.092)" fill="#3f597d"/><ellipse cx="2.536" cy="2.545" rx="2.536" ry="2.545" transform="translate(11.043 1.427)" fill="#3f597d"/><path d="M115.811,99.779l2.1-2.121-2.15.142Z" transform="translate(-100.446 -93.999)" fill="#3f597d"/><path d="M95.257,78.263l2.1-2.114-.425,1.756Z" transform="translate(-83.421 -76.139)" fill="#3f597d"/><ellipse cx="2.536" cy="2.545" rx="2.536" ry="2.545" transform="translate(0 1.427)" fill="#3f597d"/><path d="M50.922,98.9,53.08,96.66l-2.229.234Z" transform="translate(-46.55 -93.17)" fill="#3f597d"/><path d="M30.17,78.612l1.972-2.042-.3,1.685Z" transform="translate(-29.378 -76.489)" fill="#3f597d"/></g><ellipse cx="2.536" cy="2.545" rx="2.536" ry="2.545" transform="translate(26.961 4.92)" fill="#b7e546"/><path d="M225.014,77.79l2.2-2.2-.513,2.422Z" transform="translate(-188.108 -69.972)" fill="#3f597d"/><path d="M454.33,98.972l2.231-2.236-1.728.574Z" transform="translate(-378.517 -87.534)" fill="#3f597d"/><ellipse cx="2.536" cy="2.545" rx="2.536" ry="2.545" transform="translate(16.288 4.92)" fill="#ffbf54"/><ellipse cx="2.536" cy="2.545" rx="2.536" ry="2.545" transform="translate(5.183 4.92)" fill="#dc4955"/><path d="M235.826,76.59a2.545,2.545,0,0,1,0-5.09h35.345a2.545,2.545,0,0,1,0,5.09Z" transform="translate(-194.98 -66.58)" fill="#faf8f8"/><path d="M135.09,175.332l38.452.339a1.7,1.7,0,0,0,1.7-1.7l.59-1.188V167.7a1.7,1.7,0,0,0-1.7-1.7H136.126l-1.036.848a1.7,1.7,0,0,0-1.7,1.7v5.09A1.7,1.7,0,0,0,135.09,175.332Z" transform="translate(-112.033 -145.046)" fill="#aad8de"/><path d="M172.6,172.787v1.7a1.7,1.7,0,0,1-1.7,1.7H131.2a1.7,1.7,0,0,1-1.7-1.7V167.7a1.7,1.7,0,0,1,1.7-1.7h1.7v5.6a1.188,1.188,0,0,0,1.188,1.188Z" transform="translate(-108.8 -145.046)" fill="#94ccd4"/><g transform="translate(11.453 36.649)"><path d="M91.9,265.626a7.129,7.129,0,0,0-10.432-6.315c-2.271,1.191-3.279,3.572-3.279,6.315,0,3.936,2.649,6.186,6.585,6.186,2.751,0,5.138-.618,6.326-2.9A7.1,7.1,0,0,0,91.9,265.626Z" transform="translate(-77.65 -258.5)" fill="#5498ff"/><path d="M88.568,272.021a7.127,7.127,0,1,1-9.491-9.491,7.129,7.129,0,0,0,9.491,9.491Z" transform="translate(-75 -261.846)" fill="#418dff"/></g></g></g><g transform="translate(1541.915 251.276)"><path d="M143.843,112.529H62.816a5.444,5.444,0,0,1-5.444-5.444V53.068a5.444,5.444,0,0,1,5.444-5.444h81.027a5.444,5.444,0,0,1,5.444,5.444v54.017A5.444,5.444,0,0,1,143.843,112.529Z" transform="translate(-47.287 0)" fill="#365e7d"/><path d="M418.819,47.624h-3.7a5.444,5.444,0,0,1,5.444,5.444v54.017a5.444,5.444,0,0,1-5.444,5.444h3.7a5.444,5.444,0,0,0,5.444-5.444V53.068A5.444,5.444,0,0,0,418.819,47.624Z" transform="translate(-322.262)" fill="#2b4d66"/><path d="M173.22,80.1H98.967a.305.305,0,0,0-.3.313v49.25a.305.305,0,0,0,.3.313H173.22a.305.305,0,0,0,.3-.313V80.415A.305.305,0,0,0,173.22,80.1Z" transform="translate(-79.03 -24.963)" fill="#d3effb"/><path d="M407.733,80.1h-3.955a.305.305,0,0,1,.3.313v49.25a.305.305,0,0,1-.3.313h3.955a.305.305,0,0,0,.3-.313V80.415A.306.306,0,0,0,407.733,80.1Z" transform="translate(-313.543 -24.963)" fill="#b1e4f9"/><g transform="translate(13.122 76.998)"><path d="M72.286,180.736a1.787,1.787,0,0,1-1.788-1.788v-2.582a1.788,1.788,0,0,1,3.575,0v2.582A1.788,1.788,0,0,1,72.286,180.736Z" transform="translate(-70.498 -174.579)" fill="#2b4d66"/></g><g transform="translate(25.588 85.545)"><path d="M134.015,215.1H126.16a1.788,1.788,0,0,1,0-3.575h7.855a1.788,1.788,0,0,1,0,3.575Z" transform="translate(-124.372 -211.52)" fill="#365e7d"/><g transform="translate(0 8.115)"><path d="M141.165,250.168H126.16a1.788,1.788,0,0,1,0-3.575h15.006a1.788,1.788,0,1,1,0,3.575Z" transform="translate(-124.372 -246.593)" fill="#365e7d"/></g><g transform="translate(46.755)"><g transform="translate(7.151)"><path d="M366.994,215.1h-7.855a1.788,1.788,0,0,1,0-3.575h7.855a1.788,1.788,0,0,1,0,3.575Z" transform="translate(-357.351 -211.52)" fill="#365e7d"/></g><g transform="translate(0 8.115)"><path d="M343.239,250.168H328.234a1.788,1.788,0,1,1,0-3.575h15.006a1.788,1.788,0,1,1,0,3.575Z" transform="translate(-326.446 -246.593)" fill="#365e7d"/></g></g></g><g transform="translate(26.03 58.466)"><path d="M137.462,104.893h-9.39a1.787,1.787,0,0,1-1.788-1.788V96.271a1.787,1.787,0,0,1,1.788-1.788h9.391a1.787,1.787,0,0,1,1.788,1.788v6.835A1.788,1.788,0,0,1,137.462,104.893Zm-7.6-3.575h5.815V98.058h-5.815Z" transform="translate(-126.284 -94.483)" fill="#e27d47"/><g transform="translate(0 6.835)"><path d="M142.037,136.436H128.072a1.787,1.787,0,0,1-1.788-1.788v-8.838a1.787,1.787,0,0,1,1.788-1.788h13.966a1.787,1.787,0,0,1,1.788,1.788v8.838A1.788,1.788,0,0,1,142.037,136.436Zm-12.178-3.575h10.39V127.6h-10.39Z" transform="translate(-126.284 -124.023)" fill="#e27d47"/></g></g><g transform="matrix(0.921, -0.391, 0.391, 0.921, 50.343, 93.945)"><path d="M9.874,6.925a1.781,1.781,0,0,1-.683-.137L1.1,3.44A1.788,1.788,0,1,1,2.472.136l8.087,3.349a1.788,1.788,0,0,1-.685,3.44Z" fill="#365e7d"/></g><g transform="translate(65.04 60.711)"><path d="M309.882,107.762H296.672a1.788,1.788,0,0,1,0-3.575h13.211a1.788,1.788,0,0,1,0,3.575Z" transform="translate(-294.884 -104.187)" fill="#e27d47"/></g><g transform="translate(65.04 67.868)"><path d="M317.033,138.692H296.672a1.788,1.788,0,1,1,0-3.575h20.361a1.788,1.788,0,1,1,0,3.575Z" transform="translate(-294.884 -135.117)" fill="#e27d47"/></g></g></g></svg>