<svg xmlns="http://www.w3.org/2000/svg" xmlns:xlink="http://www.w3.org/1999/xlink" width="139" height="120.27" viewBox="0 0 139 120.27"><defs><filter id="a" x="0" y="0" width="129.57" height="120.27" filterUnits="userSpaceOnUse"><feOffset dx="3" dy="3" input="SourceAlpha"/><feGaussianBlur stdDeviation="2" result="b"/><feFlood flood-color="#c9c9c9" flood-opacity="0.549"/><feComposite operator="in" in2="b"/><feComposite in="SourceGraphic"/></filter></defs><g transform="translate(-1076 -2085.626)"><g transform="matrix(1, 0, 0, 1, 1076, 2085.63)" filter="url(#a)"><path d="M70.246-2.872c34.169-9.386,47.324,27.1,47.324,57.148S102.712,103.9,70.246,103.9,0,84.327,0,54.277,36.078,6.515,70.246-2.872Z" transform="translate(3 7.37)" fill="#e0d6f0" opacity="0.5"/></g><g transform="translate(1137.614 2099.333)"><g transform="translate(4 0)"><g transform="translate(42.993 36.292)"><path d="M305.974,266.543a2.758,2.758,0,1,1,3.153-2.729,1.433,1.433,0,0,0,2.867,0,5.7,5.7,0,0,0-4.587-5.434v-.745a1.433,1.433,0,1,0-2.867,0v.745a5.7,5.7,0,0,0-4.587,5.434,5.826,5.826,0,0,0,6.02,5.6,2.758,2.758,0,1,1-3.153,2.729,1.433,1.433,0,1,0-2.867,0,5.7,5.7,0,0,0,4.587,5.434v.619a1.433,1.433,0,1,0,2.867,0v-.619a5.7,5.7,0,0,0,4.587-5.434A5.826,5.826,0,0,0,305.974,266.543Z" transform="translate(-299.954 -256.201)" fill="#c9aef3"/></g><g transform="translate(55.029 31.216)"><g transform="translate(0 0)"><path d="M393.607,227.678a18.676,18.676,0,0,0-7.628-6.751,1.433,1.433,0,1,0-1.242,2.584,15.78,15.78,0,0,1,7.107,21.613,1.433,1.433,0,1,0,2.531,1.346,18.654,18.654,0,0,0-.767-18.792Z" transform="translate(-383.924 -220.785)" fill="#c9aef3"/></g></g><g transform="translate(49.736 29.527)"><g transform="translate(0 0)"><path d="M348.53,209h-.1a1.433,1.433,0,1,0,0,2.867h.09A1.433,1.433,0,0,0,348.53,209Z" transform="translate(-347 -209.001)" fill="#c9aef3"/></g></g><g transform="translate(30.387 38.658)"><path d="M223.813,296.431a15.78,15.78,0,0,1-7.107-21.613,1.433,1.433,0,0,0-2.531-1.346,18.641,18.641,0,0,0,8.4,25.544,1.433,1.433,0,1,0,1.242-2.584Z" transform="translate(-212.002 -272.711)" fill="#c9aef3"/></g><g transform="translate(45.347 63.926)"><path d="M317.9,449h-.083a1.433,1.433,0,0,0-.013,2.867h.1a1.433,1.433,0,1,0,0-2.867Z" transform="translate(-316.378 -448.999)" fill="#c9aef3"/></g><g transform="translate(0 0)"><path d="M55.528,27.677a6.579,6.579,0,0,0-.637-1.171h3.732a6.593,6.593,0,0,0,0-13.187H47.145A6.589,6.589,0,0,0,41.71,3H6.593a6.593,6.593,0,1,0,0,13.187H18.071a6.575,6.575,0,0,0,0,7.453H14.333a6.589,6.589,0,0,0-4.1,11.753,6.581,6.581,0,0,0,0,10.32,6.581,6.581,0,0,0,0,10.32,6.589,6.589,0,0,0,4.1,11.753H31.225a24.361,24.361,0,1,0,24.3-40.109Zm3.095-11.491a3.727,3.727,0,0,1,0,7.453H23.506a3.727,3.727,0,0,1,0-7.453ZM6.593,13.32a3.727,3.727,0,1,1,0-7.453H41.71a3.727,3.727,0,1,1,0,7.453Zm7.74,13.187H49.45a3.725,3.725,0,0,1,1.626.374c-.678-.057-1.363-.088-2.056-.088A24.291,24.291,0,0,0,31.777,33.96H14.333a3.727,3.727,0,0,1,0-7.453Zm0,10.32H29.328a24.3,24.3,0,0,0-3.684,7.453H14.333a3.727,3.727,0,0,1,0-7.453Zm0,10.32H24.986A24.386,24.386,0,0,0,24.9,54.6H14.333a3.727,3.727,0,1,1,0-7.453Zm0,17.773a3.727,3.727,0,1,1,0-7.453H25.482a24.27,24.27,0,0,0,3.439,7.453ZM49.02,72.66a21.5,21.5,0,1,1,21.5-21.5A21.524,21.524,0,0,1,49.02,72.66Z" transform="translate(0 -3)" fill="#bc97f6"/></g></g></g></g></svg>