<svg xmlns="http://www.w3.org/2000/svg" xmlns:xlink="http://www.w3.org/1999/xlink" width="129.57" height="120.268" viewBox="0 0 129.57 120.268"><defs><filter id="a" x="0" y="0" width="129.57" height="120.268" filterUnits="userSpaceOnUse"><feOffset dx="3" dy="3" input="SourceAlpha"/><feGaussianBlur stdDeviation="2" result="b"/><feFlood flood-color="#c9c9c9" flood-opacity="0.549"/><feComposite operator="in" in2="b"/><feComposite in="SourceGraphic"/></filter></defs><g transform="translate(-293 -1877.626)"><g transform="matrix(1, 0, 0, 1, 293, 1877.63)" filter="url(#a)"><path d="M70.246-2.872c34.169-9.386,47.324,27.1,47.324,57.147s-14.858,49.619-47.324,49.619S0,84.325,0,54.276,36.078,6.514,70.246-2.872Z" transform="translate(3 7.37)" fill="#e0d6f0" opacity="0.5"/></g><g transform="translate(-1856 221)"><g transform="translate(2214 1667)"><path d="M57.315,0a7.017,7.017,0,0,0-6.169,10.364l-11.5,11.5a9.3,9.3,0,0,0-11.457,0l-8.97-8.97a4.617,4.617,0,0,0,.663-2.362,4.679,4.679,0,1,0-4.679,4.679,4.617,4.617,0,0,0,2.362-.663l8.97,8.97a9.3,9.3,0,0,0,0,11.457L11.725,49.785a6.947,6.947,0,1,0,1.462,1.846L28.193,36.624a9.3,9.3,0,0,0,4.559,1.894V50.4a7.018,7.018,0,1,0,2.339,0V38.518a9.3,9.3,0,0,0,4.559-1.894l8.97,8.97a4.614,4.614,0,0,0-.664,2.363,4.679,4.679,0,1,0,4.679-4.679,4.617,4.617,0,0,0-2.362.663l-8.97-8.97a9.3,9.3,0,0,0,0-11.457L52.609,12.209A7.013,7.013,0,1,0,57.315,0ZM12.867,10.527a2.339,2.339,0,1,1,2.339,2.339A2.342,2.342,0,0,1,12.867,10.527ZM7.018,59.655A4.679,4.679,0,1,1,11.7,54.976,4.683,4.683,0,0,1,7.018,59.655ZM38.6,57.315a4.679,4.679,0,1,1-4.679-4.679A4.683,4.683,0,0,1,38.6,57.315ZM33.921,36.261a7.018,7.018,0,1,1,7.018-7.018A7.025,7.025,0,0,1,33.921,36.261Zm21.055,11.7a2.339,2.339,0,1,1-2.339-2.339A2.342,2.342,0,0,1,54.976,47.958ZM57.315,11.7a4.679,4.679,0,1,1,4.679-4.679A4.684,4.684,0,0,1,57.315,11.7Z" transform="translate(0)" fill="#bc97f6"/></g></g></g></svg>