<svg xmlns="http://www.w3.org/2000/svg" xmlns:xlink="http://www.w3.org/1999/xlink" width="968.562" height="946.235" viewBox="0 0 968.562 946.235">
  <defs>
    <linearGradient id="linear-gradient" x1="0.5" x2="0.5" y2="1" gradientUnits="objectBoundingBox">
      <stop offset="0" stop-color="#b385f9"/>
      <stop offset="0.665" stop-color="#fe21bb" stop-opacity="0.459"/>
      <stop offset="1" stop-color="#fe21bb" stop-opacity="0"/>
    </linearGradient>
    <linearGradient id="linear-gradient-2" x1="0.5" x2="0.624" y2="0.968" gradientUnits="objectBoundingBox">
      <stop offset="0" stop-color="#d5baff"/>
      <stop offset="0.594" stop-color="#f96ecf" stop-opacity="0.38"/>
      <stop offset="1" stop-color="#818cb9" stop-opacity="0"/>
    </linearGradient>
    <linearGradient id="linear-gradient-3" x1="0.827" y1="0.621" x2="0.568" y2="0.455" gradientUnits="objectBoundingBox">
      <stop offset="0" stop-color="#f6a8e1" stop-opacity="0.161"/>
      <stop offset="1" stop-color="#fcbcec" stop-opacity="0"/>
    </linearGradient>
    <linearGradient id="linear-gradient-4" x1="0.66" y1="0.026" x2="0.298" y2="0.823" gradientUnits="objectBoundingBox">
      <stop offset="0" stop-color="#d381f5"/>
      <stop offset="0.322" stop-color="#d897f6" stop-opacity="0"/>
      <stop offset="1" stop-color="#e4c4f8" stop-opacity="0"/>
    </linearGradient>
  </defs>
  <g id="Group_29" data-name="Group 29" transform="translate(-390.422 -100.547)">
    <path id="Path_3" data-name="Path 3" d="M324.793,637.426c300.793,47.052,323.157-53.388,359.28-153.535s131.577-185.241,92.813-292.16S576.487,42.967,458.967,44.2,18.035,155.017,30.081,309.858c.261,3.353.747,9.885.747,9.885S29.114,591.174,324.793,637.426Z" transform="translate(339.499 560.853) rotate(-39)" opacity="0.47" fill="url(#linear-gradient)"/>
    <path id="Path_10" data-name="Path 10" d="M211.824,674.119C469.412,687.5,500.315,571.62,543.21,454.256s135.947-225.6,114.152-340.735S499.021-27.434,396.163-10.6-1.761,171.95-8.737,344.488c-.151,3.736-.465,11.018-.465,11.018S-41.386,660.96,211.824,674.119Z" transform="matrix(-0.139, -0.99, 0.99, -0.139, 511.288, 893.777)" opacity="0.52" fill="url(#linear-gradient-2)"/>
    <path id="Path_14" data-name="Path 14" d="M209,0c68.217,0,131.75,69.75,151,139s-74,90.564-74,138c0,115.98,38.428,143-77,143S0,325.98,0,210,93.572,0,209,0Z" transform="translate(842 471)" fill="url(#linear-gradient-3)"/>
    <path id="Path_13" data-name="Path 13" d="M159.556-12c83.715,0,143.6,69.721,143.6,140.978S235.293,258,151.579,258,0,200.235,0,128.978,75.842-12,159.556-12Z" transform="translate(830.843 234)" opacity="0.14" fill="url(#linear-gradient-4)"/>
  </g>
</svg>
