<svg xmlns="http://www.w3.org/2000/svg" xmlns:xlink="http://www.w3.org/1999/xlink" width="129.57" height="120.27" viewBox="0 0 129.57 120.27"><defs><filter id="a" x="0" y="0" width="129.57" height="120.27" filterUnits="userSpaceOnUse"><feOffset dx="3" dy="3" input="SourceAlpha"/><feGaussianBlur stdDeviation="2" result="b"/><feFlood flood-color="#c9c9c9" flood-opacity="0.549"/><feComposite operator="in" in2="b"/><feComposite in="SourceGraphic"/></filter></defs><g transform="translate(-312 -1351.626)"><g transform="matrix(1, 0, 0, 1, 312, 1351.63)" filter="url(#a)"><path d="M70.246-2.872c34.169-9.386,47.324,27.1,47.324,57.148S102.712,103.9,70.246,103.9,0,84.327,0,54.277,36.078,6.515,70.246-2.872Z" transform="translate(3 7.37)" fill="#e0d6f0" opacity="0.5"/></g><g transform="translate(391.726 1364)"><path d="M62.663,54.9H74.738a2.294,2.294,0,0,0,0-4.588H62.663a2.294,2.294,0,0,0,0,4.588Z" transform="translate(-52.322 -34.923)" fill="#bc97f6"/><path d="M85.587,81.994H62.663a2.294,2.294,0,0,0,0,4.588H85.587a2.294,2.294,0,0,0,0-4.588Z" transform="translate(-52.322 -56.913)" fill="#bc97f6"/><path d="M62.663,118.27H78.988a2.294,2.294,0,1,0,0-4.588H62.663a2.294,2.294,0,0,0,0,4.588Z" transform="translate(-52.322 -78.908)" fill="#bc97f6"/><path d="M85.587,145.367H62.663a2.294,2.294,0,0,0,0,4.588H85.587a2.294,2.294,0,0,0,0-4.588Z" transform="translate(-52.322 -100.901)" fill="#bc97f6"/><path d="M77,5.55,72.118.672a2.294,2.294,0,0,0-3.245,0L65.619,3.928,62.363.672a2.294,2.294,0,0,0-3.245,0L55.863,3.927,52.609.672a2.294,2.294,0,0,0-3.245,0L46.11,3.927,42.855.672a2.294,2.294,0,0,0-3.245,0L34.733,5.55a2.294,2.294,0,0,0-.672,1.622v50.1a2.3,2.3,0,0,0,.672,1.622l4.877,4.876a2.294,2.294,0,0,0,3.244,0l3.256-3.255,3.256,3.255a2.294,2.294,0,0,0,3.245,0l3.253-3.254,3.255,3.254a2.294,2.294,0,0,0,3.244,0l3.256-3.255,3.256,3.255a2.294,2.294,0,0,0,3.244,0L77,58.9a2.293,2.293,0,0,0,.672-1.622V7.172A2.3,2.3,0,0,0,77,5.55ZM73.08,56.323,70.5,58.906l-3.256-3.255a2.294,2.294,0,0,0-3.244,0l-3.256,3.255-3.255-3.255a2.294,2.294,0,0,0-3.245,0l-3.253,3.254-3.256-3.255a2.294,2.294,0,0,0-3.244,0l-3.256,3.255L38.65,56.323V8.123l2.583-2.584,3.255,3.256a2.294,2.294,0,0,0,3.245,0l3.254-3.255,3.254,3.255a2.294,2.294,0,0,0,3.245,0l3.255-3.256L64,8.794a2.294,2.294,0,0,0,3.245,0L70.5,5.539,73.08,8.122v48.2Z" transform="translate(-34.061 0)" fill="#bc97f6"/></g></g></svg>