<svg xmlns="http://www.w3.org/2000/svg" xmlns:xlink="http://www.w3.org/1999/xlink" width="2680.917" height="1850.31" viewBox="0 0 2680.917 1850.31"><defs><linearGradient id="a" x1="0.5" x2="0.236" y2="0.971" gradientUnits="objectBoundingBox"><stop offset="0" stop-color="#f9a9e9" stop-opacity="0.851"/><stop offset="1" stop-color="#fbbde4" stop-opacity="0.169"/></linearGradient><filter id="b" x="0" y="0" width="1036.733" height="1081.691" filterUnits="userSpaceOnUse"><feOffset dx="3" dy="3" input="SourceAlpha"/><feGaussianBlur stdDeviation="10" result="c"/><feFlood flood-color="#eaacff"/><feComposite operator="in" in2="c"/><feComposite in="SourceGraphic"/></filter><linearGradient id="d" x1="0.935" y1="0.369" x2="0.148" y2="0.74" gradientUnits="objectBoundingBox"><stop offset="0" stop-color="#fbbde4" stop-opacity="0.722"/><stop offset="0.807" stop-color="#fbbde4" stop-opacity="0.078"/><stop offset="1" stop-color="#f9baf7" stop-opacity="0"/></linearGradient><filter id="e" x="1299.54" y="462.912" width="1381.376" height="1387.398" filterUnits="userSpaceOnUse"><feOffset dx="3" dy="3" input="SourceAlpha"/><feGaussianBlur stdDeviation="10" result="f"/><feFlood flood-color="#eaacff"/><feComposite operator="in" in2="f"/><feComposite in="SourceGraphic"/></filter><clipPath id="g"><rect width="79.223" height="76.291" fill="none"/></clipPath><linearGradient id="ae" x1="0.027" y1="0.5" x2="1" y2="0.5" gradientUnits="objectBoundingBox"><stop offset="0" stop-color="#f8f8f8"/><stop offset="1" stop-color="#f2f2f2"/></linearGradient><linearGradient id="ah" x1="0.027" y1="0.5" x2="1" y2="0.5" gradientUnits="objectBoundingBox"><stop offset="0" stop-color="#f8f8f8"/><stop offset="1" stop-color="#f3f3f3"/></linearGradient></defs><g transform="translate(201.904 -3810.227)"><path d="M536.016,40.32l-7.923-3.466c-.124,0-.124-.248,0-.248l7.923-3.59h.124l3.466-7.923c0-.124.248-.124.248,0l3.59,7.923,7.923,3.59c.124,0,.124.248,0,.248l-7.923,3.466-3.59,7.923h-.248L536.14,40.32Z" transform="translate(663.757 4378.201)" fill="#fdd2f8"/><g transform="matrix(1, 0, 0, 1, -201.9, 3810.23)" filter="url(#b)"><path d="M292.614,0C534.989,0,874.1,144.8,874.1,385.564S463.219,922.442,220.844,922.442,4.07,617.6,4.07,376.834,50.239,0,292.614,0Z" transform="translate(136.15 26.6) rotate(7)" fill="url(#a)"/></g><g transform="translate(-4 -5)"><g transform="translate(214 3913)"><path d="M30,0H343.679a30,30,0,0,1,30,30V48.321a0,0,0,0,1,0,0H0a0,0,0,0,1,0,0V30A30,30,0,0,1,30,0Z" fill="#5b5b5b"/><rect width="203.752" height="16.912" rx="8.456" transform="translate(139.324 16.107)" fill="#3a3a3a"/><path d="M8.456,0A8.456,8.456,0,1,1,0,8.456,8.456,8.456,0,0,1,8.456,0Z" transform="translate(16.912 16.107)" fill="#ff7d7d"/><circle cx="8.456" cy="8.456" r="8.456" transform="translate(49.931 16.107)" fill="#fefa9c"/><circle cx="8.456" cy="8.456" r="8.456" transform="translate(82.95 16.107)" fill="#a4f595"/></g><g transform="translate(214 3961.321)"><path d="M0,0H373.679a0,0,0,0,1,0,0V354.149a30,30,0,0,1-30,30H30a30,30,0,0,1-30-30V0A0,0,0,0,1,0,0Z" fill="#f8f8f8"/><rect width="70.87" height="72.481" rx="5" transform="translate(25.771 30.603)" fill="#efefef"/><rect width="70.87" height="72.481" rx="5" transform="translate(25.771 24.966)" fill="#fff"/><rect width="307.641" height="16.107" rx="5" transform="translate(25.771 122.412)" fill="#e5e5e5"/><rect width="96.641" height="20.939" rx="5" transform="translate(25.771 214.221)" fill="#8f8f8f"/><rect width="307.641" height="18.523" rx="5" transform="translate(25.771 145.767)" fill="#e5e5e5"/><rect width="96.641" height="20.939" rx="5" transform="translate(25.771 210.195)" fill="#a7a7a7"/><rect width="66.038" height="17.718" rx="5" transform="translate(23.355 277.038)" fill="#ff7d7d"/><rect width="86.977" height="17.718" rx="5" transform="translate(102.279 277.038)" fill="#e5e5e5"/><rect width="66.038" height="22.55" rx="5" transform="translate(23.355 302.004)" fill="#97ff84"/><rect width="157.847" height="22.55" rx="5" transform="translate(102.279 302.004)" fill="#e5e5e5"/><rect width="70.87" height="72.481" rx="5" transform="translate(562.13 428.443)" fill="#fff"/><rect width="70.87" height="72.481" rx="5" transform="translate(562.13 428.443)" fill="#fff"/><rect width="307.641" height="16.107" rx="5" transform="translate(25.771 122.412)" fill="#e5e5e5"/></g></g><g transform="matrix(1, 0, 0, 1, -201.9, 3810.23)" filter="url(#e)"><path d="M290.437,0C533.745,0,977.745,168.82,977.745,419.724S461.7,961.293,218.391,961.293.782,643.609.782,392.7,47.129,0,290.437,0Z" transform="translate(1326.54 1336.66) rotate(-60)" fill="url(#d)"/></g><g transform="translate(1233.195 4026.724)"><path d="M45.156-.753,27.7,27.463l48.107,5.1-37.9,32.8,3.369-28.427L0,32.566Z" transform="translate(0 1.612)" fill="rgba(169,0,252,0.23)"/><path d="M39.634,0l-10.2,27.7,40.186,6.565L33.8,65.6,43,37.174l-37.44-6.01Z" transform="translate(5.845)" fill="rgba(241,92,252,0.41)"/></g><g transform="translate(-33 90)"><g transform="translate(743 4101)"><g transform="translate(0 0)"><path d="M30,0H415.567a30,30,0,0,1,30,30V57.616a0,0,0,0,1,0,0H0a0,0,0,0,1,0,0V30A30,30,0,0,1,30,0Z" fill="#5b5b5b"/><rect width="242.949" height="20.166" rx="10.083" transform="translate(166.127 19.205)" fill="#3a3a3a"/><path d="M10.083,0A10.083,10.083,0,1,1,0,10.083,10.083,10.083,0,0,1,10.083,0Z" transform="translate(20.166 19.205)" fill="#ff7d7d"/><circle cx="10.083" cy="10.083" r="10.083" transform="translate(59.537 19.205)" fill="#fefa9c"/><circle cx="10.083" cy="10.083" r="10.083" transform="translate(98.908 19.205)" fill="#a4f595"/><g transform="translate(0 57.616)"><path d="M0,0H162.667a0,0,0,0,1,0,0V428.05a30,30,0,0,1-30,30H30a30,30,0,0,1-30-30V0A0,0,0,0,1,0,0Z" fill="#606060"/></g><g transform="translate(16.325 57.616)"><rect width="103.709" height="12.484" rx="3" transform="translate(0 44.173)" fill="#6d6d6d"/><rect width="78.742" height="12.484" rx="3" transform="translate(0 69.14)" fill="#6d6d6d"/><rect width="78.742" height="12.484" rx="3" transform="translate(0 94.107)" fill="#6d6d6d"/><rect width="45.133" height="12.484" rx="3" transform="translate(0 119.074)" fill="#6d6d6d"/><rect width="93.146" height="12.484" rx="3" transform="translate(0 144.041)" fill="#6d6d6d"/><g transform="translate(117.153)"><path d="M20,0H311.9a0,0,0,0,1,0,0V438.05a20,20,0,0,1-20,20H20a20,20,0,0,1-20-20V20A20,20,0,0,1,20,0Z" fill="#f8f8f8"/><g transform="translate(24.967 43.212)"><g transform="translate(0 4.852)" clip-path="url(#g)"><g transform="translate(-376 -4018)"><rect width="74" height="74" rx="5" transform="translate(376 4018)" fill="#efefef"/><rect width="74" height="74" rx="5" transform="translate(475 4018)" fill="#efefef"/><rect width="74" height="74" rx="5" transform="translate(574 4018)" fill="#efefef"/><rect width="74" height="74" rx="5" transform="translate(376 4118)" fill="#efefef"/><rect width="74" height="74" rx="5" transform="translate(475 4118)" fill="#efefef"/><rect width="74" height="74" rx="5" transform="translate(574 4118)" fill="#efefef"/></g></g><g clip-path="url(#g)"><g transform="translate(-376 -4018)"><rect width="74" height="74" rx="5" transform="translate(376 4018)" fill="#fff"/><rect width="74" height="74" rx="5" transform="translate(475 4018)" fill="#fff"/><rect width="74" height="74" rx="5" transform="translate(574 4018)" fill="#fff"/><rect width="74" height="74" rx="5" transform="translate(376 4118)" fill="#fff"/><rect width="74" height="74" rx="5" transform="translate(475 4118)" fill="#fff"/><rect width="74" height="74" rx="5" transform="translate(574 4118)" fill="#fff"/></g></g></g><g transform="translate(215.101 43.212)"><g transform="translate(0 4.852)" clip-path="url(#g)"><g transform="translate(-376 -4018)"><rect width="74" height="74" rx="5" transform="translate(376 4018)" fill="#efefef"/><rect width="74" height="74" rx="5" transform="translate(475 4018)" fill="#efefef"/><rect width="74" height="74" rx="5" transform="translate(574 4018)" fill="#efefef"/><rect width="74" height="74" rx="5" transform="translate(376 4118)" fill="#efefef"/><rect width="74" height="74" rx="5" transform="translate(475 4118)" fill="#efefef"/><rect width="74" height="74" rx="5" transform="translate(574 4118)" fill="#efefef"/></g></g><g transform="translate(0)" clip-path="url(#g)"><g transform="translate(-376 -4018)"><rect width="74" height="74" rx="5" transform="translate(376 4018)" fill="#fff"/><rect width="74" height="74" rx="5" transform="translate(475 4018)" fill="#fff"/><rect width="74" height="74" rx="5" transform="translate(574 4018)" fill="#fff"/><rect width="74" height="74" rx="5" transform="translate(376 4118)" fill="#fff"/><rect width="74" height="74" rx="5" transform="translate(475 4118)" fill="#fff"/><rect width="74" height="74" rx="5" transform="translate(574 4118)" fill="#fff"/></g></g></g><g transform="translate(118.114 43.212)"><g transform="translate(0 4.852)" clip-path="url(#g)"><g transform="translate(-376 -4018)"><rect width="74" height="74" rx="5" transform="translate(376 4018)" fill="#efefef"/><rect width="74" height="74" rx="5" transform="translate(475 4018)" fill="#efefef"/><rect width="74" height="74" rx="5" transform="translate(574 4018)" fill="#efefef"/><rect width="74" height="74" rx="5" transform="translate(376 4118)" fill="#efefef"/><rect width="74" height="74" rx="5" transform="translate(475 4118)" fill="#efefef"/><rect width="74" height="74" rx="5" transform="translate(574 4118)" fill="#efefef"/></g></g><g clip-path="url(#g)"><g transform="translate(-376 -4018)"><rect width="74" height="74" rx="5" transform="translate(376 4018)" fill="#fff"/><rect width="74" height="74" rx="5" transform="translate(475 4018)" fill="#fff"/><rect width="74" height="74" rx="5" transform="translate(574 4018)" fill="#fff"/><rect width="74" height="74" rx="5" transform="translate(376 4118)" fill="#fff"/><rect width="74" height="74" rx="5" transform="translate(475 4118)" fill="#fff"/><rect width="74" height="74" rx="5" transform="translate(574 4118)" fill="#fff"/></g></g></g><g transform="translate(24.967 142.12)"><g transform="translate(0 4.852)" clip-path="url(#g)"><g transform="translate(-376 -4018)"><rect width="74" height="74" rx="5" transform="translate(376 4018)" fill="#efefef"/><rect width="74" height="74" rx="5" transform="translate(475 4018)" fill="#efefef"/><rect width="74" height="74" rx="5" transform="translate(574 4018)" fill="#efefef"/><rect width="74" height="74" rx="5" transform="translate(376 4118)" fill="#efefef"/><rect width="74" height="74" rx="5" transform="translate(475 4118)" fill="#efefef"/><rect width="74" height="74" rx="5" transform="translate(574 4118)" fill="#efefef"/></g></g><g clip-path="url(#g)"><g transform="translate(-376 -4018)"><rect width="74" height="74" rx="5" transform="translate(376 4018)" fill="#fff"/><rect width="74" height="74" rx="5" transform="translate(475 4018)" fill="#fff"/><rect width="74" height="74" rx="5" transform="translate(574 4018)" fill="#fff"/><rect width="74" height="74" rx="5" transform="translate(376 4118)" fill="#fff"/><rect width="74" height="74" rx="5" transform="translate(475 4118)" fill="#fff"/><rect width="74" height="74" rx="5" transform="translate(574 4118)" fill="#fff"/></g></g></g><g transform="translate(215.101 142.12)"><g transform="translate(0 4.852)" clip-path="url(#g)"><g transform="translate(-376 -4018)"><rect width="74" height="74" rx="5" transform="translate(376 4018)" fill="#efefef"/><rect width="74" height="74" rx="5" transform="translate(475 4018)" fill="#efefef"/><rect width="74" height="74" rx="5" transform="translate(574 4018)" fill="#efefef"/><rect width="74" height="74" rx="5" transform="translate(376 4118)" fill="#efefef"/><rect width="74" height="74" rx="5" transform="translate(475 4118)" fill="#efefef"/><rect width="74" height="74" rx="5" transform="translate(574 4118)" fill="#efefef"/></g></g><g transform="translate(0)" clip-path="url(#g)"><g transform="translate(-376 -4018)"><rect width="74" height="74" rx="5" transform="translate(376 4018)" fill="#fff"/><rect width="74" height="74" rx="5" transform="translate(475 4018)" fill="#fff"/><rect width="74" height="74" rx="5" transform="translate(574 4018)" fill="#fff"/><rect width="74" height="74" rx="5" transform="translate(376 4118)" fill="#fff"/><rect width="74" height="74" rx="5" transform="translate(475 4118)" fill="#fff"/><rect width="74" height="74" rx="5" transform="translate(574 4118)" fill="#fff"/></g></g></g><g transform="translate(118.114 142.12)"><g transform="translate(0 4.852)" clip-path="url(#g)"><g transform="translate(-376 -4018)"><rect width="74" height="74" rx="5" transform="translate(376 4018)" fill="#efefef"/><rect width="74" height="74" rx="5" transform="translate(475 4018)" fill="#efefef"/><rect width="74" height="74" rx="5" transform="translate(574 4018)" fill="#efefef"/><rect width="74" height="74" rx="5" transform="translate(376 4118)" fill="#efefef"/><rect width="74" height="74" rx="5" transform="translate(475 4118)" fill="#efefef"/><rect width="74" height="74" rx="5" transform="translate(574 4118)" fill="#efefef"/></g></g><g clip-path="url(#g)"><g transform="translate(-376 -4018)"><rect width="74" height="74" rx="5" transform="translate(376 4018)" fill="#fff"/><rect width="74" height="74" rx="5" transform="translate(475 4018)" fill="#fff"/><rect width="74" height="74" rx="5" transform="translate(574 4018)" fill="#fff"/><rect width="74" height="74" rx="5" transform="translate(376 4118)" fill="#fff"/><rect width="74" height="74" rx="5" transform="translate(475 4118)" fill="#fff"/><rect width="74" height="74" rx="5" transform="translate(574 4118)" fill="#fff"/></g></g></g><g transform="translate(24.967 241.028)"><g transform="translate(0 4.852)" clip-path="url(#g)"><g transform="translate(-376 -4018)"><rect width="74" height="74" rx="5" transform="translate(376 4018)" fill="#efefef"/><rect width="74" height="74" rx="5" transform="translate(475 4018)" fill="#efefef"/><rect width="74" height="74" rx="5" transform="translate(574 4018)" fill="#efefef"/><rect width="74" height="74" rx="5" transform="translate(376 4118)" fill="#efefef"/><rect width="74" height="74" rx="5" transform="translate(475 4118)" fill="#efefef"/><rect width="74" height="74" rx="5" transform="translate(574 4118)" fill="#efefef"/></g></g><g transform="translate(0 0)" clip-path="url(#g)"><g transform="translate(-376 -4018)"><rect width="74" height="74" rx="5" transform="translate(376 4018)" fill="#fff"/><rect width="74" height="74" rx="5" transform="translate(475 4018)" fill="#fff"/><rect width="74" height="74" rx="5" transform="translate(574 4018)" fill="#fff"/><rect width="74" height="74" rx="5" transform="translate(376 4118)" fill="#fff"/><rect width="74" height="74" rx="5" transform="translate(475 4118)" fill="#fff"/><rect width="74" height="74" rx="5" transform="translate(574 4118)" fill="#fff"/></g></g></g><g transform="translate(215.101 241.028)"><g transform="translate(0 4.852)" clip-path="url(#g)"><g transform="translate(-376 -4018)"><rect width="74" height="74" rx="5" transform="translate(376 4018)" fill="#efefef"/><rect width="74" height="74" rx="5" transform="translate(475 4018)" fill="#efefef"/><rect width="74" height="74" rx="5" transform="translate(574 4018)" fill="#efefef"/><rect width="74" height="74" rx="5" transform="translate(376 4118)" fill="#efefef"/><rect width="74" height="74" rx="5" transform="translate(475 4118)" fill="#efefef"/><rect width="74" height="74" rx="5" transform="translate(574 4118)" fill="#efefef"/></g></g><g transform="translate(0 0)" clip-path="url(#g)"><g transform="translate(-376 -4018)"><rect width="74" height="74" rx="5" transform="translate(376 4018)" fill="#fff"/><rect width="74" height="74" rx="5" transform="translate(475 4018)" fill="#fff"/><rect width="74" height="74" rx="5" transform="translate(574 4018)" fill="#fff"/><rect width="74" height="74" rx="5" transform="translate(376 4118)" fill="#fff"/><rect width="74" height="74" rx="5" transform="translate(475 4118)" fill="#fff"/><rect width="74" height="74" rx="5" transform="translate(574 4118)" fill="#fff"/></g></g></g><g transform="translate(118.114 241.028)"><g transform="translate(0 4.852)" clip-path="url(#g)"><g transform="translate(-376 -4018)"><rect width="74" height="74" rx="5" transform="translate(376 4018)" fill="#efefef"/><rect width="74" height="74" rx="5" transform="translate(475 4018)" fill="#efefef"/><rect width="74" height="74" rx="5" transform="translate(574 4018)" fill="#efefef"/><rect width="74" height="74" rx="5" transform="translate(376 4118)" fill="#efefef"/><rect width="74" height="74" rx="5" transform="translate(475 4118)" fill="#efefef"/><rect width="74" height="74" rx="5" transform="translate(574 4118)" fill="#efefef"/></g></g><g transform="translate(0 0)" clip-path="url(#g)"><g transform="translate(-376 -4018)"><rect width="74" height="74" rx="5" transform="translate(376 4018)" fill="#fff"/><rect width="74" height="74" rx="5" transform="translate(475 4018)" fill="#fff"/><rect width="74" height="74" rx="5" transform="translate(574 4018)" fill="#fff"/><rect width="74" height="74" rx="5" transform="translate(376 4118)" fill="#fff"/><rect width="74" height="74" rx="5" transform="translate(475 4118)" fill="#fff"/><rect width="74" height="74" rx="5" transform="translate(574 4118)" fill="#fff"/></g></g></g><g transform="translate(24.967 339.937)"><g transform="translate(0 4.852)" clip-path="url(#g)"><g transform="translate(-376 -4018)"><rect width="74" height="74" rx="5" transform="translate(376 4018)" fill="#efefef"/><rect width="74" height="74" rx="5" transform="translate(475 4018)" fill="#efefef"/><rect width="74" height="74" rx="5" transform="translate(574 4018)" fill="#efefef"/><rect width="74" height="74" rx="5" transform="translate(376 4118)" fill="#efefef"/><rect width="74" height="74" rx="5" transform="translate(475 4118)" fill="#efefef"/><rect width="74" height="74" rx="5" transform="translate(574 4118)" fill="#efefef"/></g></g><g clip-path="url(#g)"><g transform="translate(-376 -4018)"><rect width="74" height="74" rx="5" transform="translate(376 4018)" fill="#fff"/><rect width="74" height="74" rx="5" transform="translate(475 4018)" fill="#fff"/><rect width="74" height="74" rx="5" transform="translate(574 4018)" fill="#fff"/><rect width="74" height="74" rx="5" transform="translate(376 4118)" fill="#fff"/><rect width="74" height="74" rx="5" transform="translate(475 4118)" fill="#fff"/><rect width="74" height="74" rx="5" transform="translate(574 4118)" fill="#fff"/></g></g></g><g transform="translate(215.101 339.937)"><g transform="translate(0 4.852)" clip-path="url(#g)"><g transform="translate(-376 -4018)"><rect width="74" height="74" rx="5" transform="translate(376 4018)" fill="#efefef"/><rect width="74" height="74" rx="5" transform="translate(475 4018)" fill="#efefef"/><rect width="74" height="74" rx="5" transform="translate(574 4018)" fill="#efefef"/><rect width="74" height="74" rx="5" transform="translate(376 4118)" fill="#efefef"/><rect width="74" height="74" rx="5" transform="translate(475 4118)" fill="#efefef"/><rect width="74" height="74" rx="5" transform="translate(574 4118)" fill="#efefef"/></g></g><g transform="translate(0)" clip-path="url(#g)"><g transform="translate(-376 -4018)"><rect width="74" height="74" rx="5" transform="translate(376 4018)" fill="#fff"/><rect width="74" height="74" rx="5" transform="translate(475 4018)" fill="#fff"/><rect width="74" height="74" rx="5" transform="translate(574 4018)" fill="#fff"/><rect width="74" height="74" rx="5" transform="translate(376 4118)" fill="#fff"/><rect width="74" height="74" rx="5" transform="translate(475 4118)" fill="#fff"/><rect width="74" height="74" rx="5" transform="translate(574 4118)" fill="#fff"/></g></g></g><g transform="translate(118.114 339.937)"><g transform="translate(0 4.852)" clip-path="url(#g)"><g transform="translate(-376 -4018)"><rect width="74" height="74" rx="5" transform="translate(376 4018)" fill="#efefef"/><rect width="74" height="74" rx="5" transform="translate(475 4018)" fill="#efefef"/><rect width="74" height="74" rx="5" transform="translate(574 4018)" fill="#efefef"/><rect width="74" height="74" rx="5" transform="translate(376 4118)" fill="#efefef"/><rect width="74" height="74" rx="5" transform="translate(475 4118)" fill="#efefef"/><rect width="74" height="74" rx="5" transform="translate(574 4118)" fill="#efefef"/></g></g><g clip-path="url(#g)"><g transform="translate(-376 -4018)"><rect width="74" height="74" rx="5" transform="translate(376 4018)" fill="#fff"/><rect width="74" height="74" rx="5" transform="translate(475 4018)" fill="#fff"/><rect width="74" height="74" rx="5" transform="translate(574 4018)" fill="#fff"/><rect width="74" height="74" rx="5" transform="translate(376 4118)" fill="#fff"/><rect width="74" height="74" rx="5" transform="translate(475 4118)" fill="#fff"/><rect width="74" height="74" rx="5" transform="translate(574 4118)" fill="#fff"/></g></g></g><rect width="16.325" height="5.762" rx="2.881" transform="translate(90.266 431.163)" fill="#585858"/><circle cx="2.881" cy="2.881" r="2.881" transform="translate(110.431 431.163)" fill="#585858"/><circle cx="2.881" cy="2.881" r="2.881" transform="translate(148.842 431.163)" fill="#585858"/><circle cx="2.881" cy="2.881" r="2.881" transform="translate(139.24 431.163)" fill="#585858"/><circle cx="2.881" cy="2.881" r="2.881" transform="translate(120.034 431.163)" fill="#585858"/><circle cx="2.881" cy="2.881" r="2.881" transform="translate(129.637 431.163)" fill="#585858"/><rect width="16.325" height="5.762" rx="2.881" transform="translate(158.445 431.163)" fill="#585858"/><rect width="16.325" height="5.762" rx="2.881" transform="translate(90.266 430.202)" fill="#7d7d7d"/><circle cx="2.881" cy="2.881" r="2.881" transform="translate(110.431 430.202)" fill="#7d7d7d"/><circle cx="2.881" cy="2.881" r="2.881" transform="translate(148.842 430.202)" fill="#7d7d7d"/><circle cx="2.881" cy="2.881" r="2.881" transform="translate(139.24 430.202)" fill="#7d7d7d"/><circle cx="2.881" cy="2.881" r="2.881" transform="translate(120.034 430.202)" fill="#7d7d7d"/><circle cx="2.881" cy="2.881" r="2.881" transform="translate(129.637 430.202)" fill="#7d7d7d"/><rect width="16.325" height="5.762" rx="2.881" transform="translate(158.445 430.202)" fill="#7d7d7d"/></g></g></g></g></g><path d="M467.808,52.8H459V44h-2.2v8.8H448V55h8.8v8.8H459V55h8.8Z" transform="translate(270.871 4016.584)" fill="#8684bd"/><path d="M312.788,415.576l9.656-4.209a.369.369,0,0,0,0-.5l-9.656-4.209-4.333-9.656a.216.216,0,0,0-.083-.062.245.245,0,0,0-.2,0,.229.229,0,0,0-.084.062l-4.333,9.532-9.656,4.333a.373.373,0,0,0,0,.5l9.656,4.209,4.333,9.532q.249.371.371,0Z" transform="translate(69.892 3440.049)" fill="#628bf7"/><path d="M536.016,40.32l-7.923-3.466c-.124,0-.124-.248,0-.248l7.923-3.59h.124l3.466-7.923c0-.124.248-.124.248,0l3.59,7.923,7.923,3.59c.124,0,.124.248,0,.248l-7.923,3.466-3.59,7.923h-.248L536.14,40.32Z" transform="translate(88.757 4499.201)" fill="#fdd2f8"/><path d="M536.016,40.32l-7.923-3.466c-.124,0-.124-.248,0-.248l7.923-3.59h.124l3.466-7.923c0-.124.248-.124.248,0l3.59,7.923,7.923,3.59c.124,0,.124.248,0,.248l-7.923,3.466-3.59,7.923h-.248L536.14,40.32Z" transform="translate(88.757 4499.201)" fill="#fdd2f8"/><path d="M312.788,415.576l9.656-4.209a.369.369,0,0,0,0-.5l-9.656-4.209-4.333-9.656a.216.216,0,0,0-.083-.062.245.245,0,0,0-.2,0,.229.229,0,0,0-.084.062l-4.333,9.532-9.656,4.333a.373.373,0,0,0,0,.5l9.656,4.209,4.333,9.532q.249.371.371,0Z" transform="translate(1426.892 3557.049)" fill="#62f785"/><path d="M312.788,415.576l9.656-4.209a.369.369,0,0,0,0-.5l-9.656-4.209-4.333-9.656a.216.216,0,0,0-.083-.062.245.245,0,0,0-.2,0,.229.229,0,0,0-.084.062l-4.333,9.532-9.656,4.333a.373.373,0,0,0,0,.5l9.656,4.209,4.333,9.532q.249.371.371,0Z" transform="translate(962.892 4081.049)" fill="#f7e862" opacity="0.6"/><path d="M312.788,415.576l9.656-4.209a.369.369,0,0,0,0-.5l-9.656-4.209-4.333-9.656a.216.216,0,0,0-.083-.062.245.245,0,0,0-.2,0,.229.229,0,0,0-.084.062l-4.333,9.532-9.656,4.333a.373.373,0,0,0,0,.5l9.656,4.209,4.333,9.532q.249.371.371,0Z" transform="translate(713.892 3635.049)" fill="#f762e3" opacity="0.6"/><path d="M467.808,52.8H459V44h-2.2v8.8H448V55h8.8v8.8H459V55h8.8Z" transform="translate(676.871 4744.584)" fill="#8684bd"/><g transform="matrix(0.53, 0.848, -0.848, 0.53, 578.817, 4678.486)" fill="#fff"><path d="M 18.45724105834961 17.5 L 2.542758226394653 17.5 L 10.5 3.101181507110596 L 18.45724105834961 17.5 Z" stroke="none"/><path d="M 10.5 6.202363014221191 L 5.085515975952148 16 L 15.91448402404785 16 L 10.5 6.202363014221191 M 10.5 0 L 21 19 L 0 19 L 10.5 0 Z" stroke="none" fill="#adf9f7"/></g><path d="M312.788,415.576l9.656-4.209a.369.369,0,0,0,0-.5l-9.656-4.209-4.333-9.656a.216.216,0,0,0-.083-.062.245.245,0,0,0-.2,0,.229.229,0,0,0-.084.062l-4.333,9.532-9.656,4.333a.373.373,0,0,0,0,.5l9.656,4.209,4.333,9.532q.249.371.371,0Z" transform="translate(666.892 4451.049)" fill="#628bf7"/><g transform="translate(1295.195 4103.724)"><path d="M22.04-.753,13.519,13.019,37,15.509,18.5,31.519l1.644-13.875L0,15.509Z" transform="translate(165.805 464.459)" fill="rgba(0,252,134,0.23)"/><path d="M22.193,0,17.212,13.519l19.615,3.2-17.481,15.3,4.491-13.875L5.563,15.211Z" transform="translate(165.811 463.286)" fill="rgba(92,252,135,0.41)"/></g><g transform="translate(1285 4102.616)"><path d="M0,0H164a0,0,0,0,1,0,0V480.384a0,0,0,0,1,0,0H30a30,30,0,0,1-30-30V0A0,0,0,0,1,0,0Z" fill="#606060"/></g><g transform="matrix(0.53, 0.848, -0.848, 0.53, 1750.817, 4414.486)" fill="#fff"><path d="M 39.16022491455078 28.5 L 4.839774608612061 28.5 L 22 4.319682121276855 L 39.16022491455078 28.5 Z" stroke="none"/><path d="M 22 8.639348983764648 L 9.679538726806641 26 L 34.32046127319336 26 L 22 8.639348983764648 M 22 0 L 44 31 L 0 31 L 22 0 Z" stroke="none" fill="#adf9f7"/></g><g transform="translate(542 -68)"><g transform="translate(0 13)"><g transform="translate(532 188)"><path d="M30,0H434a30,30,0,0,1,30,30V60a0,0,0,0,1,0,0H0a0,0,0,0,1,0,0V30A30,30,0,0,1,30,0Z" transform="translate(211 3913)" fill="#5b5b5b"/><rect width="253" height="21" rx="10.5" transform="translate(384 3933)" fill="#3a3a3a"/><path d="M10.5,0A10.5,10.5,0,1,1,0,10.5,10.5,10.5,0,0,1,10.5,0Z" transform="translate(232 3933)" fill="#ff7d7d"/><circle cx="10.5" cy="10.5" r="10.5" transform="translate(273 3933)" fill="#fefa9c"/><circle cx="10.5" cy="10.5" r="10.5" transform="translate(314 3933)" fill="#a4f595"/></g><g transform="translate(0 -2)"><rect width="65" height="13" rx="3" transform="translate(760 4207)" fill="#6d6d6d"/><rect width="94" height="13" rx="3" transform="translate(760 4233)" fill="#6d6d6d"/><rect width="73" height="13" rx="3" transform="translate(760 4259)" fill="#6d6d6d"/><rect width="47" height="13" rx="3" transform="translate(760 4285)" fill="#6d6d6d"/><rect width="101" height="13" rx="3" transform="translate(760 4311)" fill="#6d6d6d"/><g transform="translate(-206 3)"><g transform="translate(530 187)"><path d="M20,0H324.8a0,0,0,0,1,0,0V457a20,20,0,0,1-20,20H20A20,20,0,0,1,0,457V20A20,20,0,0,1,20,0Z" transform="translate(557 3973)" fill="#f8f8f8"/></g></g><rect width="47" height="13" rx="3" transform="translate(760 4337)" fill="#6d6d6d"/><rect width="91" height="8" rx="3" transform="translate(999 4176)" fill="#828282"/><rect width="289" height="65" rx="10" transform="translate(901 4214)" fill="#ebebeb"/><rect width="289" height="65" rx="10" transform="translate(901 4210)" fill="#fff"/><path d="M5,0H41a5,5,0,0,1,5,5V41a5,5,0,0,1-5,5H5a5,5,0,0,1-5-5V5A5,5,0,0,1,5,0Z" transform="translate(913 4219)" fill="#ff7d7d"/><path d="M3,0H88a3,3,0,0,1,3,3V5a3,3,0,0,1-3,3H3A3,3,0,0,1,0,5V3A3,3,0,0,1,3,0Z" transform="translate(976 4225)" fill="url(#ae)"/><path d="M4.5,0H132c2.485,0,4.5,1.343,4.5,3V5c0,1.657-2.015,3-4.5,3H4.5C2.015,8,0,6.657,0,5V3C0,1.343,2.015,0,4.5,0Z" transform="translate(976 4239)" fill="url(#ae)"/><path d="M4.5,0H132c2.485,0,4.5,1.343,4.5,3V5c0,1.657-2.015,3-4.5,3H4.5C2.015,8,0,6.657,0,5V3C0,1.343,2.015,0,4.5,0Z" transform="translate(976 4253)" fill="url(#ae)"/><rect width="289" height="65" rx="10" transform="translate(901 4214)" fill="#ebebeb"/><rect width="289" height="65" rx="10" transform="translate(901 4210)" fill="#fff"/><path d="M5,0H41a5,5,0,0,1,5,5V41a5,5,0,0,1-5,5H5a5,5,0,0,1-5-5V5A5,5,0,0,1,5,0Z" transform="translate(913 4219)" fill="#ebc4ff"/><path d="M3,0H88a3,3,0,0,1,3,3V5a3,3,0,0,1-3,3H3A3,3,0,0,1,0,5V3A3,3,0,0,1,3,0Z" transform="translate(976 4225)" fill="url(#ah)"/><path d="M4.5,0H132c2.485,0,4.5,1.343,4.5,3V5c0,1.657-2.015,3-4.5,3H4.5C2.015,8,0,6.657,0,5V3C0,1.343,2.015,0,4.5,0Z" transform="translate(976 4239)" fill="url(#ah)"/><path d="M4.5,0H132c2.485,0,4.5,1.343,4.5,3V5c0,1.657-2.015,3-4.5,3H4.5C2.015,8,0,6.657,0,5V3C0,1.343,2.015,0,4.5,0Z" transform="translate(976 4253)" fill="url(#ah)"/><g transform="translate(0 80)"><rect width="289" height="65" rx="10" transform="translate(901 4214)" fill="#ebebeb"/><rect width="289" height="65" rx="10" transform="translate(901 4210)" fill="#fff"/><path d="M5,0H41a5,5,0,0,1,5,5V41a5,5,0,0,1-5,5H5a5,5,0,0,1-5-5V5A5,5,0,0,1,5,0Z" transform="translate(913 4219)" fill="#ff9595"/><path d="M3,0H88a3,3,0,0,1,3,3V5a3,3,0,0,1-3,3H3A3,3,0,0,1,0,5V3A3,3,0,0,1,3,0Z" transform="translate(976 4225)" fill="url(#ah)"/><path d="M4.5,0H132c2.485,0,4.5,1.343,4.5,3V5c0,1.657-2.015,3-4.5,3H4.5C2.015,8,0,6.657,0,5V3C0,1.343,2.015,0,4.5,0Z" transform="translate(976 4239)" fill="url(#ah)"/><path d="M4.5,0H132c2.485,0,4.5,1.343,4.5,3V5c0,1.657-2.015,3-4.5,3H4.5C2.015,8,0,6.657,0,5V3C0,1.343,2.015,0,4.5,0Z" transform="translate(976 4253)" fill="url(#ah)"/></g></g><g transform="translate(447 127)"><g transform="translate(-447 49)"><rect width="289" height="65" rx="10" transform="translate(901 4214)" fill="#ebebeb"/><rect width="289" height="65" rx="10" transform="translate(901 4210)" fill="#fff"/><path d="M5,0H41a5,5,0,0,1,5,5V41a5,5,0,0,1-5,5H5a5,5,0,0,1-5-5V5A5,5,0,0,1,5,0Z" transform="translate(913 4219)" fill="#fff195"/><path d="M3,0H88a3,3,0,0,1,3,3V5a3,3,0,0,1-3,3H3A3,3,0,0,1,0,5V3A3,3,0,0,1,3,0Z" transform="translate(976 4225)" fill="url(#ah)"/><path d="M4.5,0H132c2.485,0,4.5,1.343,4.5,3V5c0,1.657-2.015,3-4.5,3H4.5C2.015,8,0,6.657,0,5V3C0,1.343,2.015,0,4.5,0Z" transform="translate(976 4239)" fill="url(#ah)"/><path d="M4.5,0H132c2.485,0,4.5,1.343,4.5,3V5c0,1.657-2.015,3-4.5,3H4.5C2.015,8,0,6.657,0,5V3C0,1.343,2.015,0,4.5,0Z" transform="translate(976 4253)" fill="url(#ah)"/></g></g></g></g></g></svg>