<svg xmlns="http://www.w3.org/2000/svg" xmlns:xlink="http://www.w3.org/1999/xlink" width="1153.212" height="884.284" viewBox="0 0 1153.212 884.284">
  <defs>
    <linearGradient id="linear-gradient" x1="0.45" y1="-0.073" x2="0.465" y2="1.113" gradientUnits="objectBoundingBox">
      <stop offset="0" stop-color="#30a5ff"/>
      <stop offset="0.146" stop-color="#5ebdea"/>
      <stop offset="1" stop-color="#c337fe" stop-opacity="0.588"/>
      <stop offset="1" stop-color="#7300b4"/>
    </linearGradient>
  </defs>
  <path id="MiddleWave1" d="M1384.627,1588.768v-739s32.941-26.371,59.2,1.394,58.455,138.825,234.666,89.871c55.506-15.42,100.813-14.613,136.394,32.149,61.693,49.587,119.5,26.718,162.6,14.587,41.306-11.627,76.155-38,116.136-36,36.5,1.555,97.994,105.63,165.636,90,49.946-11.541,103.964-51.526,152.79-92.438,51.413-43.08,97.006-87.185,125.577-99.562.476,167,0,739,0,739s-52.5,67.34-127.1,90c-59.02,12-91.861-47-146.6-34-31.692,7.527-114.236,87.6-191.632,77-55.823-7.648-113.962-110.679-171.993-113-50-2-93.085,60.307-145.086,44.922-50.025-14.8-91.556-113.452-145.649-137.52a65.045,65.045,0,0,0-6.265-2.4C1445.562,1462.531,1384.627,1588.768,1384.627,1588.768Z" transform="translate(-1384.627 -838.45)" opacity="0.13" fill="url(#linear-gradient)"/>
</svg>
